SplineFontDB: 3.2
FontName: Hobo_Sabien
FullName: Hobo Sabien
FamilyName: Hobo Sabien
Weight: Medium
Copyright: Chucklefish
Version: 001.000
ItalicAngle: 0
UnderlinePosition: -303
UnderlineWidth: 51
Ascent: 768
Descent: 256
InvalidEm: 0
sfntRevision: 0x00010000
LayerCount: 2
Layer: 0 1 "Back" 1
Layer: 1 1 "Fore" 0
XUID: [1021 295 540126281 3287]
StyleMap: 0x0040
FSType: 0
OS2Version: 1
OS2_WeightWidthSlopeOnly: 0
OS2_UseTypoMetrics: 0
CreationTime: 1280473793
ModificationTime: 1691072044
PfmFamily: 17
TTFWeight: 500
TTFWidth: 5
LineGap: 92
VLineGap: 0
Panose: 2 0 6 3 0 0 0 0 0 0
OS2TypoAscent: 768
OS2TypoAOffset: 0
OS2TypoDescent: -256
OS2TypoDOffset: 0
OS2TypoLinegap: 92
OS2WinAscent: 768
OS2WinAOffset: 0
OS2WinDescent: 256
OS2WinDOffset: 0
HheadAscent: 768
HheadAOffset: 0
HheadDescent: -256
HheadDOffset: 0
OS2SubXSize: 665
OS2SubYSize: 716
OS2SubXOff: 0
OS2SubYOff: 143
OS2SupXSize: 665
OS2SupYSize: 716
OS2SupXOff: 0
OS2SupYOff: 491
OS2StrikeYSize: 51
OS2StrikeYPos: 265
OS2Vendor: '2ttf'
OS2CodePages: 00000001.00000000
OS2UnicodeRanges: 00000007.00010002.00000000.00000000
MarkAttachClasses: 1
DEI: 91125
ShortTable: cvt  2
  34
  648
EndShort
ShortTable: maxp 16
  1
  0
  656
  96
  24
  0
  0
  2
  0
  1
  1
  0
  64
  46
  0
  0
EndShort
LangName: 1033
GaspTable: 1 65535 0 0
Encoding: UnicodeBmp
UnicodeInterp: none
NameList: AGL For New Fonts
DisplaySize: -72
AntiAlias: 1
FitToEm: 0
WinInfo: 9330 30 14
BeginPrivate: 0
EndPrivate
Grid
-1235.5 1280 m 0
 -1235.5 -768 l 1024
EndSplineSet
BeginChars: 65539 658

StartChar: .notdef
Encoding: 65536 -1 0
Width: 374
GlyphClass: 1
Flags: W
LayerCount: 2
Fore
SplineSet
34 0 m 1,0,-1
 34 682 l 1,1,-1
 306 682 l 1,2,-1
 306 0 l 1,3,-1
 34 0 l 1,0,-1
68 34 m 1,4,-1
 272 34 l 1,5,-1
 272 648 l 1,6,-1
 68 648 l 1,7,-1
 68 34 l 1,4,-1
EndSplineSet
Validated: 1
EndChar

StartChar: exclam
Encoding: 33 33 4
Width: 256
GlyphClass: 2
Flags: W
LayerCount: 2
Fore
SplineSet
0 0 m 1,0,-1
 0 128 l 1,1,-1
 128 128 l 1,2,-1
 128 0 l 1,3,-1
 0 0 l 1,0,-1
0 256 m 1,4,-1
 0 640 l 1,5,-1
 128 640 l 1,6,-1
 128 256 l 1,7,-1
 0 256 l 1,4,-1
EndSplineSet
Validated: 1
EndChar

StartChar: quotedbl
Encoding: 34 34 5
Width: 512
GlyphClass: 2
Flags: W
LayerCount: 2
Fore
SplineSet
256 384 m 1,0,-1
 256 640 l 1,1,-1
 384 640 l 1,2,-1
 384 384 l 1,3,-1
 256 384 l 1,0,-1
0 384 m 1,4,-1
 0 640 l 1,5,-1
 128 640 l 1,6,-1
 128 384 l 1,7,-1
 0 384 l 1,4,-1
EndSplineSet
Validated: 1
EndChar

StartChar: numbersign
Encoding: 35 35 6
Width: 768
GlyphClass: 2
Flags: W
LayerCount: 2
Fore
SplineSet
384 0 m 1,0,-1
 384 128 l 1,1,-1
 256 128 l 1,2,-1
 256 0 l 1,3,-1
 128 0 l 1,4,-1
 128 128 l 1,5,-1
 0 128 l 1,6,-1
 0 256 l 1,7,-1
 128 256 l 1,8,-1
 128 384 l 1,9,-1
 0 384 l 1,10,-1
 0 512 l 1,11,-1
 128 512 l 1,12,-1
 128 640 l 1,13,-1
 256 640 l 1,14,-1
 256 512 l 1,15,-1
 384 512 l 1,16,-1
 384 640 l 1,17,-1
 512 640 l 1,18,-1
 512 512 l 1,19,-1
 640 512 l 1,20,-1
 640 384 l 1,21,-1
 512 384 l 1,22,-1
 512 256 l 1,23,-1
 640 256 l 1,24,-1
 640 128 l 1,25,-1
 512 128 l 1,26,-1
 512 0 l 1,27,-1
 384 0 l 1,0,-1
384 256 m 1,28,-1
 384 384 l 1,29,-1
 256 384 l 1,30,-1
 256 256 l 1,31,-1
 384 256 l 1,28,-1
EndSplineSet
Validated: 1
EndChar

StartChar: dollar
Encoding: 36 36 7
Width: 640
GlyphClass: 2
Flags: W
LayerCount: 2
Fore
SplineSet
0 0 m 1,0,-1
 0 128 l 1,1,-1
 320 128 l 1,2,-1
 320 192 l 1,3,-1
 128 192 l 1,4,-1
 64 256 l 1,5,-1
 64 448 l 1,6,-1
 128 512 l 1,7,-1
 256 512 l 1,8,-1
 256 640 l 1,9,-1
 384 640 l 1,10,-1
 384 512 l 5,11,-1
 512 512 l 1,12,-1
 512 384 l 1,13,-1
 192 384 l 1,14,-1
 192 320 l 1,15,-1
 384 320 l 1,16,-1
 448 256 l 1,17,-1
 448 64 l 1,18,-1
 384 0 l 1,19,-1
 384 -128 l 1,20,-1
 256 -128 l 1,21,-1
 256 0 l 1,22,-1
 0 0 l 1,0,-1
EndSplineSet
Validated: 1
EndChar

StartChar: percent
Encoding: 37 37 8
Width: 768
GlyphClass: 2
Flags: W
LayerCount: 2
Fore
SplineSet
512 0 m 1,0,-1
 512 128 l 1,1,-1
 640 128 l 1,2,-1
 640 0 l 1,3,-1
 512 0 l 1,0,-1
128 0 m 1,4,-1
 128 256 l 1,5,-1
 384 448 l 1,6,-1
 384 640 l 1,7,-1
 512 640 l 1,8,-1
 512 384 l 1,9,-1
 256 192 l 1,10,-1
 256 0 l 1,11,-1
 128 0 l 1,4,-1
0 512 m 1,12,-1
 0 640 l 1,13,-1
 128 640 l 1,14,-1
 128 512 l 1,15,-1
 0 512 l 1,12,-1
EndSplineSet
Validated: 1
EndChar

StartChar: ampersand
Encoding: 38 38 9
Width: 768
GlyphClass: 2
Flags: W
LayerCount: 2
Fore
SplineSet
576 0 m 1,0,-1
 448 128 l 1,1,2
 448 128 448 128 320 0 c 1,3,-1
 128 0 l 1,4,-1
 0 128 l 1,5,-1
 0 256 l 1,6,-1
 64 320 l 1,7,-1
 0 384 l 1,8,-1
 0 512 l 1,9,-1
 128 640 l 1,10,-1
 384 640 l 1,11,-1
 384 512 l 1,12,-1
 192 512 l 1,13,-1
 128 448 l 1,14,15
 128 448 128 448 192 384 c 1,16,-1
 320 384 l 1,17,-1
 448 256 l 1,18,19
 448 256 448 256 576 384 c 1,20,-1
 640 384 l 1,21,-1
 640 320 l 1,22,-1
 512 192 l 1,23,24
 512 192 512 192 640 64 c 1,25,-1
 640 0 l 1,26,-1
 576 0 l 1,0,-1
320 128 m 1,27,-1
 384 192 l 1,28,29
 384 192 384 192 320 256 c 1,30,-1
 192 256 l 1,31,-1
 128 192 l 1,32,33
 128 192 128 192 192 128 c 1,34,-1
 320 128 l 1,27,-1
EndSplineSet
Validated: 1
EndChar

StartChar: quotesingle
Encoding: 39 39 10
Width: 256
GlyphClass: 2
Flags: W
LayerCount: 2
Fore
SplineSet
0 384 m 1,0,-1
 0 640 l 1,1,-1
 128 640 l 1,2,-1
 128 384 l 1,3,-1
 0 384 l 1,0,-1
EndSplineSet
Validated: 1
EndChar

StartChar: parenleft
Encoding: 40 40 11
Width: 384
GlyphClass: 2
Flags: W
LayerCount: 2
Fore
SplineSet
128 0 m 1,0,-1
 0 128 l 1,1,-1
 0 512 l 1,2,-1
 128 640 l 1,3,-1
 256 640 l 1,4,-1
 256 512 l 1,5,-1
 192 512 l 1,6,-1
 128 448 l 1,7,-1
 128 192 l 5,8,-1
 192 128 l 5,9,-1
 256 128 l 1,10,-1
 256 0 l 1,11,-1
 128 0 l 1,0,-1
EndSplineSet
Validated: 1
EndChar

StartChar: parenright
Encoding: 41 41 12
Width: 384
GlyphClass: 2
Flags: W
LayerCount: 2
Fore
SplineSet
0 0 m 1,0,-1
 0 128 l 1,1,-1
 64 128 l 1,2,-1
 128 192 l 1,3,-1
 128 448 l 1,4,-1
 64 512 l 1,5,-1
 0 512 l 1,6,-1
 0 640 l 1,7,-1
 128 640 l 1,8,-1
 256 512 l 1,9,-1
 256 128 l 5,10,-1
 128 0 l 5,11,-1
 0 0 l 1,0,-1
EndSplineSet
Validated: 1
EndChar

StartChar: asterisk
Encoding: 42 42 13
Width: 512
GlyphClass: 2
Flags: W
LayerCount: 2
Fore
SplineSet
256 256 m 5,0,-1
 192 320 l 5,1,-1
 128 256 l 5,2,-1
 0 256 l 5,3,-1
 0 384 l 5,4,-1
 64 448 l 5,5,-1
 0 512 l 5,6,-1
 0 640 l 5,7,-1
 128 640 l 5,8,-1
 192 576 l 5,9,-1
 256 640 l 5,10,-1
 384 640 l 5,11,-1
 384 512 l 5,12,-1
 320 448 l 5,13,-1
 384 384 l 5,14,-1
 384 256 l 5,15,-1
 256 256 l 5,0,-1
EndSplineSet
Validated: 1
EndChar

StartChar: plus
Encoding: 43 43 14
Width: 512
GlyphClass: 2
Flags: W
LayerCount: 2
Fore
SplineSet
128 128 m 1,0,-1
 128 256 l 1,1,-1
 0 256 l 1,2,-1
 0 384 l 1,3,-1
 128 384 l 1,4,-1
 128 512 l 1,5,-1
 256 512 l 1,6,-1
 256 384 l 1,7,-1
 384 384 l 1,8,-1
 384 256 l 1,9,-1
 256 256 l 1,10,-1
 256 128 l 1,11,-1
 128 128 l 1,0,-1
EndSplineSet
Validated: 1
EndChar

StartChar: comma
Encoding: 44 44 15
Width: 384
GlyphClass: 2
Flags: W
LayerCount: 2
Fore
SplineSet
0 -128 m 1,0,-1
 0 0 l 1,1,-1
 128 128 l 1,2,-1
 256 128 l 1,3,-1
 256 0 l 5,4,-1
 128 -128 l 5,5,-1
 0 -128 l 1,0,-1
EndSplineSet
Validated: 1
EndChar

StartChar: hyphen
Encoding: 45 45 16
Width: 512
GlyphClass: 2
Flags: W
LayerCount: 2
Fore
SplineSet
0 256 m 1,0,-1
 0 384 l 1,1,-1
 384 384 l 1,2,-1
 384 256 l 1,3,-1
 0 256 l 1,0,-1
EndSplineSet
Validated: 1
EndChar

StartChar: period
Encoding: 46 46 17
Width: 256
GlyphClass: 2
Flags: W
LayerCount: 2
Fore
SplineSet
0 0 m 1,0,-1
 0 128 l 1,1,-1
 128 128 l 1,2,-1
 128 0 l 1,3,-1
 0 0 l 1,0,-1
EndSplineSet
Validated: 1
EndChar

StartChar: slash
Encoding: 47 47 18
Width: 768
GlyphClass: 2
Flags: W
LayerCount: 2
Fore
SplineSet
595 685 m 5,0,-1
 685 595 l 5,1,-1
 45 -45 l 5,2,-1
 -45 45 l 5,3,-1
 595 685 l 5,0,-1
EndSplineSet
Validated: 1
EndChar

StartChar: zero
Encoding: 48 48 19
Width: 640
GlyphClass: 2
Flags: W
LayerCount: 2
Fore
SplineSet
320 128 m 9,0,-1
 128 448 l 17,1,-1
 128 192 l 1,2,-1
 192 128 l 1,3,-1
 320 128 l 9,0,-1
384 192 m 17,4,-1
 384 448 l 1,5,-1
 320 512 l 1,6,-1
 192 512 l 9,7,-1
 384 192 l 17,4,-1
128 0 m 1,8,-1
 0 128 l 1,9,-1
 0 512 l 1,10,-1
 128 640 l 1,11,-1
 384 640 l 1,12,-1
 512 512 l 1,13,-1
 512 128 l 1,14,-1
 384 0 l 1,15,-1
 128 0 l 1,8,-1
EndSplineSet
Validated: 1
EndChar

StartChar: one
Encoding: 49 49 20
Width: 384
GlyphClass: 2
Flags: W
LayerCount: 2
Fore
SplineSet
128 0 m 5,0,-1
 128 512 l 5,1,-1
 0 384 l 1,2,-1
 0 512 l 1,3,-1
 128 640 l 1,4,-1
 256 640 l 1,5,-1
 256 0 l 1,6,-1
 128 0 l 5,0,-1
EndSplineSet
Validated: 1
EndChar

StartChar: two
Encoding: 50 50 21
Width: 640
GlyphClass: 2
Flags: W
LayerCount: 2
Fore
SplineSet
0 0 m 1,0,-1
 0 256 l 1,1,-1
 128 384 l 1,2,-1
 320 384 l 1,3,-1
 384 448 l 5,4,5
 320 512 320 512 320 512 c 1,6,-1
 0 512 l 1,7,-1
 0 640 l 1,8,-1
 384 640 l 1,9,-1
 512 512 l 1,10,-1
 512 384 l 1,11,-1
 384 256 l 1,12,-1
 192 256 l 1,13,-1
 128 192 l 1,14,-1
 128 128 l 1,15,-1
 512 128 l 1,16,-1
 512 0 l 1,17,-1
 0 0 l 1,0,-1
EndSplineSet
Validated: 1
EndChar

StartChar: three
Encoding: 51 51 22
Width: 640
GlyphClass: 2
Flags: W
LayerCount: 2
Fore
SplineSet
0 0 m 1,0,-1
 0 128 l 1,1,-1
 320 128 l 1,2,-1
 384 192 l 1,3,4
 320 256 320 256 320 256 c 1,5,-1
 128 256 l 1,6,-1
 128 384 l 1,7,-1
 320 384 l 1,8,-1
 384 448 l 1,9,10
 320 512 320 512 320 512 c 1,11,-1
 0 512 l 1,12,-1
 0 640 l 1,13,-1
 384 640 l 1,14,-1
 512 512 l 1,15,-1
 512 384 l 1,16,-1
 448 320 l 1,17,-1
 512 256 l 1,18,-1
 512 128 l 1,19,-1
 384 0 l 1,20,-1
 0 0 l 1,0,-1
EndSplineSet
Validated: 1
EndChar

StartChar: four
Encoding: 52 52 23
Width: 640
GlyphClass: 2
Flags: W
LayerCount: 2
Fore
SplineSet
256 0 m 1,0,-1
 256 128 l 1,1,-1
 0 128 l 1,2,-1
 0 384 l 1,3,-1
 256 640 l 1,4,-1
 384 640 l 1,5,-1
 384 256 l 1,6,-1
 512 256 l 1,7,-1
 512 128 l 1,8,-1
 384 128 l 1,9,-1
 384 0 l 1,10,-1
 256 0 l 1,0,-1
256 256 m 1,11,-1
 256 448 l 1,12,-1
 128 320 l 1,13,-1
 128 256 l 1,14,-1
 256 256 l 1,11,-1
EndSplineSet
Validated: 1
EndChar

StartChar: five
Encoding: 53 53 24
Width: 640
GlyphClass: 2
Flags: W
LayerCount: 2
Fore
SplineSet
0 0 m 1,0,-1
 0 128 l 1,1,-1
 320 128 l 1,2,-1
 384 192 l 1,3,4
 384 192 384 192 320 256 c 1,5,-1
 0 256 l 1,6,-1
 0 640 l 1,7,-1
 512 640 l 1,8,-1
 512 512 l 1,9,-1
 128 512 l 1,10,-1
 128 384 l 1,11,-1
 384 384 l 1,12,-1
 512 256 l 1,13,-1
 512 128 l 1,14,-1
 384 0 l 1,15,-1
 0 0 l 1,0,-1
EndSplineSet
Validated: 1
EndChar

StartChar: six
Encoding: 54 54 25
Width: 640
GlyphClass: 2
Flags: W
LayerCount: 2
Fore
SplineSet
128 0 m 1,0,-1
 0 128 l 1,1,-1
 0 512 l 1,2,-1
 128 640 l 1,3,-1
 384 640 l 1,4,-1
 384 512 l 1,5,-1
 192 512 l 1,6,-1
 128 448 l 1,7,-1
 128 384 l 1,8,-1
 384 384 l 1,9,-1
 512 256 l 1,10,-1
 512 128 l 1,11,-1
 384 0 l 1,12,-1
 128 0 l 1,0,-1
320 128 m 1,13,-1
 384 192 l 5,14,15
 384 192 384 192 320 256 c 1,16,-1
 128 256 l 1,17,-1
 128 192 l 1,18,-1
 192 128 l 1,19,-1
 320 128 l 1,13,-1
EndSplineSet
Validated: 1
EndChar

StartChar: seven
Encoding: 55 55 26
Width: 640
GlyphClass: 2
Flags: W
LayerCount: 2
Fore
SplineSet
128 0 m 1,0,-1
 128 256 l 1,1,-1
 384 512 l 1,2,-1
 0 512 l 1,3,-1
 0 640 l 1,4,-1
 512 640 l 1,5,-1
 512 448 l 1,6,-1
 256 192 l 1,7,-1
 256 0 l 1,8,-1
 128 0 l 1,0,-1
EndSplineSet
Validated: 1
EndChar

StartChar: eight
Encoding: 56 56 27
Width: 640
GlyphClass: 2
Flags: W
LayerCount: 2
Fore
SplineSet
128 0 m 1,0,-1
 0 128 l 1,1,-1
 0 256 l 1,2,-1
 64 320 l 1,3,-1
 0 384 l 1,4,-1
 0 512 l 1,5,-1
 128 640 l 1,6,-1
 384 640 l 1,7,-1
 512 512 l 1,8,-1
 512 384 l 1,9,-1
 448 320 l 1,10,-1
 512 256 l 1,11,-1
 512 128 l 1,12,-1
 384 0 l 1,13,-1
 128 0 l 1,0,-1
320 128 m 1,14,-1
 384 192 l 1,15,16
 384 192 384 192 320 256 c 1,17,-1
 192 256 l 1,18,-1
 128 192 l 1,19,20
 128 192 128 192 192 128 c 1,21,-1
 320 128 l 1,14,-1
320 384 m 1,22,-1
 384 448 l 1,23,24
 384 448 384 448 320 512 c 1,25,-1
 192 512 l 1,26,-1
 128 448 l 1,27,28
 128 448 128 448 192 384 c 1,29,-1
 320 384 l 1,22,-1
EndSplineSet
Validated: 1
EndChar

StartChar: nine
Encoding: 57 57 28
Width: 640
GlyphClass: 2
Flags: W
LayerCount: 2
Fore
SplineSet
128 0 m 1,0,-1
 128 128 l 1,1,-1
 320 128 l 1,2,-1
 384 192 l 1,3,-1
 384 256 l 1,4,-1
 128 256 l 1,5,-1
 0 384 l 1,6,-1
 0 512 l 1,7,-1
 128 640 l 1,8,-1
 384 640 l 1,9,-1
 512 512 l 1,10,-1
 512 128 l 1,11,-1
 384 0 l 1,12,-1
 128 0 l 1,0,-1
384 384 m 1,13,-1
 384 448 l 1,14,-1
 320 512 l 1,15,-1
 192 512 l 1,16,-1
 128 448 l 1,17,18
 128 448 128 448 192 384 c 1,19,-1
 384 384 l 1,13,-1
EndSplineSet
Validated: 1
EndChar

StartChar: colon
Encoding: 58 58 29
Width: 256
GlyphClass: 2
Flags: W
LayerCount: 2
Fore
SplineSet
0 128 m 1,0,-1
 0 256 l 1,1,-1
 128 256 l 1,2,-1
 128 128 l 1,3,-1
 0 128 l 1,0,-1
0 384 m 1,4,-1
 0 512 l 1,5,-1
 128 512 l 1,6,-1
 128 384 l 1,7,-1
 0 384 l 1,4,-1
EndSplineSet
Validated: 1
EndChar

StartChar: semicolon
Encoding: 59 59 30
Width: 256
GlyphClass: 2
Flags: W
LayerCount: 2
Fore
SplineSet
0 0 m 1,0,-1
 0 256 l 1,1,-1
 128 256 l 1,2,-1
 128 0 l 1,3,-1
 0 0 l 1,0,-1
0 384 m 1,4,-1
 0 512 l 1,5,-1
 128 512 l 1,6,-1
 128 384 l 1,7,-1
 0 384 l 1,4,-1
EndSplineSet
Validated: 1
EndChar

StartChar: less
Encoding: 60 60 31
Width: 512
GlyphClass: 2
Flags: W
LayerCount: 2
Fore
SplineSet
256 0 m 1,0,-1
 -32 320 l 1,1,-1
 256 640 l 1,2,-1
 384 640 l 1,3,-1
 384 576 l 1,4,-1
 144 320 l 1,5,-1
 384 64 l 1,6,-1
 384 0 l 1,7,-1
 256 0 l 1,0,-1
EndSplineSet
Validated: 1
EndChar

StartChar: equal
Encoding: 61 61 32
Width: 512
GlyphClass: 2
Flags: W
LayerCount: 2
Fore
SplineSet
0 128 m 1,0,-1
 0 256 l 1,1,-1
 384 256 l 1,2,-1
 384 128 l 1,3,-1
 0 128 l 1,0,-1
0 384 m 1,4,-1
 0 512 l 1,5,-1
 384 512 l 1,6,-1
 384 384 l 1,7,-1
 0 384 l 1,4,-1
EndSplineSet
Validated: 1
EndChar

StartChar: greater
Encoding: 62 62 33
Width: 512
GlyphClass: 2
Flags: W
LayerCount: 2
Fore
SplineSet
0 0 m 1,0,-1
 0 64 l 1,1,-1
 224 320 l 5,2,-1
 0 576 l 1,3,-1
 0 640 l 1,4,-1
 128 640 l 1,5,-1
 400 320 l 1,6,-1
 128 0 l 1,7,-1
 0 0 l 1,0,-1
EndSplineSet
Validated: 1
EndChar

StartChar: question
Encoding: 63 63 34
Width: 640
GlyphClass: 2
Flags: W
LayerCount: 2
Fore
SplineSet
128 0 m 1,0,-1
 128 128 l 1,1,-1
 256 128 l 1,2,-1
 256 0 l 1,3,-1
 128 0 l 1,0,-1
128 256 m 1,4,-1
 128 384 l 1,5,-1
 320 384 l 1,6,-1
 384 448 l 1,7,8
 384 448 384 448 320 512 c 1,9,-1
 0 512 l 1,10,-1
 0 640 l 1,11,-1
 384 640 l 1,12,-1
 512 512 l 1,13,-1
 512 384 l 1,14,-1
 384 256 l 1,15,-1
 256 256 l 5,16,17
 256 256 256 256 226 256 c 1,18,19
 226 256 226 256 128 256 c 1,4,-1
EndSplineSet
Validated: 1
EndChar

StartChar: at
Encoding: 64 64 35
Width: 768
GlyphClass: 2
InSpiro: 1
Flags: W
LayerCount: 2
Fore
SplineSet
633 129 m 1,0,-1
 512 0 l 1,1,-1
 128 0 l 1,2,-1
 0 128 l 1,3,-1
 0 512 l 1,4,-1
 128 640 l 1,5,-1
 512 640 l 1,6,-1
 640 512 l 1,7,-1
 640 366 l 1,8,-1
 448 192 l 1,9,-1
 416 224 l 1,10,-1
 384 192 l 1,11,-1
 224 192 l 1,12,-1
 192 224 l 1,13,-1
 192 416 l 1,14,-1
 224 448 l 1,15,-1
 448 448 l 1,16,-1
 448 320 l 1,17,-1
 512 384 l 1,18,-1
 512 448 l 1,19,-1
 448 512 l 1,20,-1
 192 512 l 1,21,-1
 128 448 l 1,22,-1
 128 192 l 1,23,-1
 192 128 l 1,24,-1
 448 128 l 1,25,-1
 512 192 l 1,26,-1
 633 129 l 1,0,-1
  Spiro
    633 129 v
    512 0 v
    128 0 v
    0 128 v
    0 512 v
    128 640 v
    512 640 v
    640 512 v
    640 366 v
    448 192 v
    416 224 v
    384 192 v
    224 192 v
    192 224 v
    192 416 v
    224 448 v
    448 448 v
    448 320 v
    512 384 v
    512 448 v
    448 512 v
    192 512 v
    128 448 v
    128 192 v
    192 128 v
    448 128 v
    512 192 v
    0 0 z
  EndSpiro
384 384 m 1,27,-1
 256 384 l 1,28,-1
 256 256 l 1,29,-1
 352 256 l 1,30,-1
 384 288 l 1,31,-1
 384 384 l 1,27,-1
  Spiro
    384 384 v
    256 384 v
    256 256 v
    352 256 v
    384 288 v
    0 0 z
  EndSpiro
EndSplineSet
Validated: 1
EndChar

StartChar: A
Encoding: 65 65 36
Width: 640
GlyphClass: 2
Flags: W
LayerCount: 2
Fore
SplineSet
384 0 m 1,0,-1
 384 128 l 1,1,-1
 128 128 l 1,2,-1
 128 0 l 1,3,-1
 0 0 l 1,4,-1
 0 512 l 1,5,-1
 128 640 l 1,6,-1
 384 640 l 5,7,-1
 512 512 l 5,8,-1
 512 0 l 1,9,-1
 384 0 l 1,0,-1
384 256 m 1,10,-1
 384 448 l 1,11,-1
 320 512 l 1,12,-1
 192 512 l 1,13,-1
 128 448 l 1,14,-1
 128 256 l 1,15,-1
 384 256 l 1,10,-1
EndSplineSet
Validated: 1
EndChar

StartChar: B
Encoding: 66 66 37
Width: 640
GlyphClass: 2
Flags: W
LayerCount: 2
Fore
SplineSet
0 0 m 1,0,-1
 0 640 l 1,1,-1
 384 640 l 1,2,-1
 448 576 l 1,3,-1
 448 384 l 5,4,-1
 512 320 l 1,5,-1
 512 64 l 1,6,-1
 448 0 l 1,7,-1
 0 0 l 1,0,-1
384 128 m 1,8,-1
 384 256 l 1,9,-1
 128 256 l 1,10,-1
 128 128 l 1,11,-1
 384 128 l 1,8,-1
320 384 m 1,12,-1
 320 512 l 1,13,-1
 128 512 l 1,14,-1
 128 384 l 1,15,-1
 320 384 l 1,12,-1
EndSplineSet
Validated: 1
EndChar

StartChar: C
Encoding: 67 67 38
Width: 512
GlyphClass: 2
Flags: W
LayerCount: 2
Fore
SplineSet
128 0 m 5,0,-1
 0 128 l 5,1,-1
 0 512 l 1,2,-1
 128 640 l 1,3,-1
 384 640 l 1,4,-1
 384 512 l 1,5,-1
 192 512 l 1,6,-1
 128 448 l 1,7,-1
 128 192 l 1,8,-1
 192 128 l 1,9,-1
 384 128 l 1,10,-1
 384 0 l 1,11,-1
 128 0 l 5,0,-1
EndSplineSet
Validated: 1
EndChar

StartChar: D
Encoding: 68 68 39
Width: 640
GlyphClass: 2
Flags: W
LayerCount: 2
Fore
SplineSet
0 0 m 1,0,-1
 0 640 l 1,1,-1
 384 640 l 1,2,-1
 512 512 l 1,3,-1
 512 128 l 5,4,-1
 384 0 l 5,5,-1
 0 0 l 1,0,-1
320 128 m 1,6,-1
 384 192 l 1,7,-1
 384 448 l 1,8,-1
 320 512 l 1,9,-1
 128 512 l 1,10,-1
 128 128 l 1,11,-1
 320 128 l 1,6,-1
EndSplineSet
Validated: 1
EndChar

StartChar: E
Encoding: 69 69 40
Width: 512
GlyphClass: 2
Flags: W
LayerCount: 2
Fore
SplineSet
0 0 m 1,0,-1
 0 640 l 1,1,-1
 384 640 l 1,2,-1
 384 512 l 1,3,-1
 128 512 l 1,4,-1
 128 384 l 1,5,-1
 384 384 l 1,6,-1
 384 256 l 1,7,-1
 128 256 l 1,8,-1
 128 128 l 1,9,-1
 384 128 l 1,10,-1
 384 0 l 1,11,-1
 0 0 l 1,0,-1
EndSplineSet
Validated: 1
EndChar

StartChar: F
Encoding: 70 70 41
Width: 512
GlyphClass: 2
Flags: W
LayerCount: 2
Fore
SplineSet
0 0 m 1,0,-1
 0 640 l 1,1,-1
 384 640 l 1,2,-1
 384 512 l 1,3,-1
 128 512 l 1,4,-1
 128 384 l 1,5,-1
 384 384 l 1,6,-1
 384 256 l 1,7,-1
 128 256 l 1,8,-1
 128 0 l 1,9,-1
 0 0 l 1,0,-1
EndSplineSet
Validated: 1
EndChar

StartChar: G
Encoding: 71 71 42
Width: 640
GlyphClass: 2
Flags: W
LayerCount: 2
Fore
SplineSet
128 0 m 5,0,-1
 0 128 l 5,1,-1
 0 512 l 1,2,-1
 128 640 l 1,3,-1
 512 640 l 1,4,-1
 512 512 l 1,5,-1
 192 512 l 1,6,-1
 128 448 l 1,7,-1
 128 192 l 1,8,-1
 192 128 l 1,9,-1
 384 128 l 1,10,-1
 384 256 l 1,11,-1
 256 256 l 1,12,-1
 256 384 l 1,13,-1
 512 384 l 1,14,-1
 512 0 l 1,15,-1
 128 0 l 5,0,-1
EndSplineSet
Validated: 1
EndChar

StartChar: H
Encoding: 72 72 43
Width: 640
GlyphClass: 2
Flags: W
LayerCount: 2
Fore
SplineSet
384 0 m 1,0,-1
 384 256 l 1,1,-1
 128 256 l 1,2,-1
 128 0 l 1,3,-1
 0 0 l 1,4,-1
 0 640 l 1,5,-1
 128 640 l 1,6,-1
 128 384 l 1,7,-1
 384 384 l 1,8,-1
 384 640 l 1,9,-1
 512 640 l 1,10,-1
 512 0 l 1,11,-1
 384 0 l 1,0,-1
EndSplineSet
Validated: 1
EndChar

StartChar: I
Encoding: 73 73 44
Width: 512
GlyphClass: 2
Flags: W
LayerCount: 2
Fore
SplineSet
0 0 m 1,0,-1
 0 128 l 1,1,-1
 128 128 l 1,2,-1
 128 512 l 1,3,-1
 0 512 l 1,4,-1
 0 640 l 1,5,-1
 384 640 l 1,6,-1
 384 512 l 1,7,-1
 256 512 l 1,8,-1
 256 128 l 1,9,-1
 384 128 l 1,10,-1
 384 0 l 1,11,-1
 0 0 l 1,0,-1
EndSplineSet
Validated: 1
EndChar

StartChar: J
Encoding: 74 74 45
Width: 640
GlyphClass: 2
Flags: W
LayerCount: 2
Fore
SplineSet
64 0 m 1,0,-1
 0 64 l 1,1,-1
 0 192 l 1,2,-1
 128 192 l 1,3,-1
 128 128 l 1,4,-1
 320 128 l 1,5,-1
 320 512 l 1,6,-1
 192 512 l 1,7,-1
 192 640 l 1,8,-1
 512 640 l 1,9,-1
 512 512 l 1,10,-1
 448 512 l 1,11,-1
 448 64 l 5,12,-1
 384 0 l 5,13,-1
 64 0 l 1,0,-1
EndSplineSet
Validated: 1
EndChar

StartChar: K
Encoding: 75 75 46
Width: 640
GlyphClass: 2
Flags: W
LayerCount: 2
Fore
SplineSet
384 0 m 25,0,-1
 128 256 l 1,1,-1
 128 0 l 1,2,-1
 0 0 l 1,3,-1
 0 640 l 1,4,-1
 128 640 l 1,5,-1
 128 384 l 1,6,-1
 384 640 l 1,7,-1
 512 640 l 1,8,-1
 512 576 l 1,9,-1
 256 320 l 1,10,-1
 512 64 l 5,11,-1
 512 0 l 1,12,-1
 384 0 l 25,0,-1
EndSplineSet
Validated: 1
EndChar

StartChar: L
Encoding: 76 76 47
Width: 512
GlyphClass: 2
Flags: W
LayerCount: 2
Fore
SplineSet
0 0 m 1,0,-1
 0 640 l 1,1,-1
 128 640 l 1,2,-1
 128 128 l 1,3,-1
 384 128 l 1,4,-1
 384 0 l 1,5,-1
 0 0 l 1,0,-1
EndSplineSet
Validated: 1
EndChar

StartChar: M
Encoding: 77 77 48
Width: 768
GlyphClass: 2
Flags: W
LayerCount: 2
Fore
SplineSet
512 0 m 1,0,-1
 512 448 l 1,1,-1
 320 256 l 1,2,-1
 128 448 l 1,3,-1
 128 0 l 1,4,-1
 0 0 l 1,5,-1
 0 640 l 1,6,-1
 128 640 l 1,7,-1
 320 448 l 5,8,-1
 512 640 l 1,9,-1
 640 640 l 1,10,-1
 640 0 l 1,11,-1
 512 0 l 1,0,-1
EndSplineSet
Validated: 1
EndChar

StartChar: N
Encoding: 78 78 49
Width: 640
GlyphClass: 2
Flags: W
LayerCount: 2
Fore
SplineSet
384 0 m 1,0,-1
 384 192 l 1,1,-1
 128 448 l 1,2,-1
 128 0 l 1,3,-1
 0 0 l 1,4,-1
 0 640 l 1,5,-1
 128 640 l 1,6,-1
 384 384 l 1,7,-1
 384 640 l 1,8,-1
 512 640 l 1,9,-1
 512 0 l 1,10,-1
 384 0 l 1,0,-1
EndSplineSet
Validated: 1
EndChar

StartChar: O
Encoding: 79 79 50
Width: 640
GlyphClass: 2
Flags: W
LayerCount: 2
Fore
SplineSet
128 0 m 1,0,-1
 0 128 l 1,1,-1
 0 512 l 1,2,-1
 128 640 l 1,3,-1
 384 640 l 1,4,-1
 512 512 l 1,5,-1
 512 128 l 1,6,-1
 384 0 l 1,7,-1
 128 0 l 1,0,-1
320 128 m 1,8,-1
 384 192 l 1,9,-1
 384 448 l 1,10,-1
 320 512 l 1,11,-1
 192 512 l 1,12,-1
 128 448 l 1,13,-1
 128 192 l 1,14,-1
 192 128 l 1,15,-1
 320 128 l 1,8,-1
EndSplineSet
Validated: 1
EndChar

StartChar: P
Encoding: 80 80 51
Width: 640
GlyphClass: 2
Flags: W
LayerCount: 2
Fore
SplineSet
0 0 m 1,0,-1
 0 640 l 1,1,-1
 384 640 l 1,2,-1
 512 512 l 1,3,-1
 512 256 l 1,4,-1
 384 128 l 1,5,-1
 128 128 l 1,6,-1
 128 0 l 1,7,-1
 0 0 l 1,0,-1
320 256 m 1,8,-1
 384 320 l 1,9,-1
 384 448 l 1,10,-1
 320 512 l 1,11,-1
 128 512 l 1,12,-1
 128 256 l 1,13,-1
 320 256 l 1,8,-1
EndSplineSet
Validated: 1
EndChar

StartChar: Q
Encoding: 81 81 52
Width: 640
GlyphClass: 2
Flags: W
LayerCount: 2
Fore
SplineSet
384 -128 m 1,0,-1
 320 -64 l 1,1,-1
 320 0 l 1,2,-1
 128 0 l 1,3,-1
 0 128 l 1,4,-1
 0 512 l 1,5,-1
 128 640 l 1,6,-1
 384 640 l 1,7,-1
 512 512 l 1,8,-1
 512 128 l 1,9,-1
 448 64 l 1,10,-1
 448 0 l 1,11,-1
 512 0 l 1,12,-1
 512 -128 l 1,13,-1
 384 -128 l 1,0,-1
320 128 m 1,14,-1
 384 192 l 1,15,-1
 384 448 l 1,16,-1
 320 512 l 1,17,-1
 192 512 l 1,18,-1
 128 448 l 1,19,-1
 128 192 l 1,20,-1
 192 128 l 1,21,-1
 320 128 l 1,14,-1
EndSplineSet
Validated: 1
EndChar

StartChar: R
Encoding: 82 82 53
Width: 640
GlyphClass: 2
Flags: W
LayerCount: 2
Fore
SplineSet
384 0 m 1,0,-1
 384 192 l 1,1,-1
 320 256 l 1,2,-1
 128 256 l 1,3,-1
 128 0 l 1,4,-1
 0 0 l 1,5,-1
 0 640 l 1,6,-1
 448 640 l 1,7,-1
 512 576 l 1,8,-1
 512 384 l 1,9,-1
 448 320 l 1,10,-1
 512 256 l 1,11,-1
 512 0 l 1,12,-1
 384 0 l 1,0,-1
128 384 m 9,13,-1
 352 384 l 17,14,-1
 384 416 l 1,15,-1
 384 512 l 1,16,-1
 128 512 l 1,17,-1
 128 384 l 9,13,-1
EndSplineSet
Validated: 1
EndChar

StartChar: S
Encoding: 83 83 54
Width: 640
GlyphClass: 2
Flags: W
LayerCount: 2
Fore
SplineSet
64 0 m 1,0,-1
 0 64 l 1,1,-1
 0 192 l 1,2,-1
 128 192 l 1,3,-1
 128 128 l 1,4,-1
 384 128 l 1,5,-1
 384 256 l 1,6,-1
 64 256 l 1,7,-1
 0 320 l 1,8,-1
 0 576 l 1,9,-1
 64 640 l 1,10,-1
 448 640 l 1,11,-1
 512 576 l 1,12,-1
 512 448 l 1,13,-1
 384 448 l 1,14,-1
 384 512 l 1,15,-1
 128 512 l 1,16,-1
 128 384 l 1,17,-1
 448 384 l 1,18,-1
 512 320 l 1,19,-1
 512 64 l 5,20,-1
 448 0 l 5,21,-1
 64 0 l 1,0,-1
EndSplineSet
Validated: 1
EndChar

StartChar: T
Encoding: 84 84 55
Width: 512
GlyphClass: 2
Flags: W
LayerCount: 2
Fore
SplineSet
128 0 m 1,0,-1
 128 512 l 1,1,-1
 0 512 l 1,2,-1
 0 640 l 1,3,-1
 384 640 l 1,4,-1
 384 512 l 1,5,-1
 256 512 l 1,6,-1
 256 0 l 1,7,-1
 128 0 l 1,0,-1
EndSplineSet
Validated: 1
EndChar

StartChar: U
Encoding: 85 85 56
Width: 640
GlyphClass: 2
Flags: W
LayerCount: 2
Fore
SplineSet
64 0 m 5,0,-1
 0 64 l 5,1,-1
 0 640 l 5,2,-1
 128 640 l 5,3,-1
 128 128 l 5,4,-1
 384 128 l 5,5,-1
 384 640 l 5,6,-1
 512 640 l 5,7,-1
 512 64 l 5,8,-1
 448 0 l 5,9,-1
 64 0 l 5,0,-1
EndSplineSet
Validated: 1
EndChar

StartChar: V
Encoding: 86 86 57
Width: 640
GlyphClass: 2
Flags: W
LayerCount: 2
Fore
SplineSet
256 0 m 1,0,-1
 0 224 l 1,1,-1
 0 640 l 1,2,-1
 128 640 l 1,3,-1
 128 282 l 1,4,-1
 256 170 l 1,5,-1
 384 282 l 1,6,-1
 384 640 l 1,7,-1
 512 640 l 1,8,-1
 512 224 l 1,9,-1
 256 0 l 1,0,-1
EndSplineSet
Validated: 1
EndChar

StartChar: W
Encoding: 87 87 58
Width: 768
GlyphClass: 2
Flags: W
LayerCount: 2
Fore
SplineSet
384 448 m 9,0,-1
 384 192 l 17,1,-1
 448 128 l 1,2,-1
 512 192 l 1,3,-1
 512 640 l 1,4,-1
 640 640 l 1,5,-1
 640 128 l 1,6,-1
 512 0 l 1,7,-1
 384 0 l 1,8,-1
 320 64 l 1,9,-1
 256 0 l 1,10,-1
 128 0 l 1,11,-1
 0 128 l 1,12,-1
 0 640 l 1,13,-1
 128 640 l 1,14,-1
 128 192 l 1,15,-1
 192 128 l 1,16,-1
 256 192 l 1,17,-1
 256 448 l 1,18,-1
 384 448 l 9,0,-1
EndSplineSet
Validated: 1
EndChar

StartChar: X
Encoding: 88 88 59
Width: 640
GlyphClass: 2
Flags: W
LayerCount: 2
Fore
SplineSet
384 0 m 1,0,-1
 384 128 l 1,1,-1
 256 256 l 1,2,-1
 128 128 l 5,3,-1
 128 0 l 1,4,-1
 0 0 l 1,5,-1
 0 192 l 1,6,-1
 128 320 l 1,7,-1
 0 448 l 1,8,-1
 0 640 l 1,9,-1
 128 640 l 1,10,-1
 128 512 l 1,11,-1
 256 384 l 1,12,-1
 384 512 l 1,13,-1
 384 640 l 1,14,-1
 512 640 l 1,15,-1
 512 448 l 1,16,-1
 384 320 l 1,17,-1
 512 196 l 1,18,-1
 512 0 l 1,19,-1
 384 0 l 1,0,-1
EndSplineSet
Validated: 1
EndChar

StartChar: Y
Encoding: 89 89 60
Width: 640
GlyphClass: 2
Flags: W
LayerCount: 2
Fore
SplineSet
192 0 m 1,0,-1
 192 256 l 1,1,-1
 64 256 l 1,2,-1
 0 320 l 1,3,-1
 0 640 l 1,4,-1
 128 640 l 1,5,-1
 128 384 l 1,6,-1
 384 384 l 1,7,-1
 384 640 l 1,8,-1
 512 640 l 1,9,-1
 512 320 l 5,10,-1
 448 256 l 5,11,-1
 320 256 l 1,12,-1
 320 0 l 1,13,-1
 192 0 l 1,0,-1
EndSplineSet
Validated: 1
EndChar

StartChar: Z
Encoding: 90 90 61
Width: 512
GlyphClass: 2
Flags: W
LayerCount: 2
Fore
SplineSet
0 0 m 1,0,-1
 0 171 l 1,1,-1
 256 512 l 1,2,-1
 0 512 l 1,3,-1
 0 640 l 1,4,-1
 384 640 l 1,5,-1
 384 469 l 1,6,-1
 128 128 l 1,7,-1
 384 128 l 1,8,-1
 384 0 l 1,9,-1
 0 0 l 1,0,-1
EndSplineSet
Validated: 1
EndChar

StartChar: bracketleft
Encoding: 91 91 62
Width: 384
GlyphClass: 2
Flags: W
LayerCount: 2
Fore
SplineSet
0 0 m 1,0,-1
 0 640 l 1,1,-1
 256 640 l 1,2,-1
 256 512 l 1,3,-1
 128 512 l 1,4,-1
 128 128 l 1,5,-1
 256 128 l 1,6,-1
 256 0 l 1,7,-1
 0 0 l 1,0,-1
EndSplineSet
Validated: 1
EndChar

StartChar: backslash
Encoding: 92 92 63
Width: 768
GlyphClass: 2
Flags: W
LayerCount: 2
Fore
SplineSet
45 685 m 1,0,-1
 685 45 l 1,1,-1
 595 -45 l 1,2,-1
 -45 595 l 1,3,-1
 45 685 l 1,0,-1
EndSplineSet
Validated: 1
EndChar

StartChar: bracketright
Encoding: 93 93 64
Width: 384
GlyphClass: 2
Flags: W
LayerCount: 2
Fore
SplineSet
0 0 m 1,0,-1
 0 128 l 1,1,-1
 128 128 l 1,2,-1
 128 512 l 1,3,-1
 0 512 l 1,4,-1
 0 640 l 1,5,-1
 256 640 l 1,6,-1
 256 0 l 1,7,-1
 0 0 l 1,0,-1
EndSplineSet
Validated: 1
EndChar

StartChar: asciicircum
Encoding: 94 94 65
Width: 512
GlyphClass: 2
Flags: W
LayerCount: 2
Fore
SplineSet
256 384 m 1,0,-1
 190 456 l 1,1,-1
 128 384 l 1,2,-1
 0 384 l 1,3,-1
 0 448 l 5,4,-1
 192 640 l 1,5,-1
 384 448 l 1,6,-1
 384 384 l 1,7,-1
 256 384 l 1,0,-1
EndSplineSet
Validated: 1
EndChar

StartChar: underscore
Encoding: 95 95 66
Width: 640
GlyphClass: 2
Flags: W
LayerCount: 2
Fore
SplineSet
0 0 m 1,0,-1
 0 128 l 1,1,-1
 512 128 l 1,2,-1
 512 0 l 1,3,-1
 0 0 l 1,0,-1
EndSplineSet
Validated: 1
EndChar

StartChar: grave
Encoding: 96 96 67
Width: 384
GlyphClass: 2
Flags: W
LayerCount: 2
Fore
SplineSet
160 384 m 1,0,-1
 0 544 l 1,1,-1
 0 640 l 1,2,-1
 96 640 l 5,3,-1
 256 480 l 1,4,-1
 256 384 l 1,5,-1
 160 384 l 1,0,-1
EndSplineSet
Validated: 1
EndChar

StartChar: a
Encoding: 97 97 68
Width: 640
GlyphClass: 2
Flags: W
LayerCount: 2
Fore
SplineSet
384 0 m 1,0,-1
 384 64 l 1,1,-1
 320 0 l 1,2,-1
 128 0 l 1,3,-1
 0 128 l 1,4,-1
 0 384 l 1,5,-1
 128 512 l 1,6,-1
 512 512 l 1,7,-1
 512 0 l 1,8,-1
 384 0 l 1,0,-1
320 128 m 5,9,-1
 384 192 l 1,10,-1
 384 384 l 1,11,-1
 192 384 l 1,12,-1
 128 320 l 1,13,-1
 128 192 l 1,14,-1
 192 128 l 1,15,-1
 320 128 l 5,9,-1
EndSplineSet
Validated: 1
EndChar

StartChar: b
Encoding: 98 98 69
Width: 640
GlyphClass: 2
Flags: W
LayerCount: 2
Fore
SplineSet
0 0 m 1,0,-1
 0 640 l 1,1,-1
 128 640 l 1,2,-1
 128 448 l 1,3,-1
 192 512 l 1,4,-1
 384 512 l 1,5,-1
 512 384 l 1,6,-1
 512 128 l 5,7,-1
 384 0 l 5,8,-1
 0 0 l 1,0,-1
320 128 m 1,9,-1
 384 192 l 1,10,-1
 384 320 l 1,11,-1
 320 384 l 1,12,-1
 192 384 l 1,13,-1
 128 320 l 1,14,-1
 128 128 l 1,15,-1
 320 128 l 1,9,-1
EndSplineSet
Validated: 1
EndChar

StartChar: c
Encoding: 99 99 70
Width: 576
GlyphClass: 2
Flags: W
LayerCount: 2
Fore
SplineSet
128 0 m 1,0,-1
 0 128 l 1,1,-1
 0 384 l 1,2,-1
 128 512 l 1,3,-1
 384 512 l 1,4,-1
 448 448 l 1,5,-1
 448 320 l 1,6,-1
 320 320 l 1,7,-1
 320 384 l 1,8,-1
 192 384 l 1,9,-1
 128 320 l 1,10,-1
 128 192 l 5,11,-1
 192 128 l 1,12,-1
 320 128 l 1,13,-1
 320 192 l 1,14,-1
 448 192 l 1,15,-1
 448 64 l 1,16,-1
 384 0 l 1,17,-1
 128 0 l 1,0,-1
EndSplineSet
Validated: 1
EndChar

StartChar: d
Encoding: 100 100 71
Width: 640
GlyphClass: 2
Flags: W
LayerCount: 2
Fore
SplineSet
128 0 m 5,0,-1
 0 128 l 5,1,-1
 0 384 l 1,2,-1
 128 512 l 1,3,-1
 320 512 l 1,4,-1
 384 448 l 1,5,-1
 384 640 l 1,6,-1
 512 640 l 1,7,-1
 512 0 l 1,8,-1
 128 0 l 5,0,-1
384 128 m 1,9,-1
 384 320 l 1,10,-1
 320 384 l 1,11,-1
 192 384 l 1,12,-1
 128 320 l 1,13,-1
 128 192 l 1,14,-1
 192 128 l 1,15,-1
 384 128 l 1,9,-1
EndSplineSet
Validated: 1
EndChar

StartChar: e
Encoding: 101 101 72
Width: 640
GlyphClass: 2
Flags: W
LayerCount: 2
Fore
SplineSet
128 0 m 1,0,-1
 0 128 l 1,1,-1
 0 384 l 1,2,-1
 128 512 l 1,3,-1
 384 512 l 1,4,-1
 512 384 l 1,5,-1
 512 256 l 1,6,-1
 128 192 l 1,7,-1
 192 128 l 1,8,-1
 448 128 l 1,9,-1
 448 0 l 1,10,-1
 128 0 l 1,0,-1
384 342 m 5,11,-1
 320 406 l 5,12,-1
 192 406 l 5,13,-1
 128 342 l 5,14,-1
 128 298 l 5,15,-1
 384 342 l 5,11,-1
EndSplineSet
Validated: 1
EndChar

StartChar: f
Encoding: 102 102 73
Width: 512
GlyphClass: 2
Flags: W
LayerCount: 2
Fore
SplineSet
128 0 m 1,0,-1
 128 256 l 1,1,-1
 0 256 l 1,2,-1
 0 384 l 1,3,-1
 128 384 l 1,4,-1
 128 576 l 1,5,-1
 192 640 l 1,6,-1
 384 640 l 1,7,-1
 384 512 l 1,8,-1
 256 512 l 1,9,-1
 256 384 l 1,10,-1
 384 384 l 1,11,-1
 384 256 l 1,12,-1
 256 256 l 1,13,-1
 256 0 l 1,14,-1
 128 0 l 1,0,-1
EndSplineSet
Validated: 1
EndChar

StartChar: g
Encoding: 103 103 74
Width: 640
GlyphClass: 2
Flags: W
LayerCount: 2
Fore
SplineSet
64 -256 m 1,0,-1
 64 -128 l 1,1,-1
 320 -128 l 1,2,-1
 384 -64 l 1,3,-1
 384 0 l 1,4,-1
 128 0 l 1,5,-1
 0 128 l 1,6,-1
 0 384 l 1,7,-1
 128 512 l 1,8,-1
 320 512 l 1,9,-1
 384 448 l 1,10,-1
 384 512 l 1,11,-1
 512 512 l 1,12,-1
 512 -128 l 1,13,-1
 384 -256 l 1,14,-1
 64 -256 l 1,0,-1
384 128 m 1,15,-1
 384 320 l 1,16,-1
 320 384 l 1,17,-1
 192 384 l 1,18,-1
 128 320 l 1,19,-1
 128 192 l 1,20,-1
 192 128 l 1,21,-1
 384 128 l 1,15,-1
EndSplineSet
Validated: 1
EndChar

StartChar: h
Encoding: 104 104 75
Width: 640
GlyphClass: 2
Flags: W
LayerCount: 2
Fore
SplineSet
384 0 m 1,0,-1
 384 320 l 1,1,-1
 192 320 l 1,2,-1
 128 256 l 1,3,-1
 128 0 l 1,4,-1
 0 0 l 1,5,-1
 0 640 l 1,6,-1
 128 640 l 1,7,-1
 128 384 l 1,8,-1
 192 448 l 1,9,-1
 448 448 l 1,10,-1
 512 384 l 1,11,-1
 512 0 l 1,12,-1
 384 0 l 1,0,-1
EndSplineSet
Validated: 1
EndChar

StartChar: i
Encoding: 105 105 76
Width: 256
GlyphClass: 2
Flags: W
LayerCount: 2
Fore
SplineSet
0 0 m 5,0,-1
 0 384 l 5,1,-1
 128 384 l 5,2,-1
 128 0 l 5,3,-1
 0 0 l 5,0,-1
0 512 m 5,4,-1
 0 640 l 5,5,-1
 128 640 l 5,6,-1
 128 512 l 5,7,-1
 0 512 l 5,4,-1
EndSplineSet
Validated: 1
EndChar

StartChar: j
Encoding: 106 106 77
Width: 384
GlyphClass: 2
Flags: W
LayerCount: 2
Fore
SplineSet
0 -256 m 1,0,-1
 0 -128 l 1,1,-1
 128 -128 l 1,2,-1
 128 384 l 1,3,-1
 256 384 l 1,4,-1
 256 -192 l 5,5,-1
 192 -256 l 5,6,-1
 0 -256 l 1,0,-1
128 512 m 1,7,-1
 128 640 l 1,8,-1
 256 640 l 1,9,-1
 256 512 l 1,10,-1
 128 512 l 1,7,-1
EndSplineSet
Validated: 1
EndChar

StartChar: k
Encoding: 107 107 78
Width: 576
GlyphClass: 2
Flags: W
LayerCount: 2
Fore
SplineSet
320 0 m 1,0,-1
 192 128 l 1,1,-1
 128 128 l 1,2,-1
 128 0 l 1,3,-1
 0 0 l 1,4,-1
 0 640 l 1,5,-1
 128 640 l 1,6,-1
 128 256 l 1,7,-1
 320 448 l 1,8,-1
 448 448 l 1,9,-1
 448 384 l 1,10,-1
 277 224 l 1,11,-1
 448 64 l 1,12,-1
 448 0 l 1,13,-1
 320 0 l 1,0,-1
EndSplineSet
Validated: 1
EndChar

StartChar: l
Encoding: 108 108 79
Width: 256
GlyphClass: 2
Flags: W
LayerCount: 2
Fore
SplineSet
0 0 m 1,0,-1
 0 640 l 1,1,-1
 128 640 l 1,2,-1
 128 0 l 1,3,-1
 0 0 l 1,0,-1
EndSplineSet
Validated: 1
EndChar

StartChar: m
Encoding: 109 109 80
Width: 768
GlyphClass: 2
Flags: W
LayerCount: 2
Fore
SplineSet
512 0 m 1,0,-1
 512 384 l 1,1,-1
 448 384 l 1,2,-1
 384 320 l 1,3,-1
 384 0 l 1,4,-1
 256 0 l 1,5,-1
 256 384 l 1,6,-1
 192 384 l 1,7,-1
 128 320 l 1,8,-1
 128 0 l 1,9,-1
 0 0 l 1,10,-1
 0 512 l 1,11,-1
 128 512 l 1,12,-1
 128 448 l 1,13,-1
 192 512 l 1,14,-1
 384 512 l 1,15,-1
 384 448 l 1,16,-1
 448 512 l 1,17,-1
 576 512 l 1,18,-1
 640 448 l 1,19,-1
 640 0 l 1,20,-1
 512 0 l 1,0,-1
EndSplineSet
Validated: 1
EndChar

StartChar: n
Encoding: 110 110 81
Width: 640
GlyphClass: 2
Flags: W
LayerCount: 2
Fore
SplineSet
384 0 m 1,0,-1
 384 384 l 1,1,-1
 192 384 l 1,2,-1
 128 320 l 1,3,-1
 128 0 l 1,4,-1
 0 0 l 1,5,-1
 0 512 l 1,6,-1
 128 512 l 1,7,-1
 128 448 l 1,8,-1
 192 512 l 1,9,-1
 448 512 l 5,10,-1
 512 448 l 5,11,-1
 512 0 l 1,12,-1
 384 0 l 1,0,-1
EndSplineSet
Validated: 1
EndChar

StartChar: o
Encoding: 111 111 82
Width: 640
GlyphClass: 2
Flags: W
LayerCount: 2
Fore
SplineSet
128 0 m 5,0,-1
 0 128 l 5,1,-1
 0 384 l 5,2,-1
 128 512 l 5,3,-1
 384 512 l 5,4,-1
 512 384 l 5,5,-1
 512 128 l 5,6,-1
 384 0 l 5,7,-1
 128 0 l 5,0,-1
320 128 m 5,8,-1
 384 192 l 5,9,-1
 384 320 l 5,10,-1
 320 384 l 5,11,-1
 192 384 l 5,12,-1
 128 320 l 5,13,-1
 128 192 l 5,14,-1
 192 128 l 5,15,-1
 320 128 l 5,8,-1
EndSplineSet
Validated: 1
EndChar

StartChar: p
Encoding: 112 112 83
Width: 640
GlyphClass: 2
Flags: W
LayerCount: 2
Fore
SplineSet
0 -256 m 1,0,-1
 0 512 l 1,1,-1
 384 512 l 5,2,-1
 512 384 l 5,3,-1
 512 128 l 1,4,-1
 384 0 l 1,5,-1
 128 0 l 1,6,-1
 128 -256 l 1,7,-1
 0 -256 l 1,0,-1
320 128 m 1,8,-1
 384 192 l 1,9,-1
 384 320 l 1,10,-1
 320 384 l 1,11,-1
 128 384 l 1,12,-1
 128 128 l 1,13,-1
 320 128 l 1,8,-1
EndSplineSet
Validated: 1
EndChar

StartChar: q
Encoding: 113 113 84
Width: 640
GlyphClass: 2
Flags: W
LayerCount: 2
Fore
SplineSet
384 -256 m 1,0,-1
 384 0 l 1,1,-1
 128 0 l 1,2,-1
 0 128 l 1,3,-1
 0 384 l 1,4,-1
 128 512 l 1,5,-1
 512 512 l 1,6,-1
 512 -256 l 1,7,-1
 384 -256 l 1,0,-1
384 128 m 1,8,-1
 384 384 l 1,9,-1
 192 384 l 5,10,-1
 128 320 l 5,11,-1
 128 192 l 1,12,-1
 192 128 l 1,13,-1
 384 128 l 1,8,-1
EndSplineSet
Validated: 1
EndChar

StartChar: r
Encoding: 114 114 85
Width: 512
GlyphClass: 2
Flags: W
LayerCount: 2
Fore
SplineSet
0 0 m 1,0,-1
 0 512 l 1,1,-1
 128 512 l 1,2,-1
 128 384 l 1,3,-1
 256 448 l 1,4,-1
 384 448 l 1,5,-1
 384 320 l 1,6,-1
 256 320 l 5,7,-1
 128 256 l 1,8,-1
 128 0 l 1,9,-1
 0 0 l 1,0,-1
EndSplineSet
Validated: 1
EndChar

StartChar: s
Encoding: 115 115 86
Width: 640
GlyphClass: 2
Flags: W
LayerCount: 2
Fore
SplineSet
0 0 m 1,0,-1
 0 128 l 1,1,-1
 320 128 l 1,2,-1
 320 192 l 1,3,-1
 128 192 l 1,4,-1
 64 256 l 1,5,-1
 64 448 l 1,6,-1
 128 512 l 1,7,-1
 512 512 l 1,8,-1
 512 384 l 1,9,-1
 192 384 l 1,10,-1
 192 320 l 1,11,-1
 384 320 l 1,12,-1
 448 256 l 1,13,-1
 448 64 l 1,14,-1
 384 0 l 1,15,-1
 0 0 l 1,0,-1
EndSplineSet
Validated: 1
EndChar

StartChar: t
Encoding: 116 116 87
Width: 512
GlyphClass: 2
Flags: W
LayerCount: 2
Fore
SplineSet
256 0 m 5,0,-1
 128 128 l 5,1,-1
 128 384 l 1,2,-1
 0 384 l 1,3,-1
 0 512 l 1,4,-1
 128 512 l 1,5,-1
 128 640 l 1,6,-1
 256 640 l 1,7,-1
 256 512 l 1,8,-1
 384 512 l 1,9,-1
 384 384 l 1,10,-1
 256 384 l 1,11,-1
 256 192 l 1,12,-1
 320 128 l 1,13,-1
 384 128 l 1,14,-1
 384 0 l 1,15,-1
 256 0 l 5,0,-1
EndSplineSet
Validated: 1
EndChar

StartChar: u
Encoding: 117 117 88
Width: 640
GlyphClass: 2
Flags: W
LayerCount: 2
Fore
SplineSet
128 0 m 5,0,-1
 0 128 l 5,1,-1
 0 512 l 1,2,-1
 128 512 l 1,3,-1
 128 192 l 1,4,-1
 192 128 l 1,5,-1
 384 128 l 1,6,-1
 384 512 l 1,7,-1
 512 512 l 1,8,-1
 512 0 l 1,9,-1
 128 0 l 5,0,-1
EndSplineSet
Validated: 1
EndChar

StartChar: v
Encoding: 118 118 89
Width: 640
GlyphClass: 2
Flags: W
LayerCount: 2
Fore
SplineSet
128 0 m 1,0,-1
 0 128 l 1,1,-1
 0 512 l 1,2,-1
 128 512 l 1,3,-1
 128 192 l 1,4,-1
 192 128 l 5,5,-1
 384 320 l 1,6,-1
 384 512 l 1,7,-1
 512 512 l 1,8,-1
 512 256 l 1,9,-1
 256 0 l 1,10,-1
 128 0 l 1,0,-1
EndSplineSet
Validated: 1
EndChar

StartChar: w
Encoding: 119 119 90
Width: 768
GlyphClass: 2
Flags: W
LayerCount: 2
Fore
SplineSet
384 0 m 1,0,-1
 320 64 l 1,1,-1
 256 0 l 1,2,-1
 128 0 l 1,3,-1
 0 128 l 1,4,-1
 0 512 l 1,5,-1
 128 512 l 1,6,-1
 128 192 l 1,7,-1
 192 128 l 1,8,9
 192 128 192 128 256 192 c 5,10,-1
 256 512 l 1,11,-1
 384 512 l 1,12,-1
 384 192 l 1,13,-1
 448 128 l 1,14,15
 448 128 448 128 512 192 c 1,16,-1
 512 512 l 1,17,-1
 640 512 l 1,18,-1
 640 128 l 1,19,-1
 512 0 l 1,20,-1
 384 0 l 1,0,-1
EndSplineSet
Validated: 1
EndChar

StartChar: x
Encoding: 120 120 91
Width: 512
GlyphClass: 2
Flags: W
LayerCount: 2
Fore
SplineSet
256 0 m 1,0,-1
 256 64 l 1,1,-1
 192 128 l 1,2,3
 192 128 192 128 128 64 c 1,4,-1
 128 0 l 1,5,-1
 0 0 l 1,6,-1
 0 128 l 1,7,-1
 128 256 l 1,8,-1
 0 384 l 1,9,-1
 0 512 l 1,10,-1
 128 512 l 1,11,-1
 128 448 l 1,12,-1
 192 384 l 5,13,14
 192 384 192 384 256 448 c 1,15,-1
 256 512 l 1,16,-1
 384 512 l 1,17,-1
 384 384 l 1,18,-1
 256 256 l 1,19,-1
 384 128 l 1,20,-1
 384 0 l 1,21,-1
 256 0 l 1,0,-1
EndSplineSet
Validated: 1
EndChar

StartChar: y
Encoding: 121 121 92
Width: 640
GlyphClass: 2
Flags: W
LayerCount: 2
Fore
SplineSet
128 -256 m 1,0,-1
 128 -128 l 1,1,-1
 320 -128 l 1,2,-1
 384 -64 l 5,3,-1
 384 0 l 1,4,-1
 128 0 l 1,5,-1
 0 128 l 1,6,-1
 0 512 l 1,7,-1
 128 512 l 1,8,-1
 128 192 l 1,9,-1
 192 128 l 1,10,-1
 384 128 l 1,11,-1
 384 512 l 1,12,-1
 512 512 l 1,13,-1
 512 -128 l 1,14,-1
 384 -256 l 1,15,-1
 128 -256 l 1,0,-1
EndSplineSet
Validated: 1
EndChar

StartChar: z
Encoding: 122 122 93
Width: 640
GlyphClass: 2
Flags: W
LayerCount: 2
Fore
SplineSet
0 0 m 1,0,-1
 0 128 l 1,1,-1
 320 384 l 1,2,-1
 0 384 l 1,3,-1
 0 512 l 1,4,-1
 512 512 l 1,5,-1
 512 384 l 1,6,-1
 192 128 l 1,7,-1
 512 128 l 1,8,-1
 512 0 l 1,9,-1
 0 0 l 1,0,-1
EndSplineSet
Validated: 1
EndChar

StartChar: braceleft
Encoding: 123 123 94
Width: 512
GlyphClass: 2
Flags: W
LayerCount: 2
Fore
SplineSet
128 0 m 1,0,-1
 128 192 l 1,1,-1
 0 320 l 1,2,-1
 128 448 l 1,3,-1
 128 640 l 1,4,-1
 384 640 l 1,5,-1
 384 512 l 1,6,-1
 256 512 l 1,7,-1
 256 384 l 1,8,-1
 192 320 l 1,9,-1
 256 256 l 1,10,-1
 256 128 l 1,11,-1
 384 128 l 1,12,-1
 384 0 l 1,13,-1
 128 0 l 1,0,-1
EndSplineSet
Validated: 1
EndChar

StartChar: bar
Encoding: 124 124 95
Width: 256
GlyphClass: 2
Flags: W
LayerCount: 2
Fore
SplineSet
0 0 m 1,0,-1
 0 640 l 1,1,-1
 128 640 l 1,2,-1
 128 0 l 1,3,-1
 0 0 l 1,0,-1
EndSplineSet
Validated: 1
EndChar

StartChar: braceright
Encoding: 125 125 96
Width: 512
GlyphClass: 2
Flags: W
LayerCount: 2
Fore
SplineSet
0 0 m 1,0,-1
 0 128 l 1,1,-1
 128 128 l 1,2,-1
 128 256 l 1,3,-1
 192 320 l 1,4,-1
 128 384 l 1,5,-1
 128 512 l 1,6,-1
 0 512 l 1,7,-1
 0 640 l 1,8,-1
 256 640 l 1,9,-1
 256 448 l 1,10,-1
 384 320 l 1,11,-1
 256 192 l 1,12,-1
 256 0 l 1,13,-1
 0 0 l 1,0,-1
EndSplineSet
Validated: 1
EndChar

StartChar: asciitilde
Encoding: 126 126 97
Width: 640
GlyphClass: 2
Flags: W
LayerCount: 2
Fore
SplineSet
320 384 m 5,0,-1
 160 480 l 5,1,-1
 128 448 l 5,2,-1
 128 384 l 5,3,-1
 0 384 l 5,4,-1
 0 512 l 5,5,-1
 128 640 l 5,6,-1
 192 640 l 5,7,-1
 352 544 l 5,8,-1
 384 576 l 5,9,-1
 384 640 l 5,10,-1
 512 640 l 5,11,-1
 512 512 l 5,12,-1
 384 384 l 5,13,-1
 320 384 l 5,0,-1
EndSplineSet
Validated: 1
EndChar

StartChar: exclamdown
Encoding: 161 161 99
Width: 384
GlyphClass: 2
Flags: W
LayerCount: 2
Fore
SplineSet
128 -192 m 1,0,-1
 128 384 l 1,1,-1
 256 384 l 1,2,-1
 256 -192 l 1,3,-1
 128 -192 l 1,0,-1
128 448 m 1,4,-1
 128 576 l 1,5,-1
 256 576 l 1,6,-1
 256 448 l 1,7,-1
 128 448 l 1,4,-1
EndSplineSet
Validated: 1
EndChar

StartChar: cent
Encoding: 162 162 100
Width: 640
GlyphClass: 2
Flags: W
LayerCount: 2
Fore
SplineSet
192 -128 m 1,0,-1
 192 0 l 1,1,-1
 128 0 l 1,2,-1
 0 128 l 1,3,-1
 0 384 l 1,4,-1
 128 512 l 1,5,-1
 192 512 l 1,6,-1
 192 640 l 1,7,-1
 320 640 l 1,8,-1
 320 512 l 1,9,-1
 448 512 l 1,10,-1
 512 448 l 1,11,-1
 512 320 l 1,12,-1
 384 320 l 1,13,-1
 384 384 l 1,14,-1
 192 384 l 1,15,-1
 128 320 l 1,16,-1
 128 192 l 1,17,-1
 192 128 l 1,18,-1
 384 128 l 1,19,-1
 384 192 l 1,20,-1
 512 192 l 1,21,-1
 512 64 l 1,22,-1
 448 0 l 1,23,-1
 320 0 l 1,24,-1
 320 -128 l 1,25,-1
 192 -128 l 1,0,-1
EndSplineSet
Validated: 1
EndChar

StartChar: sterling
Encoding: 163 163 101
Width: 640
GlyphClass: 2
Flags: W
LayerCount: 2
Fore
SplineSet
0 0 m 1,0,-1
 0 128 l 1,1,-1
 64 128 l 1,2,-1
 64 256 l 1,3,-1
 0 256 l 1,4,-1
 0 384 l 1,5,-1
 64 384 l 1,6,-1
 64 576 l 1,7,-1
 192 704 l 1,8,-1
 448 704 l 5,9,-1
 512 640 l 5,10,-1
 512 512 l 1,11,-1
 384 512 l 1,12,-1
 384 576 l 1,13,-1
 256 576 l 1,14,-1
 192 512 l 1,15,-1
 192 384 l 1,16,-1
 384 384 l 1,17,-1
 384 256 l 1,18,-1
 192 256 l 1,19,-1
 192 128 l 1,20,-1
 512 128 l 1,21,-1
 512 0 l 1,22,-1
 0 0 l 1,0,-1
EndSplineSet
Validated: 1
EndChar

StartChar: currency
Encoding: 164 164 102
Width: 960
GlyphClass: 2
Flags: W
LayerCount: 2
Fore
SplineSet
576 -192 m 1,0,-1
 576 -64 l 1,1,-1
 640 -64 l 1,2,-1
 640 -192 l 1,3,-1
 576 -192 l 1,0,-1
640 64 m 1,4,-1
 640 128 l 1,5,-1
 704 128 l 1,6,-1
 704 64 l 1,7,-1
 640 64 l 1,4,-1
576 -64 m 1,8,-1
 512 -64 l 1,9,-1
 512 0 l 1,10,-1
 448 0 l 1,11,-1
 448 64 l 1,12,-1
 384 64 l 1,13,-1
 384 128 l 1,14,-1
 320 128 l 1,15,-1
 320 192 l 1,16,-1
 256 192 l 1,17,-1
 256 256 l 1,18,-1
 192 256 l 1,19,-1
 192 320 l 1,20,-1
 128 320 l 1,21,-1
 128 384 l 1,22,-1
 64 384 l 1,23,-1
 64 448 l 1,24,-1
 0 448 l 1,25,-1
 0 512 l 1,26,-1
 192 512 l 1,27,-1
 192 640 l 1,28,-1
 320 640 l 1,29,-1
 320 768 l 1,30,-1
 384 768 l 1,31,-1
 384 640 l 1,32,-1
 512 640 l 1,33,-1
 512 768 l 1,34,-1
 576 768 l 1,35,-1
 576 576 l 1,36,-1
 704 576 l 1,37,-1
 704 448 l 1,38,-1
 768 448 l 1,39,-1
 768 384 l 1,40,-1
 704 384 l 1,41,-1
 704 320 l 1,42,-1
 832 320 l 1,43,-1
 832 256 l 1,44,-1
 704 256 l 1,45,-1
 704 192 l 1,46,-1
 640 192 l 1,47,-1
 640 128 l 1,48,-1
 576 128 l 1,49,-1
 576 -64 l 1,8,-1
512 192 m 1,50,-1
 512 256 l 1,51,-1
 576 256 l 1,52,-1
 576 448 l 1,53,-1
 512 448 l 1,54,-1
 512 512 l 1,55,-1
 320 512 l 1,56,-1
 320 448 l 1,57,-1
 256 448 l 1,58,-1
 256 384 l 1,59,-1
 320 384 l 1,60,-1
 320 320 l 1,61,-1
 384 320 l 1,62,-1
 384 256 l 1,63,-1
 448 256 l 1,64,-1
 448 192 l 1,65,-1
 512 192 l 1,50,-1
768 448 m 1,66,-1
 768 512 l 1,67,-1
 832 512 l 1,68,-1
 832 448 l 1,69,-1
 768 448 l 1,66,-1
0 512 m 1,70,-1
 -128 512 l 1,71,-1
 -128 576 l 1,72,-1
 0 576 l 1,73,-1
 0 512 l 1,70,-1
704 576 m 1,74,-1
 704 640 l 1,75,-1
 768 640 l 1,76,-1
 768 576 l 1,77,-1
 704 576 l 1,74,-1
192 640 m 1,78,-1
 128 640 l 1,79,-1
 128 704 l 1,80,-1
 192 704 l 1,81,-1
 192 640 l 1,78,-1
EndSplineSet
Validated: 5
EndChar

StartChar: yen
Encoding: 165 165 103
Width: 640
GlyphClass: 2
Flags: W
LayerCount: 2
Fore
SplineSet
192 0 m 1,0,-1
 192 128 l 1,1,-1
 0 128 l 1,2,-1
 0 192 l 1,3,-1
 192 192 l 1,4,-1
 192 256 l 1,5,-1
 0 256 l 1,6,-1
 0 320 l 1,7,-1
 192 320 l 1,8,-1
 192 384 l 1,9,-1
 64 384 l 1,10,-1
 0 448 l 1,11,-1
 0 704 l 1,12,-1
 128 704 l 1,13,-1
 128 512 l 1,14,-1
 384 512 l 1,15,-1
 384 704 l 1,16,-1
 512 704 l 1,17,-1
 512 448 l 5,18,-1
 448 384 l 5,19,-1
 320 384 l 1,20,-1
 320 320 l 1,21,-1
 512 320 l 1,22,-1
 512 256 l 1,23,-1
 320 256 l 1,24,-1
 320 192 l 1,25,-1
 512 192 l 1,26,-1
 512 128 l 1,27,-1
 320 128 l 1,28,-1
 320 0 l 1,29,-1
 192 0 l 1,0,-1
EndSplineSet
Validated: 1
EndChar

StartChar: brokenbar
Encoding: 166 166 104
Width: 320
GlyphClass: 2
Flags: W
LayerCount: 2
Fore
SplineSet
64 -128 m 1,0,-1
 64 704 l 1,1,-1
 192 704 l 1,2,-1
 192 -128 l 1,3,-1
 64 -128 l 1,0,-1
EndSplineSet
Validated: 1
EndChar

StartChar: section
Encoding: 167 167 105
Width: 832
GlyphClass: 2
Flags: W
LayerCount: 2
Fore
SplineSet
448 -64 m 1,0,-1
 448 0 l 1,1,-1
 320 0 l 1,2,-1
 320 -64 l 1,3,-1
 128 -64 l 1,4,-1
 128 0 l 1,5,-1
 0 0 l 1,6,-1
 0 64 l 1,7,-1
 64 64 l 1,8,-1
 64 192 l 1,9,-1
 128 192 l 1,10,-1
 128 640 l 1,11,-1
 192 640 l 1,12,-1
 192 704 l 1,13,-1
 576 704 l 1,14,-1
 576 640 l 1,15,-1
 640 640 l 1,16,-1
 640 512 l 1,17,-1
 704 512 l 1,18,-1
 704 448 l 1,19,-1
 640 448 l 1,20,-1
 640 512 l 1,21,-1
 576 512 l 1,22,-1
 576 576 l 1,23,-1
 448 576 l 1,24,-1
 448 512 l 1,25,-1
 384 512 l 1,26,-1
 384 448 l 1,27,-1
 640 448 l 1,28,-1
 640 0 l 1,29,-1
 704 0 l 1,30,-1
 704 -64 l 1,31,-1
 448 -64 l 1,0,-1
512 64 m 1,32,-1
 512 128 l 1,33,-1
 576 128 l 1,34,-1
 576 384 l 1,35,-1
 448 384 l 1,36,-1
 448 128 l 1,37,-1
 320 128 l 1,38,-1
 320 192 l 1,39,-1
 256 192 l 1,40,-1
 256 128 l 1,41,-1
 320 128 l 1,42,-1
 320 64 l 1,43,-1
 512 64 l 1,32,-1
320 512 m 1,44,-1
 320 576 l 1,45,-1
 256 576 l 1,46,-1
 256 512 l 1,47,-1
 320 512 l 1,44,-1
EndSplineSet
Validated: 5
EndChar

StartChar: dieresis
Encoding: 168 168 106
Width: 448
GlyphClass: 2
Flags: W
LayerCount: 2
Fore
SplineSet
192 640 m 1,0,-1
 192 768 l 1,1,-1
 320 768 l 1,2,-1
 320 640 l 1,3,-1
 192 640 l 1,0,-1
0 640 m 1,4,-1
 0 768 l 1,5,-1
 128 768 l 1,6,-1
 128 640 l 1,7,-1
 0 640 l 1,4,-1
EndSplineSet
Validated: 1
EndChar

StartChar: copyright
Encoding: 169 169 107
Width: 896
GlyphClass: 2
Flags: W
LayerCount: 2
Fore
SplineSet
192 0 m 1,0,-1
 0 192 l 1,1,-1
 0 576 l 1,2,-1
 192 768 l 1,3,-1
 576 768 l 1,4,-1
 768 576 l 1,5,-1
 768 192 l 1,6,-1
 576 0 l 1,7,-1
 192 0 l 1,0,-1
512 128 m 1,8,-1
 640 256 l 5,9,-1
 640 512 l 5,10,-1
 512 640 l 1,11,-1
 256 640 l 1,12,-1
 128 512 l 1,13,-1
 128 256 l 1,14,-1
 256 128 l 1,15,-1
 512 128 l 1,8,-1
288 192 m 1,16,-1
 192 288 l 1,17,-1
 192 480 l 1,18,-1
 288 576 l 1,19,-1
 480 576 l 1,20,-1
 576 480 l 1,21,-1
 576 448 l 1,22,-1
 512 448 l 1,23,-1
 448 512 l 1,24,-1
 320 512 l 1,25,-1
 256 448 l 1,26,-1
 256 320 l 1,27,-1
 320 256 l 1,28,-1
 448 256 l 1,29,-1
 512 320 l 1,30,-1
 576 320 l 1,31,-1
 576 288 l 1,32,-1
 480 192 l 1,33,-1
 288 192 l 1,16,-1
EndSplineSet
Validated: 1
EndChar

StartChar: ordfeminine
Encoding: 170 170 108
Width: 960
GlyphClass: 2
Flags: W
LayerCount: 2
Fore
SplineSet
256 256 m 1,0,-1
 256 320 l 1,1,-1
 320 320 l 1,2,-1
 320 256 l 1,3,-1
 256 256 l 1,0,-1
128 -64 m 1,4,-1
 -64 128 l 1,5,-1
 -64 576 l 1,6,-1
 128 768 l 1,7,-1
 640 768 l 1,8,-1
 832 576 l 1,9,-1
 832 192 l 1,10,-1
 576 -64 l 1,11,-1
 128 -64 l 1,4,-1
512 64 m 1,12,-1
 704 256 l 1,13,-1
 704 512 l 1,14,-1
 576 640 l 1,15,-1
 192 640 l 1,16,-1
 64 512 l 1,17,-1
 64 384 l 1,18,-1
 192 384 l 1,19,-1
 192 256 l 1,20,-1
 64 256 l 1,21,-1
 64 128 l 1,22,-1
 128 128 l 1,23,-1
 128 64 l 1,24,-1
 192 64 l 1,25,-1
 192 128 l 1,26,-1
 256 128 l 1,27,-1
 256 64 l 1,28,-1
 320 64 l 1,29,-1
 320 128 l 1,30,-1
 384 128 l 1,31,-1
 384 64 l 1,32,-1
 512 64 l 1,12,-1
384 256 m 1,33,-1
 384 384 l 1,34,-1
 512 384 l 1,35,-1
 512 256 l 1,36,-1
 384 256 l 1,33,-1
EndSplineSet
Validated: 1
EndChar

StartChar: guillemotleft
Encoding: 171 171 109
Width: 960
GlyphClass: 2
Flags: W
LayerCount: 2
Fore
SplineSet
0 400 m 1,0,-1
 0 640 l 1,1,-1
 128 768 l 1,2,-1
 304 768 l 1,3,-1
 416 640 l 1,4,-1
 528 768 l 1,5,-1
 704 768 l 1,6,-1
 832 640 l 1,7,-1
 832 400 l 1,8,-1
 416 0 l 1,9,-1
 0 400 l 1,0,-1
EndSplineSet
Validated: 1
EndChar

StartChar: logicalnot
Encoding: 172 172 110
Width: 640
GlyphClass: 2
Flags: W
LayerCount: 2
Fore
SplineSet
384 256 m 1,0,-1
 384 384 l 1,1,-1
 0 384 l 1,2,-1
 0 512 l 1,3,-1
 512 512 l 1,4,-1
 512 256 l 1,5,-1
 384 256 l 1,0,-1
EndSplineSet
Validated: 1
EndChar

StartChar: uni00AD
Encoding: 173 173 111
Width: 320
GlyphClass: 2
Flags: W
LayerCount: 2
Fore
SplineSet
256 320 m 1,0,-1
 0 320 l 1,1,-1
 0 448 l 1,2,-1
 256 448 l 1,3,-1
 256 320 l 1,0,-1
EndSplineSet
Validated: 1
EndChar

StartChar: registered
Encoding: 174 174 112
Width: 896
GlyphClass: 2
Flags: W
LayerCount: 2
Fore
SplineSet
192 0 m 5,0,-1
 0 192 l 5,1,-1
 0 576 l 5,2,-1
 192 768 l 5,3,-1
 576 768 l 5,4,-1
 768 576 l 5,5,-1
 768 192 l 5,6,-1
 576 0 l 5,7,-1
 192 0 l 5,0,-1
  Spiro
    192 0 v
    0 192 v
    0 576 v
    192 768 v
    576 768 v
    768 576 v
    768 192 v
    576 0 v
    0 0 z
  EndSpiro
256 192 m 5,8,-1
 192 192 l 5,9,-1
 196 576 l 5,10,-1
 480 576 l 5,11,-1
 576 480 l 5,12,-1
 576 416 l 5,13,14
 512 352 512 352 512 352 c 5,15,16
 576 288 576 288 576 288 c 133,-1,17
 576 288 576 288 576 192 c 5,18,-1
 512 192 l 5,19,-1
 512 256 l 5,20,21
 512 256 512 256 448 320 c 5,22,-1
 256 320 l 5,23,-1
 256 192 l 5,8,-1
640 256 m 5,24,-1
 640 512 l 5,25,-1
 512 640 l 5,26,-1
 256 640 l 5,27,-1
 128 512 l 5,28,-1
 128 256 l 5,29,-1
 256 128 l 5,30,-1
 512 128 l 5,31,-1
 640 256 l 5,24,-1
  Spiro
    640 256 v
    640 512 v
    512 640 v
    256 640 v
    128 512 v
    128 256 v
    256 128 v
    512 128 v
    0 0 z
  EndSpiro
448 384 m 5,32,-1
 512 448 l 5,33,-1
 448 512 l 5,34,-1
 256 512 l 5,35,-1
 256 384 l 5,36,-1
 448 384 l 5,32,-1
EndSplineSet
Validated: 5
EndChar

StartChar: macron
Encoding: 175 175 113
Width: 768
GlyphClass: 2
Flags: W
LayerCount: 2
Fore
SplineSet
64 640 m 1,0,-1
 64 768 l 1,1,-1
 640 768 l 1,2,-1
 640 640 l 1,3,-1
 64 640 l 1,0,-1
EndSplineSet
Validated: 1
EndChar

StartChar: degree
Encoding: 176 176 114
Width: 1024
GlyphClass: 2
Flags: W
LayerCount: 2
Fore
SplineSet
832 128 m 1,0,-1
 832 192 l 1,1,-1
 704 192 l 1,2,-1
 704 64 l 1,3,-1
 576 64 l 1,4,-1
 576 0 l 1,5,-1
 192 0 l 1,6,-1
 192 64 l 1,7,-1
 64 64 l 1,8,-1
 64 192 l 1,9,-1
 0 192 l 1,10,-1
 0 576 l 1,11,-1
 64 576 l 1,12,-1
 64 704 l 1,13,-1
 192 704 l 1,14,-1
 192 768 l 1,15,-1
 576 768 l 1,16,-1
 576 704 l 1,17,-1
 704 704 l 1,18,-1
 704 576 l 1,19,-1
 832 576 l 1,20,-1
 832 640 l 1,21,-1
 896 640 l 1,22,-1
 896 448 l 1,23,-1
 832 448 l 1,24,-1
 832 320 l 1,25,-1
 896 320 l 1,26,-1
 896 128 l 1,27,-1
 832 128 l 1,0,-1
448 128 m 1,28,-1
 448 192 l 1,29,-1
 512 192 l 1,30,-1
 512 320 l 1,31,-1
 448 320 l 1,32,-1
 448 256 l 1,33,-1
 192 256 l 1,34,-1
 192 320 l 1,35,-1
 128 320 l 1,36,-1
 128 192 l 1,37,-1
 192 192 l 5,38,-1
 192 128 l 1,39,-1
 448 128 l 1,28,-1
512 384 m 1,40,-1
 512 512 l 1,41,-1
 384 512 l 1,42,-1
 384 384 l 1,43,-1
 512 384 l 1,40,-1
256 384 m 1,44,-1
 256 512 l 1,45,-1
 128 512 l 1,46,-1
 128 384 l 1,47,-1
 256 384 l 1,44,-1
EndSplineSet
Validated: 1
EndChar

StartChar: plusminus
Encoding: 177 177 115
Width: 896
GlyphClass: 2
Flags: W
LayerCount: 2
Fore
SplineSet
512 448 m 1,0,-1
 512 512 l 1,1,-1
 576 512 l 1,2,-1
 576 448 l 1,3,-1
 512 448 l 1,0,-1
192 448 m 1,4,-1
 192 512 l 1,5,-1
 256 512 l 1,6,-1
 256 448 l 1,7,-1
 192 448 l 1,4,-1
192 -128 m 1,8,-1
 192 -64 l 1,9,-1
 256 -64 l 1,10,-1
 256 0 l 1,11,-1
 128 0 l 1,12,-1
 0 128 l 1,13,-1
 0 384 l 1,14,-1
 64 384 l 1,15,-1
 64 640 l 1,16,-1
 128 704 l 1,17,-1
 640 704 l 1,18,-1
 704 640 l 1,19,-1
 704 384 l 1,20,-1
 768 384 l 1,21,-1
 768 128 l 1,22,-1
 640 0 l 1,23,-1
 512 0 l 1,24,-1
 512 -64 l 1,25,-1
 576 -64 l 1,26,-1
 576 -128 l 1,27,-1
 192 -128 l 1,8,-1
448 -64 m 1,28,-1
 448 0 l 1,29,-1
 320 0 l 1,30,-1
 320 -64 l 1,31,-1
 448 -64 l 1,28,-1
448 256 m 1,32,-1
 448 320 l 1,33,-1
 320 320 l 1,34,-1
 320 256 l 1,35,-1
 448 256 l 1,32,-1
640 384 m 1,36,-1
 640 576 l 1,37,-1
 448 576 l 1,38,-1
 448 384 l 1,39,-1
 640 384 l 1,36,-1
320 384 m 1,40,-1
 320 576 l 1,41,-1
 128 576 l 1,42,-1
 128 384 l 1,43,-1
 320 384 l 1,40,-1
EndSplineSet
Validated: 1
EndChar

StartChar: uni00B2
Encoding: 178 178 116
Width: 448
GlyphClass: 2
Flags: W
LayerCount: 2
Fore
SplineSet
320 704 m 13,0,-1
 320 608 l 17,1,-1
 64 416 l 1,2,-1
 64 384 l 1,3,-1
 320 384 l 1,4,-1
 320 320 l 1,5,-1
 0 320 l 1,6,-1
 0 448 l 1,7,-1
 256 640 l 5,8,-1
 256 672 l 5,9,-1
 224 704 l 13,10,-1
 96 704 l 21,11,-1
 64 672 l 5,12,-1
 64 640 l 5,13,-1
 0 640 l 5,14,-1
 0 704 l 5,15,-1
 64 768 l 5,16,-1
 256 768 l 5,17,-1
 320 704 l 13,0,-1
EndSplineSet
Validated: 1
EndChar

StartChar: uni00B3
Encoding: 179 179 117
Width: 448
GlyphClass: 2
Flags: W
LayerCount: 2
Fore
SplineSet
285 544 m 1053,0,-1
320 512 m 21,1,-1
 320 384 l 21,2,-1
 256 320 l 5,3,-1
 64 320 l 5,4,-1
 0 384 l 5,5,-1
 0 448 l 5,6,-1
 64 448 l 5,7,-1
 64 416 l 5,8,-1
 96 384 l 13,9,-1
 224 384 l 21,10,-1
 256 416 l 5,11,-1
 256 480 l 5,12,-1
 224 512 l 5,13,-1
 128 512 l 5,14,-1
 128 576 l 5,15,-1
 224 576 l 5,16,-1
 256 608 l 5,17,-1
 256 672 l 5,18,-1
 224 704 l 13,19,-1
 96 704 l 21,20,-1
 64 672 l 5,21,-1
 64 640 l 5,22,-1
 0 640 l 5,23,-1
 0 704 l 5,24,-1
 64 768 l 5,25,-1
 256 768 l 5,26,-1
 320 704 l 13,27,-1
 320 576 l 13,28,-1
 285 544 l 29,29,-1
 320 512 l 21,1,-1
EndSplineSet
Validated: 1
EndChar

StartChar: acute
Encoding: 180 180 118
Width: 384
GlyphClass: 2
Flags: W
LayerCount: 2
Fore
SplineSet
64 576 m 1,0,-1
 64 672 l 1,1,-1
 160 768 l 1,2,-1
 256 768 l 1,3,-1
 256 672 l 5,4,-1
 160 576 l 1,5,-1
 64 576 l 1,0,-1
EndSplineSet
Validated: 1
EndChar

StartChar: uni00B5
Encoding: 181 181 119
Width: 704
GlyphClass: 2
Flags: W
LayerCount: 2
Fore
SplineSet
64 -192 m 1,0,-1
 64 576 l 1,1,-1
 192 576 l 1,2,-1
 192 128 l 1,3,-1
 448 128 l 1,4,-1
 448 576 l 1,5,-1
 576 576 l 1,6,-1
 576 0 l 1,7,-1
 192 0 l 1,8,-1
 192 -192 l 1,9,-1
 64 -192 l 1,0,-1
EndSplineSet
Validated: 1
EndChar

StartChar: paragraph
Encoding: 182 182 120
Width: 768
GlyphClass: 2
Flags: W
LayerCount: 2
Fore
SplineSet
384 -192 m 1,0,-1
 384 640 l 1,1,-1
 256 640 l 1,2,-1
 256 -192 l 1,3,-1
 128 -192 l 1,4,-1
 128 256 l 1,5,-1
 64 256 l 1,6,-1
 -64 384 l 1,7,-1
 -64 640 l 5,8,-1
 64 768 l 5,9,-1
 640 768 l 1,10,-1
 640 640 l 1,11,-1
 512 640 l 1,12,-1
 512 -192 l 1,13,-1
 384 -192 l 1,0,-1
EndSplineSet
Validated: 1
EndChar

StartChar: periodcentered
Encoding: 183 183 121
Width: 512
GlyphClass: 2
Flags: W
LayerCount: 2
Fore
SplineSet
256 256 m 1,0,-1
 256 384 l 1,1,-1
 384 384 l 1,2,-1
 384 256 l 1,3,-1
 256 256 l 1,0,-1
EndSplineSet
Validated: 1
EndChar

StartChar: cedilla
Encoding: 184 184 122
Width: 448
GlyphClass: 2
Flags: W
LayerCount: 2
Fore
SplineSet
64 -256 m 1,0,-1
 64 -150 l 1,1,-1
 192 -150 l 1,2,-1
 192 -96 l 1,3,-1
 64 -64 l 1,4,-1
 64 64 l 1,5,-1
 192 64 l 1,6,-1
 192 32 l 1,7,-1
 320 0 l 1,8,-1
 320 -256 l 1,9,-1
 64 -256 l 1,0,-1
EndSplineSet
Validated: 1
EndChar

StartChar: uni00B9
Encoding: 185 185 123
Width: 384
GlyphClass: 2
Flags: W
LayerCount: 2
Fore
SplineSet
192 320 m 5,0,-1
 192 704 l 5,1,-1
 64 640 l 5,2,-1
 64 704 l 5,3,-1
 192 768 l 5,4,-1
 256 768 l 5,5,-1
 256 320 l 5,6,-1
 192 320 l 5,0,-1
EndSplineSet
Validated: 1
EndChar

StartChar: ordmasculine
Encoding: 186 186 124
Width: 1024
GlyphClass: 2
Flags: W
LayerCount: 2
Fore
SplineSet
448 384 m 1,0,-1
 448 448 l 1,1,-1
 512 448 l 1,2,-1
 512 384 l 1,3,-1
 448 384 l 1,0,-1
320 384 m 1,4,-1
 320 448 l 1,5,-1
 384 448 l 1,6,-1
 384 384 l 1,7,-1
 320 384 l 1,4,-1
192 0 m 1,8,-1
 192 64 l 1,9,-1
 128 64 l 1,10,-1
 128 128 l 1,11,-1
 64 128 l 1,12,-1
 64 256 l 1,13,-1
 0 256 l 1,14,-1
 0 320 l 1,15,-1
 -64 320 l 1,16,-1
 -64 512 l 1,17,-1
 64 512 l 1,18,-1
 64 640 l 1,19,-1
 128 640 l 1,20,-1
 128 704 l 1,21,-1
 192 704 l 1,22,-1
 192 768 l 1,23,-1
 640 768 l 1,24,-1
 640 704 l 1,25,-1
 704 704 l 1,26,-1
 704 640 l 1,27,-1
 768 640 l 1,28,-1
 768 512 l 1,29,-1
 896 512 l 1,30,-1
 896 320 l 1,31,-1
 832 320 l 1,32,-1
 832 448 l 1,33,-1
 768 448 l 1,34,-1
 768 320 l 1,35,-1
 832 320 l 1,36,-1
 832 256 l 1,37,-1
 768 256 l 1,38,-1
 768 128 l 1,39,-1
 704 128 l 1,40,-1
 704 64 l 1,41,-1
 640 64 l 1,42,-1
 640 0 l 1,43,-1
 192 0 l 1,8,-1
576 128 m 1,44,-1
 576 192 l 1,45,-1
 640 192 l 1,46,-1
 640 384 l 1,47,-1
 576 384 l 1,48,-1
 576 448 l 1,49,-1
 640 448 l 1,50,-1
 640 576 l 1,51,-1
 576 576 l 1,52,-1
 576 640 l 1,53,-1
 256 640 l 1,54,-1
 256 576 l 1,55,-1
 192 576 l 1,56,-1
 192 448 l 1,57,-1
 256 448 l 1,58,-1
 256 384 l 1,59,-1
 192 384 l 1,60,-1
 192 192 l 1,61,-1
 256 192 l 1,62,-1
 256 128 l 1,63,-1
 576 128 l 1,44,-1
512 256 m 1,64,-1
 512 192 l 1,65,-1
 320 192 l 1,66,-1
 320 256 l 1,67,-1
 512 256 l 1,64,-1
512 256 m 1,68,-1
 512 320 l 1,69,-1
 576 320 l 1,70,-1
 576 256 l 1,71,-1
 512 256 l 1,68,-1
320 256 m 1,72,-1
 256 256 l 1,73,-1
 256 320 l 1,74,-1
 320 320 l 1,75,-1
 320 256 l 1,72,-1
64 320 m 1,76,-1
 64 448 l 1,77,-1
 0 448 l 1,78,-1
 0 320 l 1,79,-1
 64 320 l 1,76,-1
576 448 m 1,80,-1
 512 448 l 1,81,-1
 512 512 l 1,82,-1
 576 512 l 1,83,-1
 576 448 l 1,80,-1
320 448 m 1,84,-1
 256 448 l 1,85,-1
 256 512 l 1,86,-1
 320 512 l 1,87,-1
 320 448 l 1,84,-1
EndSplineSet
Validated: 5
EndChar

StartChar: guillemotright
Encoding: 187 187 125
Width: 1024
GlyphClass: 2
Flags: W
LayerCount: 2
Fore
SplineSet
384 -128 m 1,0,-1
 384 0 l 1,1,-1
 256 0 l 1,2,-1
 256 64 l 1,3,-1
 192 64 l 1,4,-1
 192 0 l 1,5,-1
 64 0 l 1,6,-1
 64 128 l 1,7,-1
 128 128 l 1,8,-1
 128 256 l 1,9,-1
 0 256 l 1,10,-1
 0 384 l 1,11,-1
 128 384 l 1,12,-1
 128 512 l 1,13,-1
 64 512 l 1,14,-1
 64 640 l 5,15,-1
 192 640 l 1,16,-1
 192 576 l 1,17,-1
 256 576 l 1,18,-1
 256 640 l 1,19,-1
 384 640 l 1,20,-1
 384 768 l 1,21,-1
 512 768 l 1,22,-1
 512 640 l 1,23,-1
 640 640 l 1,24,-1
 640 576 l 1,25,-1
 704 576 l 1,26,-1
 704 640 l 1,27,-1
 832 640 l 1,28,-1
 832 512 l 1,29,-1
 768 512 l 1,30,-1
 768 384 l 1,31,-1
 896 384 l 1,32,-1
 896 256 l 1,33,-1
 768 256 l 1,34,-1
 768 128 l 1,35,-1
 832 128 l 1,36,-1
 832 0 l 5,37,-1
 704 0 l 5,38,-1
 704 64 l 1,39,-1
 640 64 l 1,40,-1
 640 0 l 1,41,-1
 512 0 l 1,42,-1
 512 -128 l 1,43,-1
 384 -128 l 1,0,-1
576 128 m 1,44,-1
 576 192 l 1,45,-1
 320 192 l 1,46,-1
 320 256 l 1,47,-1
 256 256 l 1,48,-1
 256 192 l 1,49,-1
 320 192 l 1,50,-1
 320 128 l 1,51,-1
 576 128 l 1,44,-1
640 192 m 1,52,-1
 640 256 l 1,53,-1
 576 256 l 1,54,-1
 576 320 l 1,55,-1
 512 320 l 1,56,-1
 512 448 l 1,57,-1
 576 448 l 1,58,-1
 576 512 l 1,59,-1
 320 512 l 1,60,-1
 320 448 l 1,61,-1
 384 448 l 1,62,-1
 384 320 l 1,63,-1
 320 320 l 1,64,-1
 320 448 l 1,65,-1
 256 448 l 1,66,-1
 256 320 l 1,67,-1
 320 320 l 1,68,-1
 320 256 l 1,69,-1
 576 256 l 1,70,-1
 576 192 l 1,71,-1
 640 192 l 1,52,-1
640 320 m 1,72,-1
 640 448 l 1,73,-1
 576 448 l 1,74,-1
 576 320 l 1,75,-1
 640 320 l 1,72,-1
EndSplineSet
Validated: 5
EndChar

StartChar: onequarter
Encoding: 188 188 126
Width: 960
GlyphClass: 2
Flags: W
LayerCount: 2
Fore
SplineSet
704 224 m 13,0,-1
 576 96 l 21,1,-1
 576 64 l 5,2,-1
 704 64 l 5,3,-1
 704 224 l 13,0,-1
723 685 m 1,4,-1
 813 595 l 1,5,-1
 173 -45 l 1,6,-1
 83 45 l 1,7,-1
 723 685 l 1,4,-1
704 320 m 21,8,-1
 768 320 l 5,9,-1
 768 64 l 5,10,-1
 832 64 l 5,11,-1
 832 0 l 5,12,-1
 768 0 l 5,13,-1
 768 -128 l 5,14,-1
 704 -128 l 5,15,-1
 704 0 l 5,16,-1
 512 0 l 5,17,-1
 512 128 l 13,18,-1
 704 320 l 21,8,-1
192 384 m 1,19,-1
 192 704 l 1,20,-1
 64 640 l 1,21,-1
 64 704 l 1,22,-1
 192 768 l 1,23,-1
 256 768 l 1,24,-1
 256 384 l 1,25,-1
 192 384 l 1,19,-1
EndSplineSet
Validated: 1
EndChar

StartChar: onehalf
Encoding: 189 189 127
Width: 960
GlyphClass: 2
Flags: W
LayerCount: 2
Fore
SplineSet
832 256 m 9,0,-1
 832 160 l 17,1,-1
 640 32 l 1,2,-1
 640 0 l 1,3,-1
 832 0 l 1,4,-1
 832 -64 l 1,5,-1
 576 -64 l 1,6,-1
 576 64 l 1,7,-1
 768 192 l 1,8,-1
 768 224 l 1,9,-1
 736 256 l 9,10,-1
 672 256 l 17,11,-1
 640 224 l 1,12,-1
 640 192 l 1,13,-1
 576 192 l 1,14,-1
 576 256 l 1,15,-1
 640 320 l 1,16,-1
 768 320 l 1,17,-1
 832 256 l 9,0,-1
192 384 m 5,18,-1
 192 704 l 5,19,-1
 64 640 l 5,20,-1
 64 704 l 5,21,-1
 192 768 l 5,22,-1
 256 768 l 5,23,-1
 256 384 l 5,24,-1
 192 384 l 5,18,-1
723 685 m 1,25,-1
 813 595 l 1,26,-1
 173 -45 l 1,27,-1
 83 45 l 1,28,-1
 723 685 l 1,25,-1
EndSplineSet
Validated: 1
EndChar

StartChar: threequarters
Encoding: 190 190 128
Width: 960
GlyphClass: 2
Flags: W
LayerCount: 2
Fore
SplineSet
704 224 m 9
 576 96 l 17
 576 64 l 1
 704 64 l 1
 704 224 l 9
704 320 m 17
 768 320 l 1
 768 64 l 1
 832 64 l 1
 832 0 l 1
 768 0 l 1
 768 -128 l 1
 704 -128 l 1
 704 0 l 1
 512 0 l 1
 512 128 l 9
 704 320 l 17
723 685 m 1
 813 595 l 1
 173 -45 l 1
 83 45 l 1
 723 685 l 1
EndSplineSet
Refer: 117 179 N 1 0 0 1 0 0 2
Validated: 98305
EndChar

StartChar: questiondown
Encoding: 191 191 129
Width: 640
GlyphClass: 2
Flags: W
LayerCount: 2
Fore
SplineSet
384 448 m 5,0,-1
 384 320 l 5,1,-1
 256 320 l 5,2,-1
 256 448 l 5,3,-1
 384 448 l 5,0,-1
384 256 m 5,4,-1
 384 64 l 5,5,-1
 192 64 l 5,6,-1
 128 0 l 5,7,8
 128 0 128 0 192 -64 c 5,9,-1
 512 -64 l 5,10,-1
 512 -192 l 5,11,-1
 128 -192 l 5,12,-1
 0 -64 l 5,13,-1
 0 64 l 5,14,-1
 128 192 l 5,15,-1
 256 192 l 5,16,17
 256 192 256 192 256 256 c 5,18,19
 384 256 384 256 384 256 c 5,4,-1
EndSplineSet
Validated: 1
EndChar

StartChar: Agrave
Encoding: 192 192 130
Width: 640
GlyphClass: 2
Flags: W
LayerCount: 2
Fore
SplineSet
224 640 m 5
 96 768 l 5
 256 768 l 1
 384 640 l 1
 224 640 l 5
EndSplineSet
Refer: 36 65 N 1 0 0 1 0 0 2
Validated: 98309
EndChar

StartChar: Aacute
Encoding: 193 193 131
Width: 640
GlyphClass: 2
Flags: W
LayerCount: 2
Fore
SplineSet
128 640 m 1
 256 768 l 1
 416 768 l 5
 288 640 l 5
 128 640 l 1
EndSplineSet
Refer: 36 65 N 1 0 0 1 0 0 2
Validated: 98309
EndChar

StartChar: Acircumflex
Encoding: 194 194 132
Width: 640
GlyphClass: 2
Flags: W
LayerCount: 2
Fore
SplineSet
320 768 m 1
 320 704 l 1
 192 704 l 1
 192 768 l 1
 320 768 l 1
EndSplineSet
Refer: 36 65 S 1 0 0 1 0 0 2
Validated: 98305
EndChar

StartChar: Atilde
Encoding: 195 195 133
Width: 640
GlyphClass: 2
Flags: W
LayerCount: 2
Fore
SplineSet
128 640 m 1029
64 640 m 21
 64 704 l 5
 128 768 l 5
 240 768 l 5
 304 704 l 5
 352 704 l 5
 384 736 l 5
 384 768 l 5
 448 768 l 5
 448 704 l 5
 384 640 l 5
 272 640 l 5
 208 704 l 5
 160 704 l 5
 128 672 l 5
 128 640 l 13
 64 640 l 21
EndSplineSet
Refer: 36 65 N 1 0 0 1 0 0 2
Validated: 98309
EndChar

StartChar: Adieresis
Encoding: 196 196 134
Width: 640
GlyphClass: 2
Flags: W
LayerCount: 2
Fore
SplineSet
320 704 m 1
 320 768 l 1
 384 768 l 1
 384 704 l 1
 320 704 l 1
128 704 m 1
 128 768 l 1
 192 768 l 1
 192 704 l 1
 128 704 l 1
EndSplineSet
Refer: 36 65 S 1 0 0 1 0 0 2
Validated: 98305
EndChar

StartChar: Aring
Encoding: 197 197 135
Width: 640
GlyphClass: 2
Flags: W
LayerCount: 2
Fore
SplineSet
320 576 m 9
 192 576 l 17
 128 640 l 1
 128 704 l 5
 192 768 l 5
 320 768 l 5
 384 704 l 5
 384 640 l 1
 320 576 l 9
224 704 m 13
 192 672 l 21
 224 640 l 1
 288 640 l 1
 320 672 l 5
 288 704 l 5
 224 704 l 13
EndSplineSet
Refer: 36 65 N 1 0 0 1 0 0 2
Validated: 98309
EndChar

StartChar: AE
Encoding: 198 198 136
Width: 896
GlyphClass: 2
Flags: W
LayerCount: 2
Fore
SplineSet
320 0 m 1,0,-1
 320 192 l 1,1,-1
 128 192 l 1,2,-1
 128 0 l 1,3,-1
 0 0 l 1,4,-1
 0 256 l 1,5,-1
 192 768 l 1,6,-1
 768 768 l 1,7,-1
 768 640 l 1,8,-1
 448 640 l 1,9,-1
 448 448 l 1,10,-1
 768 448 l 1,11,-1
 768 320 l 1,12,-1
 448 320 l 1,13,-1
 448 128 l 1,14,-1
 768 128 l 1,15,-1
 768 0 l 1,16,-1
 320 0 l 1,0,-1
320 320 m 1,17,-1
 320 576 l 1,18,-1
 256 576 l 5,19,-1
 192 384 l 5,20,-1
 192 320 l 1,21,-1
 320 320 l 1,17,-1
EndSplineSet
Validated: 1
EndChar

StartChar: Ccedilla
Encoding: 199 199 137
Width: 640
GlyphClass: 2
Flags: W
LayerCount: 2
Fore
SplineSet
416 -192 m 25
 256 -192 l 17
 256 -128 l 1
 384 -128 l 1
 256 0 l 9
 352 0 l 25
 448 -96 l 17
 448 -160 l 25
 416 -192 l 25
EndSplineSet
Refer: 38 67 N 1 0 0 1 128 0 2
Validated: 98309
EndChar

StartChar: Egrave
Encoding: 200 200 138
Width: 512
GlyphClass: 2
Flags: W
LayerCount: 2
Fore
SplineSet
160 640 m 1
 32 768 l 1
 160 768 l 1
 288 640 l 1
 160 640 l 1
EndSplineSet
Refer: 40 69 N 1 0 0 1 0 0 2
Validated: 98309
EndChar

StartChar: Eacute
Encoding: 201 201 139
Width: 512
GlyphClass: 2
Flags: W
LayerCount: 2
Fore
SplineSet
96 640 m 5
 224 768 l 5
 352 768 l 5
 224 640 l 5
 96 640 l 5
EndSplineSet
Refer: 40 69 N 1 0 0 1 0 0 2
Validated: 98309
EndChar

StartChar: Ecircumflex
Encoding: 202 202 140
Width: 512
GlyphClass: 2
Flags: W
LayerCount: 2
Fore
SplineSet
256 768 m 1
 256 704 l 1
 128 704 l 1
 128 768 l 1
 256 768 l 1
EndSplineSet
Refer: 40 69 S 1 0 0 1 0 0 2
Validated: 98305
EndChar

StartChar: Edieresis
Encoding: 203 203 141
Width: 512
GlyphClass: 2
Flags: W
LayerCount: 2
Fore
SplineSet
256 704 m 1
 256 768 l 1
 320 768 l 1
 320 704 l 1
 256 704 l 1
64 704 m 1
 64 768 l 1
 128 768 l 1
 128 704 l 1
 64 704 l 1
EndSplineSet
Refer: 40 69 S 1 0 0 1 0 0 2
Validated: 98305
EndChar

StartChar: Igrave
Encoding: 204 204 142
Width: 512
GlyphClass: 2
Flags: W
LayerCount: 2
Fore
SplineSet
160 640 m 5
 32 768 l 5
 160 768 l 5
 288 640 l 5
 160 640 l 5
EndSplineSet
Refer: 44 73 N 1 0 0 1 0 0 2
Validated: 98309
EndChar

StartChar: Iacute
Encoding: 205 205 143
Width: 512
GlyphClass: 2
Flags: W
LayerCount: 2
Fore
SplineSet
96 640 m 5
 224 768 l 5
 352 768 l 5
 224 640 l 5
 96 640 l 5
EndSplineSet
Refer: 44 73 N 1 0 0 1 0 0 2
Validated: 98309
EndChar

StartChar: Icircumflex
Encoding: 206 206 144
Width: 512
GlyphClass: 2
Flags: W
LayerCount: 2
Fore
SplineSet
256 768 m 1
 256 704 l 1
 128 704 l 1
 128 768 l 1
 256 768 l 1
EndSplineSet
Refer: 44 73 S 1 0 0 1 0 0 2
Validated: 98305
EndChar

StartChar: Idieresis
Encoding: 207 207 145
Width: 512
GlyphClass: 2
Flags: W
LayerCount: 2
Fore
SplineSet
256 704 m 1
 256 768 l 1
 320 768 l 1
 320 704 l 1
 256 704 l 1
64 704 m 1
 64 768 l 1
 128 768 l 1
 128 704 l 1
 64 704 l 1
EndSplineSet
Refer: 44 73 S 1 0 0 1 0 0 2
Validated: 98305
EndChar

StartChar: Eth
Encoding: 208 208 146
Width: 832
GlyphClass: 2
Flags: W
LayerCount: 2
Fore
SplineSet
64 0 m 1,0,-1
 64 320 l 1,1,-1
 0 320 l 1,2,-1
 0 448 l 1,3,-1
 64 448 l 1,4,-1
 64 768 l 1,5,-1
 512 768 l 1,6,-1
 704 576 l 1,7,-1
 704 192 l 1,8,-1
 512 0 l 1,9,-1
 64 0 l 1,0,-1
448 128 m 1,10,-1
 576 256 l 1,11,-1
 576 512 l 1,12,-1
 448 640 l 1,13,-1
 192 640 l 1,14,-1
 192 448 l 1,15,-1
 384 448 l 1,16,-1
 384 320 l 1,17,-1
 192 320 l 1,18,-1
 192 128 l 1,19,-1
 448 128 l 1,10,-1
EndSplineSet
Validated: 1
EndChar

StartChar: Ntilde
Encoding: 209 209 147
Width: 640
GlyphClass: 2
Flags: W
LayerCount: 2
Fore
SplineSet
128 640 m 1029
64 640 m 21
 64 704 l 5
 128 768 l 5
 240 768 l 5
 304 704 l 5
 352 704 l 5
 384 736 l 5
 384 768 l 5
 448 768 l 5
 448 704 l 5
 384 640 l 5
 272 640 l 5
 208 704 l 5
 160 704 l 5
 128 672 l 5
 128 640 l 13
 64 640 l 21
EndSplineSet
Refer: 49 78 N 1 0 0 1 0 0 2
Validated: 98309
EndChar

StartChar: Ograve
Encoding: 210 210 148
Width: 640
GlyphClass: 2
Flags: W
LayerCount: 2
Fore
SplineSet
224 640 m 5
 96 768 l 5
 256 768 l 1
 384 640 l 1
 224 640 l 5
EndSplineSet
Refer: 50 79 N 1 0 0 1 0 0 2
Validated: 98309
EndChar

StartChar: Oacute
Encoding: 211 211 149
Width: 640
GlyphClass: 2
Flags: W
LayerCount: 2
Fore
SplineSet
128 640 m 1
 256 768 l 1
 416 768 l 5
 288 640 l 5
 128 640 l 1
EndSplineSet
Refer: 50 79 N 1 0 0 1 0 0 2
Validated: 98309
EndChar

StartChar: Ocircumflex
Encoding: 212 212 150
Width: 640
GlyphClass: 2
Flags: W
LayerCount: 2
Fore
SplineSet
320 768 m 1
 320 704 l 1
 192 704 l 1
 192 768 l 1
 320 768 l 1
EndSplineSet
Refer: 50 79 S 1 0 0 1 0 0 2
Validated: 98305
EndChar

StartChar: Otilde
Encoding: 213 213 151
Width: 640
GlyphClass: 2
Flags: W
LayerCount: 2
Fore
SplineSet
128 640 m 1029
64 640 m 21
 64 704 l 5
 128 768 l 5
 240 768 l 5
 304 704 l 5
 352 704 l 5
 384 736 l 5
 384 768 l 5
 448 768 l 5
 448 704 l 5
 384 640 l 5
 272 640 l 5
 208 704 l 5
 160 704 l 5
 128 672 l 5
 128 640 l 13
 64 640 l 21
EndSplineSet
Refer: 50 79 N 1 0 0 1 0 0 2
Validated: 98309
EndChar

StartChar: Odieresis
Encoding: 214 214 152
Width: 640
GlyphClass: 2
Flags: W
LayerCount: 2
Fore
SplineSet
320 704 m 1
 320 768 l 1
 384 768 l 1
 384 704 l 1
 320 704 l 1
128 704 m 1
 128 768 l 1
 192 768 l 1
 192 704 l 1
 128 704 l 1
EndSplineSet
Refer: 50 79 S 1 0 0 1 0 0 2
Validated: 98305
EndChar

StartChar: multiply
Encoding: 215 215 153
Width: 640
GlyphClass: 2
Flags: W
LayerCount: 2
Fore
SplineSet
419 131 m 1,0,-1
 288 261 l 1,1,-1
 157 131 l 1,2,-1
 67 131 l 1,3,-1
 67 221 l 1,4,-1
 197 352 l 1,5,-1
 67 483 l 1,6,-1
 67 573 l 1,7,-1
 157 573 l 1,8,-1
 288 443 l 1,9,-1
 419 573 l 1,10,-1
 509 573 l 1,11,-1
 509 483 l 1,12,-1
 379 352 l 1,13,-1
 509 221 l 1,14,-1
 509 131 l 1,15,-1
 419 131 l 1,0,-1
EndSplineSet
Validated: 1
EndChar

StartChar: Oslash
Encoding: 216 216 154
Width: 832
GlyphClass: 2
Flags: W
LayerCount: 2
Fore
SplineSet
128 0 m 17
 64 0 l 1
 64 64 l 1
 640 640 l 1
 704 640 l 1
 704 576 l 9
 128 0 l 17
EndSplineSet
Refer: 50 79 S 1 0 0 1 128 0 2
Validated: 98309
EndChar

StartChar: Ugrave
Encoding: 217 217 155
Width: 640
GlyphClass: 2
Flags: W
LayerCount: 2
Fore
SplineSet
224 640 m 5
 96 768 l 5
 224 768 l 1
 352 640 l 1
 224 640 l 5
EndSplineSet
Refer: 56 85 N 1 0 0 1 0 0 2
Validated: 98305
EndChar

StartChar: Uacute
Encoding: 218 218 156
Width: 640
GlyphClass: 2
Flags: W
LayerCount: 2
Fore
SplineSet
160 640 m 5
 288 768 l 5
 416 768 l 5
 288 640 l 5
 160 640 l 5
EndSplineSet
Refer: 56 85 N 1 0 0 1 0 0 2
Validated: 98305
EndChar

StartChar: Ucircumflex
Encoding: 219 219 157
Width: 640
GlyphClass: 2
Flags: W
LayerCount: 2
Fore
SplineSet
320 768 m 1
 320 704 l 1
 192 704 l 1
 192 768 l 1
 320 768 l 1
EndSplineSet
Refer: 56 85 S 1 0 0 1 0 0 2
Validated: 98305
EndChar

StartChar: Udieresis
Encoding: 220 220 158
Width: 640
GlyphClass: 2
Flags: W
LayerCount: 2
Fore
SplineSet
320 704 m 1
 320 768 l 1
 384 768 l 1
 384 704 l 1
 320 704 l 1
128 704 m 1
 128 768 l 1
 192 768 l 1
 192 704 l 1
 128 704 l 1
EndSplineSet
Refer: 56 85 S 1 0 0 1 0 0 2
Validated: 98305
EndChar

StartChar: Yacute
Encoding: 221 221 159
Width: 640
GlyphClass: 2
Flags: W
LayerCount: 2
Fore
SplineSet
160 640 m 1
 288 768 l 1
 416 768 l 1
 288 640 l 1
 160 640 l 1
EndSplineSet
Refer: 60 89 S 1 0 0 1 0 0 2
Validated: 98305
EndChar

StartChar: Thorn
Encoding: 222 222 160
Width: 896
GlyphClass: 2
Flags: W
LayerCount: 2
Fore
SplineSet
256 -64 m 1,0,-1
 256 0 l 1,1,-1
 192 0 l 1,2,-1
 192 64 l 1,3,-1
 128 64 l 1,4,-1
 128 320 l 1,5,-1
 64 320 l 1,6,-1
 64 640 l 1,7,-1
 128 640 l 1,8,-1
 128 704 l 1,9,-1
 192 704 l 1,10,-1
 192 640 l 1,11,-1
 256 640 l 1,12,-1
 256 704 l 1,13,-1
 320 704 l 1,14,-1
 320 640 l 1,15,-1
 384 640 l 1,16,-1
 384 704 l 1,17,-1
 448 704 l 1,18,-1
 448 640 l 1,19,-1
 512 640 l 1,20,-1
 512 704 l 1,21,-1
 576 704 l 1,22,-1
 576 640 l 1,23,-1
 640 640 l 1,24,-1
 640 704 l 1,25,-1
 704 704 l 1,26,-1
 704 640 l 1,27,-1
 768 640 l 1,28,-1
 768 320 l 1,29,-1
 704 320 l 1,30,-1
 704 64 l 1,31,-1
 640 64 l 1,32,-1
 640 256 l 1,33,-1
 576 256 l 1,34,-1
 576 64 l 1,35,-1
 640 64 l 1,36,-1
 640 0 l 1,37,-1
 576 0 l 1,38,-1
 576 -64 l 1,39,-1
 256 -64 l 1,0,-1
512 64 m 1,40,-1
 512 256 l 1,41,-1
 448 256 l 1,42,-1
 448 64 l 1,43,-1
 512 64 l 1,40,-1
384 64 m 1,44,-1
 384 256 l 1,45,-1
 320 256 l 1,46,-1
 320 64 l 1,47,-1
 384 64 l 1,44,-1
256 64 m 1,48,-1
 256 256 l 1,49,-1
 192 256 l 1,50,-1
 192 64 l 1,51,-1
 256 64 l 1,48,-1
704 384 m 1,52,-1
 704 448 l 1,53,-1
 640 448 l 1,54,-1
 640 512 l 1,55,-1
 512 512 l 1,56,-1
 512 448 l 1,57,-1
 448 448 l 1,58,-1
 448 384 l 1,59,-1
 512 384 l 1,60,-1
 512 448 l 1,61,-1
 640 448 l 1,62,-1
 640 384 l 1,63,-1
 704 384 l 1,52,-1
384 384 m 1,64,-1
 384 448 l 1,65,-1
 320 448 l 1,66,-1
 320 512 l 1,67,-1
 192 512 l 1,68,-1
 192 448 l 1,69,-1
 128 448 l 1,70,-1
 128 384 l 1,71,-1
 192 384 l 1,72,-1
 192 448 l 1,73,-1
 320 448 l 1,74,-1
 320 384 l 1,75,-1
 384 384 l 1,64,-1
EndSplineSet
Validated: 5
EndChar

StartChar: germandbls
Encoding: 223 223 161
Width: 704
GlyphClass: 2
Flags: W
LayerCount: 2
Fore
SplineSet
256 0 m 1,0,-1
 256 128 l 1,1,-1
 448 128 l 1,2,-1
 448 256 l 1,3,-1
 320 256 l 1,4,-1
 256 320 l 1,5,-1
 256 384 l 1,6,-1
 448 576 l 1,7,-1
 448 640 l 1,8,-1
 256 640 l 1,9,-1
 192 576 l 1,10,-1
 192 0 l 1,11,-1
 64 0 l 1,12,-1
 64 640 l 1,13,-1
 192 768 l 1,14,-1
 512 768 l 1,15,-1
 576 704 l 1,16,-1
 576 512 l 1,17,-1
 480 416 l 1,18,-1
 576 320 l 1,19,-1
 576 64 l 1,20,-1
 512 0 l 1,21,-1
 256 0 l 1,0,-1
EndSplineSet
Validated: 1
EndChar

StartChar: agrave
Encoding: 224 224 162
Width: 640
GlyphClass: 2
Flags: W
LayerCount: 2
Fore
SplineSet
288 640 m 5
 160 768 l 5
 288 768 l 5
 416 640 l 5
 288 640 l 5
EndSplineSet
Refer: 68 97 N 1 0 0 1 0 0 2
Validated: 98305
EndChar

StartChar: aacute
Encoding: 225 225 163
Width: 640
GlyphClass: 2
Flags: W
LayerCount: 2
Fore
SplineSet
224 640 m 1
 352 768 l 1
 480 768 l 1
 352 640 l 1
 224 640 l 1
EndSplineSet
Refer: 68 97 N 1 0 0 1 0 0 2
Validated: 98305
EndChar

StartChar: acircumflex
Encoding: 226 226 164
Width: 640
GlyphClass: 2
Flags: W
LayerCount: 2
Fore
SplineSet
384 704 m 1
 384 640 l 1
 256 640 l 1
 256 704 l 1
 384 704 l 1
EndSplineSet
Refer: 68 97 S 1 0 0 1 0 0 2
Validated: 98305
EndChar

StartChar: atilde
Encoding: 227 227 165
Width: 640
GlyphClass: 2
Flags: W
LayerCount: 2
Fore
SplineSet
128 576 m 1029
64 576 m 21
 64 640 l 5
 128 704 l 5
 240 704 l 5
 304 640 l 5
 352 640 l 5
 384 672 l 5
 384 704 l 5
 448 704 l 5
 448 640 l 5
 384 576 l 5
 272 576 l 5
 208 640 l 5
 160 640 l 5
 128 608 l 5
 128 576 l 13
 64 576 l 21
EndSplineSet
Refer: 68 97 N 1 0 0 1 0 0 2
Validated: 98305
EndChar

StartChar: adieresis
Encoding: 228 228 166
Width: 640
GlyphClass: 2
Flags: W
LayerCount: 2
Fore
SplineSet
384 640 m 1
 384 704 l 1
 448 704 l 1
 448 640 l 1
 384 640 l 1
192 640 m 1
 192 704 l 1
 256 704 l 1
 256 640 l 1
 192 640 l 1
EndSplineSet
Refer: 68 97 S 1 0 0 1 0 0 2
Validated: 98305
EndChar

StartChar: aring
Encoding: 229 229 167
Width: 640
GlyphClass: 2
Flags: W
LayerCount: 2
Fore
SplineSet
256 688 m 9
 256 656 l 25
 272 640 l 17
 304 640 l 17
 320 656 l 9
 320 688 l 9
 304 704 l 17
 272 704 l 17
 256 688 l 9
320 576 m 9
 256 576 l 17
 192 640 l 1
 192 704 l 1
 256 768 l 1
 320 768 l 1
 384 704 l 1
 384 640 l 1
 320 576 l 9
EndSplineSet
Refer: 68 97 N 1 0 0 1 0 0 2
Validated: 98305
EndChar

StartChar: ae
Encoding: 230 230 168
Width: 960
GlyphClass: 2
Flags: W
LayerCount: 2
Fore
SplineSet
64 0 m 1,0,-1
 0 64 l 1,1,-1
 0 256 l 1,2,-1
 64 320 l 1,3,-1
 384 320 l 1,4,-1
 384 384 l 1,5,-1
 128 384 l 1,6,-1
 128 512 l 1,7,-1
 768 512 l 1,8,-1
 832 448 l 1,9,-1
 832 256 l 1,10,-1
 768 192 l 5,11,-1
 512 192 l 1,12,-1
 512 128 l 1,13,-1
 832 128 l 1,14,-1
 832 0 l 1,15,-1
 64 0 l 1,0,-1
384 128 m 1,16,-1
 384 192 l 1,17,-1
 128 192 l 1,18,-1
 128 128 l 1,19,-1
 384 128 l 1,16,-1
704 320 m 1,20,-1
 704 384 l 1,21,-1
 512 384 l 1,22,-1
 512 320 l 1,23,-1
 704 320 l 1,20,-1
EndSplineSet
Validated: 1
EndChar

StartChar: ccedilla
Encoding: 231 231 169
Width: 576
GlyphClass: 2
Flags: W
LayerCount: 2
Fore
SplineSet
288 -192 m 21
 192 -192 l 5
 192 -128 l 5
 256 -128 l 13
 288 -96 l 21
 256 -64 l 5
 192 -64 l 5
 128 0 l 13
 288 0 l 21
 352 -64 l 5
 352 -128 l 13
 288 -192 l 21
EndSplineSet
Refer: 70 99 N 1 0 0 1 0 0 2
Validated: 98309
EndChar

StartChar: egrave
Encoding: 232 232 170
Width: 640
GlyphClass: 2
Flags: W
LayerCount: 2
Fore
SplineSet
224 576 m 5
 96 704 l 5
 224 704 l 5
 352 576 l 5
 224 576 l 5
EndSplineSet
Refer: 72 101 N 1 0 0 1 0 0 2
Validated: 98305
EndChar

StartChar: eacute
Encoding: 233 233 171
Width: 640
GlyphClass: 2
Flags: W
LayerCount: 2
Fore
SplineSet
160 576 m 5
 288 704 l 5
 416 704 l 5
 288 576 l 5
 160 576 l 5
EndSplineSet
Refer: 72 101 N 1 0 0 1 0 0 2
Validated: 98305
EndChar

StartChar: ecircumflex
Encoding: 234 234 172
Width: 640
GlyphClass: 2
Flags: W
LayerCount: 2
Fore
SplineSet
320 640 m 1
 320 576 l 1
 192 576 l 1
 192 640 l 1
 320 640 l 1
EndSplineSet
Refer: 72 101 S 1 0 0 1 0 0 2
Validated: 98305
EndChar

StartChar: edieresis
Encoding: 235 235 173
Width: 640
GlyphClass: 2
Flags: W
LayerCount: 2
Fore
SplineSet
320 576 m 1
 320 640 l 1
 384 640 l 1
 384 576 l 1
 320 576 l 1
128 576 m 1
 128 640 l 1
 192 640 l 1
 192 576 l 1
 128 576 l 1
EndSplineSet
Refer: 72 101 S 1 0 0 1 0 0 2
Validated: 98305
EndChar

StartChar: igrave
Encoding: 236 236 174
Width: 256
GlyphClass: 2
Flags: W
LayerCount: 2
Fore
SplineSet
0 0 m 1,0,-1
 0 384 l 1,1,-1
 128 384 l 1,2,-1
 128 0 l 1,3,-1
 0 0 l 1,0,-1
64 512 m 5,4,-1
 -64 640 l 5,5,-1
 64 640 l 5,6,-1
 192 512 l 5,7,-1
 64 512 l 5,4,-1
EndSplineSet
Validated: 1
EndChar

StartChar: iacute
Encoding: 237 237 175
Width: 256
GlyphClass: 2
Flags: W
LayerCount: 2
Fore
SplineSet
0 0 m 1,0,-1
 0 384 l 1,1,-1
 128 384 l 1,2,-1
 128 0 l 1,3,-1
 0 0 l 1,0,-1
-64 512 m 5,4,-1
 64 640 l 5,5,-1
 192 640 l 5,6,-1
 64 512 l 5,7,-1
 -64 512 l 5,4,-1
EndSplineSet
Validated: 1
EndChar

StartChar: icircumflex
Encoding: 238 238 176
Width: 256
GlyphClass: 2
Flags: W
LayerCount: 2
Fore
SplineSet
0 0 m 1,0,-1
 0 384 l 1,1,-1
 128 384 l 1,2,-1
 128 0 l 1,3,-1
 0 0 l 1,0,-1
128 576 m 5,4,-1
 128 512 l 5,5,-1
 0 512 l 5,6,-1
 0 576 l 5,7,-1
 128 576 l 5,4,-1
EndSplineSet
Validated: 1
EndChar

StartChar: idieresis
Encoding: 239 239 177
Width: 256
GlyphClass: 2
Flags: W
LayerCount: 2
Fore
SplineSet
0 0 m 1,0,-1
 0 384 l 1,1,-1
 128 384 l 1,2,-1
 128 0 l 1,3,-1
 0 0 l 1,0,-1
128 512 m 1,4,-1
 128 576 l 1,5,-1
 192 576 l 1,6,-1
 192 512 l 1,7,-1
 128 512 l 1,4,-1
-64 512 m 1,8,-1
 -64 576 l 1,9,-1
 0 576 l 1,10,-1
 0 512 l 1,11,-1
 -64 512 l 1,8,-1
EndSplineSet
Validated: 1
EndChar

StartChar: eth
Encoding: 240 240 178
Width: 768
GlyphClass: 2
Flags: W
LayerCount: 2
Fore
SplineSet
320 -128 m 1,0,-1
 320 256 l 1,1,-1
 192 256 l 1,2,-1
 192 320 l 1,3,-1
 128 320 l 1,4,-1
 128 384 l 1,5,-1
 64 384 l 1,6,-1
 64 640 l 1,7,-1
 128 640 l 1,8,-1
 128 704 l 1,9,-1
 576 704 l 1,10,-1
 576 640 l 1,11,-1
 640 640 l 1,12,-1
 640 384 l 1,13,-1
 576 384 l 1,14,-1
 576 320 l 1,15,-1
 512 320 l 1,16,-1
 512 256 l 1,17,-1
 384 256 l 1,18,-1
 384 128 l 1,19,-1
 448 128 l 1,20,-1
 448 64 l 1,21,-1
 384 64 l 1,22,-1
 384 -128 l 1,23,-1
 320 -128 l 1,0,-1
576 192 m 1,24,-1
 576 128 l 1,25,-1
 448 128 l 1,26,-1
 448 192 l 1,27,-1
 576 192 l 1,24,-1
512 448 m 1,28,-1
 512 512 l 1,29,-1
 576 512 l 1,30,-1
 576 576 l 1,31,-1
 512 576 l 1,32,-1
 512 640 l 1,33,-1
 192 640 l 1,34,-1
 192 576 l 1,35,-1
 128 576 l 1,36,-1
 128 512 l 1,37,-1
 192 512 l 1,38,-1
 192 448 l 1,39,-1
 512 448 l 1,28,-1
448 576 m 1,40,-1
 448 512 l 1,41,-1
 256 512 l 1,42,-1
 256 576 l 1,43,-1
 448 576 l 1,40,-1
EndSplineSet
Validated: 5
EndChar

StartChar: ntilde
Encoding: 241 241 179
Width: 640
GlyphClass: 2
Flags: W
LayerCount: 2
Fore
SplineSet
128 576 m 1025
64 576 m 17
 64 640 l 1
 128 704 l 1
 240 704 l 1
 304 640 l 1
 352 640 l 1
 384 672 l 1
 384 704 l 1
 448 704 l 1
 448 640 l 1
 384 576 l 1
 272 576 l 1
 208 640 l 1
 160 640 l 1
 128 608 l 1
 128 576 l 9
 64 576 l 17
EndSplineSet
Refer: 81 110 S 1 0 0 1 0 0 2
Validated: 98305
EndChar

StartChar: ograve
Encoding: 242 242 180
Width: 640
GlyphClass: 2
Flags: W
LayerCount: 2
Fore
SplineSet
224 576 m 5
 96 704 l 5
 224 704 l 5
 352 576 l 5
 224 576 l 5
EndSplineSet
Refer: 82 111 N 1 0 0 1 0 0 2
Validated: 98305
EndChar

StartChar: oacute
Encoding: 243 243 181
Width: 640
GlyphClass: 2
Flags: W
LayerCount: 2
Fore
SplineSet
160 576 m 5
 288 704 l 5
 416 704 l 5
 288 576 l 5
 160 576 l 5
EndSplineSet
Refer: 82 111 N 1 0 0 1 0 0 2
Validated: 98305
EndChar

StartChar: ocircumflex
Encoding: 244 244 182
Width: 640
GlyphClass: 2
Flags: W
LayerCount: 2
Fore
SplineSet
320 640 m 1
 320 576 l 1
 192 576 l 1
 192 640 l 1
 320 640 l 1
EndSplineSet
Refer: 82 111 S 1 0 0 1 0 0 2
Validated: 98305
EndChar

StartChar: otilde
Encoding: 245 245 183
Width: 640
GlyphClass: 2
Flags: W
LayerCount: 2
Fore
SplineSet
128 576 m 1025
64 576 m 17
 64 640 l 1
 128 704 l 1
 240 704 l 1
 304 640 l 1
 352 640 l 1
 384 672 l 1
 384 704 l 1
 448 704 l 1
 448 640 l 1
 384 576 l 1
 272 576 l 1
 208 640 l 1
 160 640 l 1
 128 608 l 1
 128 576 l 9
 64 576 l 17
EndSplineSet
Refer: 82 111 S 1 0 0 1 0 0 2
Validated: 98305
EndChar

StartChar: odieresis
Encoding: 246 246 184
Width: 640
GlyphClass: 2
Flags: W
LayerCount: 2
Fore
SplineSet
320 576 m 1
 320 640 l 1
 384 640 l 1
 384 576 l 1
 320 576 l 1
128 576 m 1
 128 640 l 1
 192 640 l 1
 192 576 l 1
 128 576 l 1
EndSplineSet
Refer: 82 111 S 1 0 0 1 0 0 2
Validated: 98305
EndChar

StartChar: divide
Encoding: 247 247 185
Width: 640
GlyphClass: 2
Flags: W
LayerCount: 2
Fore
SplineSet
192 64 m 1,0,-1
 192 192 l 1,1,-1
 320 192 l 1,2,-1
 320 64 l 1,3,-1
 192 64 l 1,0,-1
0 256 m 1,4,-1
 0 384 l 1,5,-1
 512 384 l 1,6,-1
 512 256 l 1,7,-1
 0 256 l 1,4,-1
192 448 m 1,8,-1
 192 576 l 1,9,-1
 320 576 l 1,10,-1
 320 448 l 1,11,-1
 192 448 l 1,8,-1
EndSplineSet
Validated: 1
EndChar

StartChar: oslash
Encoding: 248 248 186
Width: 640
GlyphClass: 2
Flags: W
LayerCount: 2
Fore
SplineSet
512 448 m 13
 64 0 l 21
 0 0 l 5
 0 64 l 5
 448 512 l 5
 512 512 l 5
 512 448 l 13
EndSplineSet
Refer: 82 111 N 1 0 0 1 0 0 2
Validated: 98309
EndChar

StartChar: ugrave
Encoding: 249 249 187
Width: 640
GlyphClass: 2
Flags: W
LayerCount: 2
Fore
SplineSet
224 576 m 1
 96 704 l 1
 224 704 l 1
 352 576 l 1
 224 576 l 1
EndSplineSet
Refer: 88 117 S 1 0 0 1 0 0 2
Validated: 98305
EndChar

StartChar: uacute
Encoding: 250 250 188
Width: 640
GlyphClass: 2
Flags: W
LayerCount: 2
Fore
SplineSet
160 576 m 5
 288 704 l 5
 416 704 l 5
 288 576 l 5
 160 576 l 5
EndSplineSet
Refer: 88 117 N 1 0 0 1 0 0 2
Validated: 98305
EndChar

StartChar: ucircumflex
Encoding: 251 251 189
Width: 640
GlyphClass: 2
Flags: W
LayerCount: 2
Fore
SplineSet
320 640 m 1
 320 576 l 1
 192 576 l 1
 192 640 l 1
 320 640 l 1
EndSplineSet
Refer: 88 117 S 1 0 0 1 0 0 2
Validated: 98305
EndChar

StartChar: udieresis
Encoding: 252 252 190
Width: 640
GlyphClass: 2
Flags: W
LayerCount: 2
Fore
SplineSet
320 576 m 1
 320 640 l 1
 384 640 l 1
 384 576 l 1
 320 576 l 1
128 576 m 1
 128 640 l 1
 192 640 l 1
 192 576 l 1
 128 576 l 1
EndSplineSet
Refer: 88 117 S 1 0 0 1 0 0 2
Validated: 98305
EndChar

StartChar: yacute
Encoding: 253 253 191
Width: 640
GlyphClass: 2
Flags: W
LayerCount: 2
Fore
SplineSet
160 576 m 1
 288 704 l 1
 416 704 l 1
 288 576 l 1
 160 576 l 1
EndSplineSet
Refer: 92 121 S 1 0 0 1 0 0 2
Validated: 98305
EndChar

StartChar: thorn
Encoding: 254 254 192
Width: 960
GlyphClass: 2
Flags: W
LayerCount: 2
Fore
SplineSet
336 0 m 5,0,-1
 128 208 l 1,1,-1
 0 192 l 1,2,-1
 0 320 l 1,3,-1
 128 336 l 1,4,-1
 128 368 l 1,5,-1
 0 384 l 1,6,-1
 0 512 l 1,7,-1
 128 496 l 1,8,-1
 128 560 l 1,9,-1
 64 576 l 1,10,-1
 64 704 l 1,11,-1
 192 704 l 1,12,-1
 416 608 l 1,13,-1
 640 704 l 1,14,-1
 768 704 l 1,15,-1
 768 576 l 1,16,-1
 704 560 l 1,17,-1
 704 496 l 1,18,-1
 832 512 l 1,19,-1
 832 384 l 1,20,-1
 704 368 l 1,21,-1
 704 336 l 1,22,-1
 832 320 l 1,23,-1
 832 192 l 1,24,-1
 704 208 l 1,25,-1
 496 0 l 1,26,-1
 336 0 l 5,0,-1
576 192 m 17,27,-1
 576 256 l 1,28,-1
 512 256 l 1,29,-1
 512 224 l 1,30,-1
 480 192 l 1,31,-1
 352 192 l 1,32,-1
 320 224 l 1,33,-1
 320 256 l 1,34,-1
 256 256 l 1,35,-1
 256 192 l 1,36,-1
 320 128 l 1,37,-1
 512 128 l 9,38,-1
 576 192 l 17,27,-1
576 384 m 1,39,-1
 576 512 l 1,40,-1
 512 512 l 1,41,-1
 512 384 l 1,42,-1
 576 384 l 1,39,-1
320 384 m 1,43,-1
 320 512 l 1,44,-1
 256 512 l 1,45,-1
 256 384 l 1,46,-1
 320 384 l 1,43,-1
EndSplineSet
Validated: 1
EndChar

StartChar: ydieresis
Encoding: 255 255 193
Width: 640
GlyphClass: 2
Flags: W
LayerCount: 2
Fore
SplineSet
320 576 m 1
 320 640 l 1
 384 640 l 1
 384 576 l 1
 320 576 l 1
128 576 m 1
 128 640 l 1
 192 640 l 1
 192 576 l 1
 128 576 l 1
EndSplineSet
Refer: 92 121 S 1 0 0 1 0 0 2
Validated: 98305
EndChar

StartChar: Amacron
Encoding: 256 256 194
Width: 640
GlyphClass: 2
Flags: W
LayerCount: 2
Fore
SplineSet
384 768 m 1
 384 704 l 1
 128 704 l 1
 128 768 l 1
 384 768 l 1
EndSplineSet
Refer: 36 65 S 1 0 0 1 0 0 2
Validated: 98305
EndChar

StartChar: amacron
Encoding: 257 257 195
Width: 640
GlyphClass: 2
Flags: W
LayerCount: 2
Fore
SplineSet
448 640 m 1
 448 576 l 1
 192 576 l 1
 192 640 l 1
 448 640 l 1
EndSplineSet
Refer: 68 97 S 1 0 0 1 0 0 2
Validated: 98305
EndChar

StartChar: Aogonek
Encoding: 260 260 198
Width: 704
GlyphClass: 2
Flags: W
LayerCount: 2
Fore
SplineSet
512 -160 m 1029
480 -192 m 1029
512 -256 m 21
 320 -256 l 5
 256 -192 l 5
 256 -128 l 5
 384 0 l 29
 512 0 l 29
 352 -160 l 5
 384 -192 l 13
 480 -192 l 21
 512 -160 l 5
 512 -128 l 5
 576 -128 l 5
 576 -192 l 13
 512 -256 l 21
EndSplineSet
Refer: 36 65 N 1 0 0 1 0 0 2
Validated: 98309
EndChar

StartChar: aogonek
Encoding: 261 261 199
Width: 704
GlyphClass: 2
Flags: W
LayerCount: 2
Fore
SplineSet
512 -160 m 1029
480 -192 m 1029
512 -256 m 21
 320 -256 l 5
 256 -192 l 5
 256 -128 l 5
 384 0 l 29
 512 0 l 29
 352 -160 l 5
 384 -192 l 13
 480 -192 l 21
 512 -160 l 5
 512 -128 l 5
 576 -128 l 5
 576 -192 l 13
 512 -256 l 21
EndSplineSet
Refer: 68 97 N 1 0 0 1 0 0 2
Validated: 98309
EndChar

StartChar: Cacute
Encoding: 262 262 200
Width: 512
GlyphClass: 2
Flags: W
LayerCount: 2
Fore
SplineSet
128 640 m 1
 256 768 l 1
 416 768 l 5
 288 640 l 5
 128 640 l 1
EndSplineSet
Refer: 38 67 N 1 0 0 1 0 0 2
Validated: 98309
EndChar

StartChar: cacute
Encoding: 263 263 201
Width: 576
GlyphClass: 2
Flags: W
LayerCount: 2
Fore
SplineSet
160 576 m 1
 288 704 l 1
 416 704 l 1
 288 576 l 1
 160 576 l 1
EndSplineSet
Refer: 70 99 S 1 0 0 1 0 0 2
Validated: 98305
EndChar

StartChar: Ccircumflex
Encoding: 264 264 202
Width: 512
GlyphClass: 2
Flags: W
LayerCount: 2
Fore
SplineSet
320 768 m 1
 320 704 l 1
 192 704 l 1
 192 768 l 1
 320 768 l 1
EndSplineSet
Refer: 38 67 S 1 0 0 1 0 0 2
Validated: 98305
EndChar

StartChar: ccircumflex
Encoding: 265 265 203
Width: 576
GlyphClass: 2
Flags: W
LayerCount: 2
Fore
SplineSet
320 640 m 1
 320 576 l 1
 192 576 l 1
 192 640 l 1
 320 640 l 1
EndSplineSet
Refer: 70 99 S 1 0 0 1 0 0 2
Validated: 98305
EndChar

StartChar: Cdotaccent
Encoding: 266 266 204
Width: 512
GlyphClass: 2
Flags: W
LayerCount: 2
Fore
SplineSet
192 704 m 1
 192 768 l 1
 256 768 l 1
 256 704 l 1
 192 704 l 1
EndSplineSet
Refer: 38 67 S 1 0 0 1 0 0 2
Validated: 98305
EndChar

StartChar: cdotaccent
Encoding: 267 267 205
Width: 576
GlyphClass: 2
Flags: W
LayerCount: 2
Fore
SplineSet
192 576 m 1
 192 704 l 1
 320 704 l 1
 320 576 l 1
 192 576 l 1
EndSplineSet
Refer: 70 99 S 1 0 0 1 0 0 2
Validated: 98305
EndChar

StartChar: dcaron
Encoding: 271 271 209
Width: 832
GlyphClass: 2
Flags: W
LayerCount: 2
Fore
SplineSet
640 480 m 1029
608 448 m 1029
640 512 m 21
 576 512 l 5
 576 640 l 5
 704 640 l 5
 704 448 l 5
 640 384 l 5
 576 384 l 5
 576 448 l 5
 608 448 l 5
 640 480 l 13
 640 512 l 21
EndSplineSet
Refer: 71 100 N 1 0 0 1 0 0 2
Validated: 98305
EndChar

StartChar: dcroat
Encoding: 273 273 211
Width: 704
GlyphClass: 2
Flags: W
LayerCount: 2
Fore
SplineSet
128 0 m 5,0,-1
 0 128 l 5,1,-1
 0 384 l 1,2,-1
 128 512 l 1,3,-1
 320 512 l 1,4,-1
 384 448 l 1,5,-1
 384 576 l 1,6,-1
 256 576 l 1,7,-1
 256 640 l 1,8,-1
 384 640 l 1,9,-1
 384 768 l 1,10,-1
 512 768 l 1,11,-1
 512 640 l 1,12,-1
 576 640 l 1,13,-1
 576 576 l 1,14,-1
 512 576 l 1,15,-1
 512 0 l 1,16,-1
 128 0 l 5,0,-1
384 128 m 1,17,-1
 384 320 l 1,18,-1
 320 384 l 1,19,-1
 192 384 l 1,20,-1
 128 320 l 1,21,-1
 128 192 l 1,22,-1
 192 128 l 1,23,-1
 384 128 l 1,17,-1
EndSplineSet
Validated: 1
EndChar

StartChar: Emacron
Encoding: 274 274 212
Width: 512
GlyphClass: 2
Flags: W
LayerCount: 2
Fore
SplineSet
320 768 m 1
 320 704 l 1
 64 704 l 1
 64 768 l 1
 320 768 l 1
EndSplineSet
Refer: 40 69 S 1 0 0 1 0 0 2
Validated: 98305
EndChar

StartChar: emacron
Encoding: 275 275 213
Width: 640
GlyphClass: 2
Flags: W
LayerCount: 2
Fore
SplineSet
384 640 m 1
 384 576 l 1
 128 576 l 1
 128 640 l 1
 384 640 l 1
EndSplineSet
Refer: 72 101 S 1 0 0 1 0 0 2
Validated: 98305
EndChar

StartChar: Edotaccent
Encoding: 278 278 216
Width: 512
GlyphClass: 2
Flags: W
LayerCount: 2
Fore
SplineSet
256 640 m 9
 128 640 l 17
 128 768 l 1
 256 768 l 1
 256 640 l 9
EndSplineSet
Refer: 40 69 S 1 0 0 1 0 0 2
Validated: 98309
EndChar

StartChar: edotaccent
Encoding: 279 279 217
Width: 640
GlyphClass: 2
Flags: W
LayerCount: 2
Fore
SplineSet
192 576 m 1
 192 704 l 1
 320 704 l 1
 320 576 l 1
 192 576 l 1
EndSplineSet
Refer: 72 101 S 1 0 0 1 0 0 2
Validated: 98305
EndChar

StartChar: Eogonek
Encoding: 280 280 218
Width: 640
GlyphClass: 2
Flags: W
LayerCount: 2
Fore
SplineSet
320 -192 m 29
 416 -192 l 21
 448 -160 l 5
 448 -128 l 5
 512 -128 l 5
 512 -192 l 13
 448 -256 l 21
 256 -256 l 5
 192 -192 l 5
 192 -64 l 5
 256 0 l 29
 384 0 l 29
 288 -96 l 5
 288 -160 l 13
 320 -192 l 29
448 -160 m 1029
416 -192 m 1029
EndSplineSet
Refer: 40 69 N 1 0 0 1 0 0 2
Validated: 98309
EndChar

StartChar: eogonek
Encoding: 281 281 219
Width: 704
GlyphClass: 2
Flags: W
LayerCount: 2
Fore
SplineSet
384 -192 m 29
 480 -192 l 21
 512 -160 l 5
 512 -128 l 5
 576 -128 l 5
 576 -192 l 13
 512 -256 l 21
 320 -256 l 5
 256 -192 l 5
 256 -64 l 5
 320 0 l 29
 448 0 l 29
 352 -96 l 5
 352 -160 l 13
 384 -192 l 29
512 -160 m 1029
480 -192 m 1029
EndSplineSet
Refer: 72 101 N 1 0 0 1 0 0 2
Validated: 98309
EndChar

StartChar: Ecaron
Encoding: 282 282 220
Width: 512
GlyphClass: 2
Flags: W
LayerCount: 2
Fore
SplineSet
0 0 m 1,0,-1
 0 640 l 1,1,-1
 384 640 l 1,2,-1
 384 512 l 1,3,-1
 128 512 l 1,4,-1
 128 384 l 1,5,-1
 384 384 l 1,6,-1
 384 256 l 1,7,-1
 128 256 l 1,8,-1
 128 128 l 1,9,-1
 384 128 l 1,10,-1
 384 0 l 1,11,-1
 0 0 l 1,0,-1
256 768 m 1,12,-1
 256 704 l 1,13,-1
 128 704 l 1,14,-1
 128 768 l 1,15,-1
 256 768 l 1,12,-1
EndSplineSet
Validated: 1
EndChar

StartChar: ecaron
Encoding: 283 283 221
Width: 640
GlyphClass: 2
Flags: W
LayerCount: 2
Fore
SplineSet
384 768 m 21
 448 768 l 1
 448 704 l 1
 320 576 l 1
 192 576 l 1
 64 704 l 1
 64 768 l 1
 128 768 l 1
 128 736 l 1
 224 640 l 1
 288 640 l 1
 384 736 l 9
 384 768 l 21
EndSplineSet
Refer: 72 101 N 1 0 0 1 0 0 2
Validated: 98305
EndChar

StartChar: Gcircumflex
Encoding: 284 284 222
Width: 640
GlyphClass: 2
Flags: W
LayerCount: 2
Fore
SplineSet
384 768 m 1
 384 704 l 1
 256 704 l 1
 256 768 l 1
 384 768 l 1
EndSplineSet
Refer: 42 71 S 1 0 0 1 0 0 2
Validated: 98305
EndChar

StartChar: gcircumflex
Encoding: 285 285 223
Width: 640
GlyphClass: 2
Flags: W
LayerCount: 2
Fore
SplineSet
256 608 m 29
 256 576 l 21
 192 576 l 5
 192 640 l 5
 256 704 l 5
 384 704 l 5
 448 640 l 5
 448 576 l 5
 384 576 l 5
 384 608 l 5
 352 640 l 5
 288 640 l 13
 256 608 l 29
EndSplineSet
Refer: 74 103 N 1 0 0 1 0 0 2
Validated: 98305
EndChar

StartChar: Gdotaccent
Encoding: 288 288 226
Width: 640
GlyphClass: 2
Flags: W
LayerCount: 2
Fore
SplineSet
384 768 m 1
 384 704 l 1
 256 704 l 1
 256 768 l 1
 384 768 l 1
EndSplineSet
Refer: 42 71 S 1 0 0 1 0 0 2
Validated: 98305
EndChar

StartChar: gdotaccent
Encoding: 289 289 227
Width: 640
GlyphClass: 2
Flags: W
LayerCount: 2
Fore
SplineSet
256 576 m 1
 256 704 l 1
 384 704 l 1
 384 576 l 1
 256 576 l 1
EndSplineSet
Refer: 74 103 S 1 0 0 1 0 0 2
Validated: 98305
EndChar

StartChar: uni0122
Encoding: 290 290 228
Width: 640
GlyphClass: 2
Flags: W
LayerCount: 2
Fore
SplineSet
352 -192 m 1025
384 -160 m 1025
448 -192 m 9
 384 -256 l 17
 320 -256 l 1
 320 -192 l 1
 352 -192 l 1
 384 -160 l 1
 384 -128 l 1
 320 -128 l 1
 320 -64 l 1
 448 -64 l 1
 448 -192 l 9
EndSplineSet
Refer: 42 71 N 1 0 0 1 0 0 2
Validated: 98305
EndChar

StartChar: uni0123
Encoding: 291 291 229
Width: 640
GlyphClass: 2
Flags: W
LayerCount: 2
Fore
SplineSet
288 704 m 1025
256 672 m 1025
192 704 m 9
 256 768 l 17
 320 768 l 1
 320 704 l 1
 288 704 l 1
 256 672 l 1
 256 640 l 1
 320 640 l 1
 320 576 l 1
 192 576 l 1
 192 704 l 9
EndSplineSet
Refer: 74 103 N 1 0 0 1 0 0 2
Validated: 98305
EndChar

StartChar: Hcircumflex
Encoding: 292 292 230
Width: 640
GlyphClass: 2
Flags: W
LayerCount: 2
Fore
SplineSet
192 672 m 29
 192 640 l 21
 128 640 l 5
 128 704 l 5
 192 768 l 5
 320 768 l 5
 384 704 l 5
 384 640 l 5
 320 640 l 5
 320 672 l 5
 288 704 l 5
 224 704 l 13
 192 672 l 29
EndSplineSet
Refer: 43 72 N 1 0 0 1 0 0 2
Validated: 98309
EndChar

StartChar: hcircumflex
Encoding: 293 293 231
Width: 640
GlyphClass: 2
Flags: W
LayerCount: 2
Fore
SplineSet
256 672 m 25
 256 640 l 17
 192 640 l 1
 192 704 l 1
 256 768 l 1
 384 768 l 1
 448 704 l 1
 448 640 l 1
 384 640 l 1
 384 672 l 1
 352 704 l 1
 288 704 l 9
 256 672 l 25
EndSplineSet
Refer: 75 104 S 1 0 0 1 0 0 2
Validated: 98305
EndChar

StartChar: Hbar
Encoding: 294 294 232
Width: 704
GlyphClass: 2
Flags: W
LayerCount: 2
Fore
SplineSet
384 0 m 1,0,-1
 384 256 l 1,1,-1
 128 256 l 1,2,-1
 128 0 l 1,3,-1
 0 0 l 1,4,-1
 0 448 l 1,5,-1
 -64 448 l 1,6,-1
 -64 576 l 1,7,-1
 0 576 l 1,8,-1
 0 640 l 1,9,-1
 128 640 l 1,10,-1
 128 576 l 1,11,-1
 384 576 l 1,12,-1
 384 640 l 1,13,-1
 512 640 l 1,14,-1
 512 576 l 1,15,-1
 576 576 l 1,16,-1
 576 448 l 1,17,-1
 512 448 l 1,18,-1
 512 0 l 1,19,-1
 384 0 l 1,0,-1
384 384 m 1,20,-1
 384 448 l 1,21,-1
 128 448 l 1,22,-1
 128 384 l 1,23,-1
 384 384 l 1,20,-1
EndSplineSet
Validated: 1
EndChar

StartChar: hbar
Encoding: 295 295 233
Width: 640
GlyphClass: 2
Flags: W
LayerCount: 2
Fore
SplineSet
384 0 m 1,0,-1
 384 320 l 1,1,-1
 192 320 l 1,2,-1
 128 256 l 1,3,-1
 128 0 l 1,4,-1
 0 0 l 1,5,-1
 0 512 l 1,6,-1
 -64 512 l 1,7,-1
 -64 640 l 1,8,-1
 0 640 l 1,9,-1
 0 704 l 1,10,-1
 128 704 l 1,11,-1
 128 640 l 1,12,-1
 256 640 l 1,13,-1
 256 512 l 1,14,-1
 128 512 l 1,15,-1
 128 384 l 1,16,-1
 192 448 l 1,17,-1
 448 448 l 5,18,-1
 512 384 l 5,19,-1
 512 0 l 1,20,-1
 384 0 l 1,0,-1
EndSplineSet
Validated: 1
EndChar

StartChar: Itilde
Encoding: 296 296 234
Width: 512
GlyphClass: 2
Flags: W
LayerCount: 2
Fore
SplineSet
64 640 m 1029
0 640 m 21
 0 704 l 5
 64 768 l 5
 176 768 l 5
 240 704 l 5
 288 704 l 5
 320 736 l 5
 320 768 l 5
 384 768 l 5
 384 704 l 5
 320 640 l 5
 208 640 l 5
 144 704 l 5
 96 704 l 5
 64 672 l 5
 64 640 l 13
 0 640 l 21
EndSplineSet
Refer: 44 73 N 1 0 0 1 0 0 2
Validated: 98309
EndChar

StartChar: itilde
Encoding: 297 297 235
Width: 256
GlyphClass: 2
Flags: W
LayerCount: 2
Fore
SplineSet
0 0 m 1,0,-1
 0 384 l 1,1,-1
 128 384 l 1,2,-1
 128 0 l 1,3,-1
 0 0 l 1,0,-1
-64 512 m 1029,4,-1
-128 512 m 21,5,-1
 -128 576 l 5,6,-1
 -64 640 l 5,7,-1
 48 640 l 5,8,-1
 112 576 l 5,9,-1
 160 576 l 5,10,-1
 192 608 l 5,11,-1
 192 640 l 5,12,-1
 256 640 l 5,13,-1
 256 576 l 5,14,-1
 192 512 l 5,15,-1
 80 512 l 5,16,-1
 16 576 l 5,17,-1
 -32 576 l 5,18,-1
 -64 544 l 5,19,-1
 -64 512 l 13,20,-1
 -128 512 l 21,5,-1
EndSplineSet
Validated: 1
EndChar

StartChar: Imacron
Encoding: 298 298 236
Width: 512
GlyphClass: 2
Flags: W
LayerCount: 2
Fore
SplineSet
320 768 m 1
 320 704 l 1
 64 704 l 1
 64 768 l 1
 320 768 l 1
EndSplineSet
Refer: 44 73 S 1 0 0 1 0 0 2
Validated: 98305
EndChar

StartChar: imacron
Encoding: 299 299 237
Width: 320
GlyphClass: 2
Flags: W
LayerCount: 2
Fore
SplineSet
0 0 m 1,0,-1
 0 384 l 1,1,-1
 128 384 l 1,2,-1
 128 0 l 1,3,-1
 0 0 l 1,0,-1
192 576 m 5,4,-1
 192 512 l 5,5,-1
 -64 512 l 5,6,-1
 -64 576 l 5,7,-1
 192 576 l 5,4,-1
EndSplineSet
Validated: 1
EndChar

StartChar: Ibreve
Encoding: 300 300 238
Width: 512
GlyphClass: 2
Flags: W
LayerCount: 2
Fore
SplineSet
256 768 m 1
 256 704 l 1
 128 704 l 1
 128 768 l 1
 256 768 l 1
EndSplineSet
Refer: 44 73 S 1 0 0 1 0 0 2
Validated: 98305
EndChar

StartChar: ibreve
Encoding: 301 301 239
Width: 320
GlyphClass: 2
Flags: W
LayerCount: 2
Fore
SplineSet
0 0 m 1,0,-1
 0 384 l 1,1,-1
 128 384 l 1,2,-1
 128 0 l 1,3,-1
 0 0 l 1,0,-1
96 576 m 13,4,-1
 128 608 l 29,5,-1
 128 640 l 21,6,-1
 192 640 l 5,7,-1
 192 576 l 5,8,-1
 128 512 l 5,9,-1
 0 512 l 5,10,-1
 -64 576 l 5,11,-1
 -64 640 l 5,12,-1
 0 640 l 5,13,-1
 0 608 l 5,14,-1
 32 576 l 5,15,-1
 96 576 l 13,4,-1
EndSplineSet
Validated: 1
EndChar

StartChar: Iogonek
Encoding: 302 302 240
Width: 512
GlyphClass: 2
Flags: W
LayerCount: 2
Fore
SplineSet
192 -192 m 25
 288 -192 l 17
 320 -160 l 1
 320 -128 l 1
 384 -128 l 1
 384 -192 l 9
 320 -256 l 17
 128 -256 l 1
 64 -192 l 1
 64 -64 l 1
 128 0 l 29
 256 0 l 29
 160 -96 l 1
 160 -160 l 9
 192 -192 l 25
320 -160 m 1025
288 -192 m 1025
EndSplineSet
Refer: 44 73 N 1 0 0 1 0 0 2
Validated: 98309
EndChar

StartChar: iogonek
Encoding: 303 303 241
Width: 384
GlyphClass: 2
Flags: W
LayerCount: 2
Fore
SplineSet
64 -192 m 25
 160 -192 l 17
 192 -160 l 1
 192 -128 l 1
 256 -128 l 1
 256 -192 l 9
 192 -256 l 17
 0 -256 l 1
 -64 -192 l 1
 -64 -64 l 1
 0 0 l 25
 128 0 l 25
 32 -96 l 1
 32 -160 l 9
 64 -192 l 25
192 -160 m 1025
160 -192 m 1025
EndSplineSet
Refer: 76 105 S 1 0 0 1 0 0 2
Validated: 98309
EndChar

StartChar: Idotaccent
Encoding: 304 304 242
Width: 512
GlyphClass: 2
Flags: W
LayerCount: 2
Fore
SplineSet
256 768 m 1
 256 704 l 1
 128 704 l 1
 128 768 l 1
 256 768 l 1
EndSplineSet
Refer: 44 73 S 1 0 0 1 0 0 2
Validated: 98305
EndChar

StartChar: dotlessi
Encoding: 305 305 243
Width: 320
GlyphClass: 2
Flags: W
LayerCount: 2
Fore
SplineSet
64 0 m 1,0,-1
 64 576 l 1,1,-1
 192 576 l 1,2,-1
 192 0 l 1,3,-1
 64 0 l 1,0,-1
EndSplineSet
Validated: 1
EndChar

StartChar: Jcircumflex
Encoding: 308 308 246
Width: 640
GlyphClass: 2
Flags: W
LayerCount: 2
Fore
SplineSet
448 768 m 1
 448 704 l 1
 320 704 l 1
 320 768 l 1
 448 768 l 1
EndSplineSet
Refer: 45 74 S 1 0 0 1 0 0 2
Validated: 98305
EndChar

StartChar: jcircumflex
Encoding: 309 309 247
Width: 448
GlyphClass: 2
Flags: W
LayerCount: 2
Fore
SplineSet
128 496 m 25,0,-1
 128 448 l 17,1,-1
 64 448 l 1,2,-1
 64 560 l 9,3,-1
 144 640 l 17,4,-1
 240 640 l 1,5,-1
 320 560 l 1,6,-1
 320 448 l 1,7,-1
 256 448 l 1,8,-1
 256 496 l 1,9,-1
 224 528 l 1,10,-1
 160 528 l 9,11,-1
 128 496 l 25,0,-1
0 -256 m 1,12,-1
 0 -128 l 1,13,-1
 128 -128 l 1,14,-1
 128 384 l 1,15,-1
 256 384 l 1,16,-1
 256 -192 l 1,17,-1
 192 -256 l 1,18,-1
 0 -256 l 1,12,-1
EndSplineSet
Validated: 1
EndChar

StartChar: uni0136
Encoding: 310 310 248
Width: 640
GlyphClass: 2
Flags: W
LayerCount: 2
Fore
SplineSet
256 -160 m 1029
224 -192 m 1029
256 -128 m 21
 192 -128 l 5
 192 0 l 5
 320 0 l 5
 320 -192 l 5
 256 -256 l 5
 192 -256 l 5
 192 -192 l 5
 224 -192 l 5
 256 -160 l 13
 256 -128 l 21
EndSplineSet
Refer: 46 75 N 1 0 0 1 0 0 2
Validated: 98305
EndChar

StartChar: uni0137
Encoding: 311 311 249
Width: 576
GlyphClass: 2
Flags: W
LayerCount: 2
Fore
SplineSet
256 -160 m 1029
224 -192 m 1029
256 -128 m 21
 192 -128 l 5
 192 0 l 5
 320 0 l 5
 320 -192 l 5
 256 -256 l 5
 192 -256 l 5
 192 -192 l 5
 224 -192 l 5
 256 -160 l 13
 256 -128 l 21
EndSplineSet
Refer: 78 107 N 1 0 0 1 0 0 2
Validated: 98309
EndChar

StartChar: kgreenlandic
Encoding: 312 312 250
Width: 576
GlyphClass: 2
Flags: W
LayerCount: 2
Fore
SplineSet
320 0 m 5,0,-1
 192 128 l 5,1,-1
 128 128 l 5,2,-1
 128 0 l 5,3,-1
 0 0 l 5,4,-1
 0 448 l 5,5,-1
 128 448 l 5,6,-1
 128 256 l 5,7,-1
 320 448 l 5,8,-1
 448 448 l 5,9,-1
 448 384 l 5,10,-1
 277 224 l 5,11,-1
 448 64 l 5,12,-1
 448 0 l 5,13,-1
 320 0 l 5,0,-1
EndSplineSet
Validated: 1
EndChar

StartChar: Lacute
Encoding: 313 313 251
Width: 512
GlyphClass: 2
Flags: W
LayerCount: 2
Fore
SplineSet
0 0 m 1,0,-1
 0 640 l 1,1,-1
 128 768 l 1,2,-1
 256 768 l 5,3,-1
 128 640 l 5,4,-1
 128 128 l 1,5,-1
 384 128 l 1,6,-1
 384 0 l 1,7,-1
 0 0 l 1,0,-1
EndSplineSet
Validated: 1
EndChar

StartChar: lacute
Encoding: 314 314 252
Width: 384
GlyphClass: 2
Flags: W
LayerCount: 2
Fore
SplineSet
0 0 m 1,0,-1
 0 640 l 5,1,-1
 128 768 l 5,2,-1
 256 768 l 1,3,-1
 128 640 l 1,4,-1
 128 0 l 1,5,-1
 0 0 l 1,0,-1
EndSplineSet
Validated: 1
EndChar

StartChar: uni013B
Encoding: 315 315 253
Width: 512
GlyphClass: 2
Flags: W
LayerCount: 2
Fore
SplineSet
256 -160 m 1029
224 -192 m 1029
256 -128 m 21
 192 -128 l 5
 192 0 l 5
 320 0 l 5
 320 -192 l 5
 256 -256 l 5
 192 -256 l 5
 192 -192 l 5
 224 -192 l 5
 256 -160 l 13
 256 -128 l 21
EndSplineSet
Refer: 47 76 N 1 0 0 1 0 0 2
Validated: 98309
EndChar

StartChar: uni013C
Encoding: 316 316 254
Width: 320
GlyphClass: 2
Flags: W
LayerCount: 2
Fore
SplineSet
128 -160 m 1025
96 -192 m 1025
128 -128 m 17
 64 -128 l 1
 64 0 l 1
 192 0 l 1
 192 -192 l 1
 128 -256 l 1
 64 -256 l 1
 64 -192 l 1
 96 -192 l 1
 128 -160 l 9
 128 -128 l 17
EndSplineSet
Refer: 79 108 S 1 0 0 1 0 0 2
Validated: 98309
EndChar

StartChar: Lcaron
Encoding: 317 317 255
Width: 512
GlyphClass: 2
InSpiro: 1
Flags: W
LayerCount: 2
Fore
SplineSet
320 480 m 1025
  Spiro
    320 480 {
    0 0 z
  EndSpiro
288 448 m 1025
  Spiro
    288 448 {
    0 0 z
  EndSpiro
320 512 m 17
 256 512 l 1
 256 640 l 1
 384 640 l 1
 384 448 l 1
 320 384 l 1
 256 384 l 1
 256 448 l 1
 288 448 l 1
 320 480 l 9
 320 512 l 17
  Spiro
    320 512 v
    256 512 v
    256 640 v
    384 640 v
    384 448 v
    320 384 v
    256 384 v
    256 448 v
    288 448 v
    320 480 v
    0 0 z
  EndSpiro
EndSplineSet
Refer: 47 76 S 1 0 0 1 0 0 2
Validated: 98305
EndChar

StartChar: lcaron
Encoding: 318 318 256
Width: 448
GlyphClass: 2
Flags: W
LayerCount: 2
Fore
SplineSet
256 480 m 1025
  Spiro
    256 480 {
    0 0 z
  EndSpiro
224 448 m 1025
  Spiro
    224 448 {
    0 0 z
  EndSpiro
256 512 m 17
 192 512 l 1
 192 640 l 1
 320 640 l 1
 320 448 l 1
 256 384 l 1
 192 384 l 1
 192 448 l 1
 224 448 l 1
 256 480 l 9
 256 512 l 17
  Spiro
    256 512 v
    192 512 v
    192 640 v
    320 640 v
    320 448 v
    256 384 v
    192 384 v
    192 448 v
    224 448 v
    256 480 v
    0 0 z
  EndSpiro
EndSplineSet
Refer: 79 108 S 1 0 0 1 0 0 2
Validated: 98305
EndChar

StartChar: Ldot
Encoding: 319 319 257
Width: 512
GlyphClass: 2
Flags: W
LayerCount: 2
Fore
SplineSet
192 320 m 1
 192 448 l 1
 320 448 l 1
 320 320 l 1
 192 320 l 1
EndSplineSet
Refer: 47 76 S 1 0 0 1 0 0 2
Validated: 98305
EndChar

StartChar: ldot
Encoding: 320 320 258
Width: 448
GlyphClass: 2
Flags: W
LayerCount: 2
Fore
SplineSet
192 320 m 1
 192 448 l 1
 320 448 l 1
 320 320 l 1
 192 320 l 1
EndSplineSet
Refer: 79 108 S 1 0 0 1 0 0 2
Validated: 98305
EndChar

StartChar: Lslash
Encoding: 321 321 259
Width: 512
GlyphClass: 2
Flags: W
LayerCount: 2
Fore
SplineSet
0 256 m 17
 -64 256 l 1
 -64 320 l 1
 256 576 l 1
 320 576 l 1
 320 512 l 9
 0 256 l 17
EndSplineSet
Refer: 47 76 S 1 0 0 1 0 0 2
Validated: 98309
EndChar

StartChar: lslash
Encoding: 322 322 260
Width: 384
GlyphClass: 2
Flags: W
LayerCount: 2
Fore
SplineSet
192 512 m 17
 256 512 l 1
 256 448 l 1
 -64 192 l 1
 -128 192 l 1
 -128 256 l 9
 192 512 l 17
EndSplineSet
Refer: 79 108 S 1 0 0 1 0 0 2
Validated: 98309
EndChar

StartChar: Nacute
Encoding: 323 323 261
Width: 640
GlyphClass: 2
Flags: W
LayerCount: 2
Fore
SplineSet
160 640 m 1
 288 768 l 1
 416 768 l 1
 288 640 l 1
 160 640 l 1
EndSplineSet
Refer: 49 78 S 1 0 0 1 0 0 2
Validated: 98305
EndChar

StartChar: nacute
Encoding: 324 324 262
Width: 640
GlyphClass: 2
Flags: W
LayerCount: 2
Fore
SplineSet
160 576 m 1
 288 704 l 1
 416 704 l 1
 288 576 l 1
 160 576 l 1
EndSplineSet
Refer: 81 110 S 1 0 0 1 0 0 2
Validated: 98305
EndChar

StartChar: uni0145
Encoding: 325 325 263
Width: 640
GlyphClass: 2
Flags: W
LayerCount: 2
Fore
SplineSet
256 -160 m 1029
224 -192 m 1029
256 -128 m 21
 192 -128 l 5
 192 0 l 5
 320 0 l 5
 320 -192 l 5
 256 -256 l 5
 192 -256 l 5
 192 -192 l 5
 224 -192 l 5
 256 -160 l 13
 256 -128 l 21
EndSplineSet
Refer: 49 78 N 1 0 0 1 0 0 2
Validated: 98305
EndChar

StartChar: uni0146
Encoding: 326 326 264
Width: 640
GlyphClass: 2
Flags: W
LayerCount: 2
Fore
SplineSet
256 -160 m 1025
224 -192 m 1025
256 -128 m 17
 192 -128 l 1
 192 0 l 1
 320 0 l 1
 320 -192 l 1
 256 -256 l 1
 192 -256 l 1
 192 -192 l 1
 224 -192 l 1
 256 -160 l 9
 256 -128 l 17
EndSplineSet
Refer: 81 110 S 1 0 0 1 0 0 2
Validated: 98305
EndChar

StartChar: napostrophe
Encoding: 329 329 267
Width: 640
GlyphClass: 2
Flags: W
LayerCount: 2
Fore
SplineSet
0 608 m 1029
-32 576 m 1029
0 640 m 21
 -64 640 l 5
 -64 768 l 5
 64 768 l 5
 64 576 l 5
 0 512 l 5
 -64 512 l 5
 -64 576 l 5
 -32 576 l 5
 0 608 l 13
 0 640 l 21
EndSplineSet
Refer: 81 110 N 1 0 0 1 0 0 2
Validated: 98309
EndChar

StartChar: Eng
Encoding: 330 330 268
Width: 640
GlyphClass: 2
Flags: W
LayerCount: 2
Fore
SplineSet
448 -96 m 1025
416 -128 m 1025
512 0 m 17
 512 -128 l 1
 448 -192 l 1
 320 -192 l 1
 320 -128 l 1
 416 -128 l 1
 448 -96 l 1
 448 0 l 9
 512 0 l 17
EndSplineSet
Refer: 49 78 S 1 0 0 1 0 0 2
Validated: 98309
EndChar

StartChar: eng
Encoding: 331 331 269
Width: 640
GlyphClass: 2
Flags: W
LayerCount: 2
Fore
SplineSet
448 -96 m 1025
416 -128 m 1025
512 0 m 17
 512 -128 l 1
 448 -192 l 1
 320 -192 l 1
 320 -128 l 1
 416 -128 l 1
 448 -96 l 1
 448 0 l 9
 512 0 l 17
EndSplineSet
Refer: 81 110 S 1 0 0 1 0 0 2
Validated: 98309
EndChar

StartChar: Omacron
Encoding: 332 332 270
Width: 640
GlyphClass: 2
Flags: W
LayerCount: 2
Fore
SplineSet
384 768 m 1
 384 704 l 1
 128 704 l 1
 128 768 l 1
 384 768 l 1
EndSplineSet
Refer: 50 79 S 1 0 0 1 0 0 2
Validated: 98305
EndChar

StartChar: omacron
Encoding: 333 333 271
Width: 640
GlyphClass: 2
Flags: W
LayerCount: 2
Fore
SplineSet
384 640 m 1
 384 576 l 1
 128 576 l 1
 128 640 l 1
 384 640 l 1
EndSplineSet
Refer: 82 111 S 1 0 0 1 0 0 2
Validated: 98305
EndChar

StartChar: Ohungarumlaut
Encoding: 336 336 274
Width: 640
GlyphClass: 2
Flags: W
LayerCount: 2
Fore
SplineSet
288 640 m 1
 416 768 l 1
 512 768 l 1
 384 640 l 1
 288 640 l 1
128 640 m 1
 256 768 l 1
 352 768 l 5
 224 640 l 1
 128 640 l 1
EndSplineSet
Refer: 50 79 N 1 0 0 1 0 0 2
Validated: 98309
EndChar

StartChar: ohungarumlaut
Encoding: 337 337 275
Width: 640
GlyphClass: 2
Flags: W
LayerCount: 2
Fore
SplineSet
288 576 m 5
 416 704 l 5
 544 704 l 5
 416 576 l 5
 288 576 l 5
96 576 m 5
 224 704 l 5
 352 704 l 5
 224 576 l 5
 96 576 l 5
EndSplineSet
Refer: 82 111 N 1 0 0 1 0 0 2
Validated: 98305
EndChar

StartChar: Racute
Encoding: 340 340 278
Width: 640
GlyphClass: 2
Flags: W
LayerCount: 2
Fore
SplineSet
160 640 m 1
 288 768 l 1
 416 768 l 1
 288 640 l 1
 160 640 l 1
EndSplineSet
Refer: 53 82 S 1 0 0 1 0 0 2
Validated: 98309
EndChar

StartChar: racute
Encoding: 341 341 279
Width: 512
GlyphClass: 2
Flags: W
LayerCount: 2
Fore
SplineSet
32 576 m 5
 160 704 l 5
 288 704 l 5
 160 576 l 5
 32 576 l 5
EndSplineSet
Refer: 85 114 N 1 0 0 1 0 0 2
Validated: 98305
EndChar

StartChar: uni0156
Encoding: 342 342 280
Width: 640
GlyphClass: 2
Flags: W
LayerCount: 2
Fore
SplineSet
256 -160 m 1029
224 -192 m 1029
256 -128 m 21
 192 -128 l 5
 192 0 l 5
 320 0 l 5
 320 -192 l 5
 256 -256 l 5
 192 -256 l 5
 192 -192 l 5
 224 -192 l 5
 256 -160 l 13
 256 -128 l 21
EndSplineSet
Refer: 53 82 N 1 0 0 1 0 0 2
Validated: 98305
EndChar

StartChar: uni0157
Encoding: 343 343 281
Width: 512
GlyphClass: 2
Flags: W
LayerCount: 2
Fore
SplineSet
64 -160 m 1025
32 -192 m 1025
64 -128 m 17
 0 -128 l 1
 0 0 l 1
 128 0 l 1
 128 -192 l 1
 64 -256 l 1
 0 -256 l 1
 0 -192 l 1
 32 -192 l 1
 64 -160 l 9
 64 -128 l 17
EndSplineSet
Refer: 85 114 S 1 0 0 1 0 0 2
Validated: 98309
EndChar

StartChar: Sacute
Encoding: 346 346 284
Width: 640
GlyphClass: 2
Flags: W
LayerCount: 2
Fore
SplineSet
160 640 m 5
 288 768 l 5
 416 768 l 5
 288 640 l 5
 160 640 l 5
EndSplineSet
Refer: 54 83 S 1 0 0 1 0 0 2
Validated: 98309
EndChar

StartChar: sacute
Encoding: 347 347 285
Width: 640
GlyphClass: 2
Flags: W
LayerCount: 2
Fore
SplineSet
224 576 m 1
 352 704 l 1
 480 704 l 1
 352 576 l 1
 224 576 l 1
EndSplineSet
Refer: 86 115 S 1 0 0 1 0 0 2
Validated: 98305
EndChar

StartChar: Scircumflex
Encoding: 348 348 286
Width: 640
GlyphClass: 2
Flags: W
LayerCount: 2
Fore
SplineSet
320 768 m 1
 320 704 l 1
 192 704 l 1
 192 768 l 1
 320 768 l 1
EndSplineSet
Refer: 54 83 S 1 0 0 1 0 0 2
Validated: 98305
EndChar

StartChar: scircumflex
Encoding: 349 349 287
Width: 640
GlyphClass: 2
Flags: W
LayerCount: 2
Fore
SplineSet
256 608 m 29
 256 576 l 21
 192 576 l 5
 192 640 l 5
 256 704 l 5
 384 704 l 5
 448 640 l 5
 448 576 l 5
 384 576 l 5
 384 608 l 5
 352 640 l 5
 288 640 l 13
 256 608 l 29
EndSplineSet
Refer: 86 115 N 1 0 0 1 0 0 2
Validated: 98305
EndChar

StartChar: Scedilla
Encoding: 350 350 288
Width: 640
GlyphClass: 2
Flags: W
LayerCount: 2
Fore
SplineSet
256 0 m 9
 384 0 l 17
 384 -192 l 1
 128 -192 l 1
 128 -64 l 1
 256 -64 l 1
 256 0 l 9
EndSplineSet
Refer: 54 83 S 1 0 0 1 0 0 2
Validated: 98309
EndChar

StartChar: scedilla
Encoding: 351 351 289
Width: 640
GlyphClass: 2
Flags: W
LayerCount: 2
Fore
SplineSet
192 0 m 9
 320 0 l 17
 320 -192 l 1
 64 -192 l 1
 64 -64 l 1
 192 -64 l 1
 192 0 l 9
EndSplineSet
Refer: 86 115 S 1 0 0 1 0 0 2
Validated: 98309
EndChar

StartChar: Scaron
Encoding: 352 352 290
Width: 640
GlyphClass: 2
Flags: W
LayerCount: 2
Fore
SplineSet
320 768 m 1
 320 704 l 1
 192 704 l 1
 192 768 l 1
 320 768 l 1
EndSplineSet
Refer: 54 83 S 1 0 0 1 0 0 2
Validated: 98305
EndChar

StartChar: uni0162
Encoding: 354 354 292
Width: 512
GlyphClass: 2
Flags: W
LayerCount: 2
Fore
SplineSet
0 -192 m 1,0,-1
 0 -64 l 1,1,-1
 128 -64 l 1,2,-1
 128 512 l 1,3,-1
 0 512 l 1,4,-1
 0 640 l 1,5,-1
 384 640 l 1,6,-1
 384 512 l 1,7,-1
 256 512 l 1,8,-1
 256 -192 l 1,9,-1
 0 -192 l 1,0,-1
EndSplineSet
Validated: 1
EndChar

StartChar: uni0163
Encoding: 355 355 293
Width: 512
GlyphClass: 2
Flags: W
LayerCount: 2
Fore
SplineSet
128 -192 m 1,0,-1
 128 -64 l 1,1,-1
 256 -64 l 1,2,-1
 256 0 l 5,3,-1
 128 128 l 5,4,-1
 128 384 l 1,5,-1
 0 384 l 1,6,-1
 0 512 l 1,7,-1
 128 512 l 1,8,-1
 128 640 l 1,9,-1
 256 640 l 1,10,-1
 256 512 l 1,11,-1
 384 512 l 1,12,-1
 384 384 l 1,13,-1
 256 384 l 1,14,-1
 256 192 l 5,15,-1
 384 64 l 5,16,-1
 384 -192 l 1,17,-1
 128 -192 l 1,0,-1
EndSplineSet
Validated: 1
EndChar

StartChar: tcaron
Encoding: 357 357 295
Width: 640
GlyphClass: 2
Flags: W
LayerCount: 2
Fore
SplineSet
448 608 m 1029,0,-1
416 576 m 1029,1,-1
448 640 m 21,2,-1
 384 640 l 5,3,-1
 384 768 l 5,4,-1
 512 768 l 5,5,-1
 512 576 l 5,6,-1
 448 512 l 5,7,-1
 384 512 l 5,8,-1
 384 576 l 5,9,-1
 416 576 l 5,10,-1
 448 608 l 13,11,-1
 448 640 l 21,2,-1
256 0 m 1,12,-1
 128 128 l 1,13,-1
 128 384 l 1,14,-1
 0 384 l 1,15,-1
 0 512 l 1,16,-1
 128 512 l 1,17,-1
 128 640 l 1,18,-1
 256 640 l 1,19,-1
 256 512 l 1,20,-1
 384 512 l 1,21,-1
 384 384 l 1,22,-1
 256 384 l 1,23,-1
 256 192 l 1,24,-1
 384 64 l 1,25,-1
 384 0 l 1,26,-1
 256 0 l 1,12,-1
EndSplineSet
Validated: 5
EndChar

StartChar: Tbar
Encoding: 358 358 296
Width: 512
GlyphClass: 2
Flags: W
LayerCount: 2
Fore
SplineSet
128 0 m 1,0,-1
 128 320 l 1,1,-1
 64 320 l 1,2,-1
 64 384 l 1,3,-1
 128 384 l 1,4,-1
 128 512 l 1,5,-1
 0 512 l 1,6,-1
 0 640 l 1,7,-1
 384 640 l 1,8,-1
 384 512 l 1,9,-1
 256 512 l 1,10,-1
 256 384 l 1,11,-1
 320 384 l 1,12,-1
 320 320 l 1,13,-1
 256 320 l 1,14,-1
 256 0 l 1,15,-1
 128 0 l 1,0,-1
EndSplineSet
Validated: 1
EndChar

StartChar: tbar
Encoding: 359 359 297
Width: 512
GlyphClass: 2
Flags: W
LayerCount: 2
Fore
SplineSet
256 0 m 1,0,-1
 128 128 l 1,1,-1
 128 256 l 1,2,-1
 64 256 l 1,3,-1
 64 320 l 1,4,-1
 128 320 l 1,5,-1
 128 384 l 1,6,-1
 0 384 l 1,7,-1
 0 512 l 1,8,-1
 128 512 l 1,9,-1
 128 640 l 1,10,-1
 256 640 l 1,11,-1
 256 512 l 1,12,-1
 384 512 l 1,13,-1
 384 384 l 1,14,-1
 256 384 l 1,15,-1
 256 320 l 1,16,-1
 320 320 l 1,17,-1
 320 256 l 1,18,-1
 256 256 l 1,19,-1
 256 192 l 5,20,-1
 384 64 l 5,21,-1
 384 0 l 1,22,-1
 256 0 l 1,0,-1
EndSplineSet
Validated: 1
EndChar

StartChar: Utilde
Encoding: 360 360 298
Width: 640
GlyphClass: 2
Flags: W
LayerCount: 2
Fore
SplineSet
128 640 m 1025
64 640 m 17
 64 704 l 1
 128 768 l 1
 240 768 l 1
 304 704 l 1
 352 704 l 1
 384 736 l 1
 384 768 l 1
 448 768 l 1
 448 704 l 1
 384 640 l 1
 272 640 l 1
 208 704 l 1
 160 704 l 1
 128 672 l 1
 128 640 l 9
 64 640 l 17
EndSplineSet
Refer: 56 85 S 1 0 0 1 0 0 2
Validated: 98309
EndChar

StartChar: utilde
Encoding: 361 361 299
Width: 640
GlyphClass: 2
Flags: W
LayerCount: 2
Fore
SplineSet
128 576 m 1025
64 576 m 17
 64 640 l 1
 128 704 l 1
 240 704 l 1
 304 640 l 1
 352 640 l 1
 384 672 l 1
 384 704 l 1
 448 704 l 1
 448 640 l 1
 384 576 l 1
 272 576 l 1
 208 640 l 1
 160 640 l 1
 128 608 l 1
 128 576 l 9
 64 576 l 17
EndSplineSet
Refer: 88 117 S 1 0 0 1 0 0 2
Validated: 98305
EndChar

StartChar: Umacron
Encoding: 362 362 300
Width: 640
GlyphClass: 2
Flags: W
LayerCount: 2
Fore
SplineSet
384 768 m 1
 384 704 l 1
 128 704 l 1
 128 768 l 1
 384 768 l 1
EndSplineSet
Refer: 56 85 S 1 0 0 1 0 0 2
Validated: 98305
EndChar

StartChar: umacron
Encoding: 363 363 301
Width: 640
GlyphClass: 2
Flags: W
LayerCount: 2
Fore
SplineSet
384 640 m 1
 384 576 l 1
 128 576 l 1
 128 640 l 1
 384 640 l 1
EndSplineSet
Refer: 88 117 S 1 0 0 1 0 0 2
Validated: 98305
EndChar

StartChar: Uring
Encoding: 366 366 304
Width: 640
GlyphClass: 2
Flags: W
LayerCount: 2
Fore
SplineSet
288 576 m 13
 320 608 l 21
 320 672 l 5
 288 704 l 5
 224 704 l 5
 192 672 l 5
 192 608 l 5
 224 576 l 5
 288 576 l 13
320 512 m 21
 192 512 l 5
 128 576 l 5
 128 704 l 5
 192 768 l 5
 320 768 l 5
 384 704 l 5
 384 576 l 13
 320 512 l 21
EndSplineSet
Refer: 56 85 N 1 0 0 1 0 0 2
Validated: 98309
EndChar

StartChar: uring
Encoding: 367 367 305
Width: 640
GlyphClass: 2
Flags: W
LayerCount: 2
Fore
SplineSet
288 512 m 9
 320 544 l 17
 320 608 l 1
 288 640 l 1
 224 640 l 1
 192 608 l 1
 192 544 l 1
 224 512 l 1
 288 512 l 9
320 448 m 17
 192 448 l 1
 128 512 l 1
 128 640 l 1
 192 704 l 1
 320 704 l 1
 384 640 l 1
 384 512 l 9
 320 448 l 17
EndSplineSet
Refer: 88 117 S 1 0 0 1 0 0 2
Validated: 98309
EndChar

StartChar: Uhungarumlaut
Encoding: 368 368 306
Width: 640
GlyphClass: 2
Flags: W
LayerCount: 2
Fore
SplineSet
224 640 m 5
 352 768 l 5
 480 768 l 5
 352 640 l 5
 224 640 l 5
32 640 m 5
 160 768 l 5
 288 768 l 5
 160 640 l 5
 32 640 l 5
EndSplineSet
Refer: 56 85 N 1 0 0 1 0 0 2
Validated: 98309
EndChar

StartChar: uhungarumlaut
Encoding: 369 369 307
Width: 640
GlyphClass: 2
Flags: W
LayerCount: 2
Fore
SplineSet
224 576 m 1
 352 704 l 1
 480 704 l 1
 352 576 l 1
 224 576 l 1
32 576 m 1
 160 704 l 1
 288 704 l 1
 160 576 l 1
 32 576 l 1
EndSplineSet
Refer: 88 117 S 1 0 0 1 0 0 2
Validated: 98305
EndChar

StartChar: Uogonek
Encoding: 370 370 308
Width: 640
GlyphClass: 2
Flags: W
LayerCount: 2
Fore
SplineSet
256 -256 m 5
 192 -192 l 5
 192 0 l 5
 320 0 l 5
 320 -128 l 5
 448 -128 l 5
 448 -256 l 5
 256 -256 l 5
EndSplineSet
Refer: 56 85 N 1 0 0 1 0 0 2
Validated: 98309
EndChar

StartChar: uogonek
Encoding: 371 371 309
Width: 640
GlyphClass: 2
Flags: W
LayerCount: 2
Fore
SplineSet
320 -256 m 1
 256 -192 l 1
 256 0 l 1
 384 0 l 1
 384 -128 l 1
 512 -128 l 1
 512 -256 l 1
 320 -256 l 1
EndSplineSet
Refer: 88 117 S 1 0 0 1 0 0 2
Validated: 98309
EndChar

StartChar: Wcircumflex
Encoding: 372 372 310
Width: 768
GlyphClass: 2
Flags: W
LayerCount: 2
Fore
SplineSet
256 672 m 29
 256 640 l 21
 192 640 l 5
 192 704 l 5
 256 768 l 5
 384 768 l 5
 448 704 l 5
 448 640 l 5
 384 640 l 5
 384 672 l 5
 352 704 l 5
 288 704 l 13
 256 672 l 29
EndSplineSet
Refer: 58 87 N 1 0 0 1 0 0 2
Validated: 98305
EndChar

StartChar: wcircumflex
Encoding: 373 373 311
Width: 768
GlyphClass: 2
Flags: W
LayerCount: 2
Fore
SplineSet
256 608 m 29
 256 576 l 21
 192 576 l 5
 192 640 l 5
 256 704 l 5
 384 704 l 5
 448 640 l 5
 448 576 l 5
 384 576 l 5
 384 608 l 5
 352 640 l 5
 288 640 l 13
 256 608 l 29
EndSplineSet
Refer: 90 119 N 1 0 0 1 0 0 2
Validated: 98305
EndChar

StartChar: Ycircumflex
Encoding: 374 374 312
Width: 640
GlyphClass: 2
Flags: W
LayerCount: 2
Fore
SplineSet
192 672 m 29
 192 640 l 21
 128 640 l 5
 128 704 l 5
 192 768 l 5
 320 768 l 5
 384 704 l 5
 384 640 l 5
 320 640 l 5
 320 672 l 5
 288 704 l 5
 224 704 l 13
 192 672 l 29
EndSplineSet
Refer: 60 89 N 1 0 0 1 0 0 2
Validated: 98309
EndChar

StartChar: ycircumflex
Encoding: 375 375 313
Width: 640
GlyphClass: 2
Flags: W
LayerCount: 2
Fore
SplineSet
192 608 m 25
 192 576 l 17
 128 576 l 1
 128 640 l 1
 192 704 l 1
 320 704 l 1
 384 640 l 1
 384 576 l 1
 320 576 l 1
 320 608 l 1
 288 640 l 1
 224 640 l 9
 192 608 l 25
EndSplineSet
Refer: 92 121 S 1 0 0 1 0 0 2
Validated: 98305
EndChar

StartChar: Ydieresis
Encoding: 376 376 314
Width: 640
GlyphClass: 2
Flags: W
LayerCount: 2
Fore
SplineSet
384 768 m 1
 384 704 l 1
 128 704 l 1
 128 768 l 1
 384 768 l 1
EndSplineSet
Refer: 60 89 S 1 0 0 1 0 0 2
Validated: 98305
EndChar

StartChar: Zacute
Encoding: 377 377 315
Width: 512
GlyphClass: 2
Flags: W
LayerCount: 2
Fore
SplineSet
96 640 m 1
 224 768 l 1
 352 768 l 1
 224 640 l 1
 96 640 l 1
EndSplineSet
Refer: 61 90 S 1 0 0 1 0 0 2
Validated: 98309
EndChar

StartChar: zacute
Encoding: 378 378 316
Width: 640
GlyphClass: 2
Flags: W
LayerCount: 2
Fore
SplineSet
160 576 m 1
 288 704 l 1
 416 704 l 1
 288 576 l 1
 160 576 l 1
EndSplineSet
Refer: 93 122 S 1 0 0 1 0 0 2
Validated: 98305
EndChar

StartChar: Zdotaccent
Encoding: 379 379 317
Width: 512
GlyphClass: 2
Flags: W
LayerCount: 2
Fore
SplineSet
256 768 m 1
 256 704 l 1
 128 704 l 1
 128 768 l 1
 256 768 l 1
EndSplineSet
Refer: 61 90 S 1 0 0 1 0 0 2
Validated: 98305
EndChar

StartChar: zdotaccent
Encoding: 380 380 318
Width: 640
GlyphClass: 2
Flags: W
LayerCount: 2
Fore
SplineSet
192 576 m 1
 192 704 l 1
 320 704 l 1
 320 576 l 1
 192 576 l 1
EndSplineSet
Refer: 93 122 S 1 0 0 1 0 0 2
Validated: 98305
EndChar

StartChar: uni0400
Encoding: 1024 1024 321
Width: 512
GlyphClass: 2
Flags: W
LayerCount: 2
Fore
SplineSet
0 0 m 1,0,-1
 0 640 l 1,1,-1
 128 640 l 1,2,-1
 128 704 l 1,3,-1
 64 704 l 1,4,-1
 64 768 l 1,5,-1
 192 768 l 1,6,-1
 192 704 l 1,7,-1
 256 704 l 1,8,-1
 256 640 l 1,9,-1
 384 640 l 1,10,-1
 384 512 l 1,11,-1
 128 512 l 1,12,-1
 128 384 l 1,13,-1
 384 384 l 1,14,-1
 384 256 l 1,15,-1
 128 256 l 1,16,-1
 128 128 l 1,17,-1
 384 128 l 1,18,-1
 384 0 l 1,19,-1
 0 0 l 1,0,-1
EndSplineSet
Validated: 1
EndChar

StartChar: uni0401
Encoding: 1025 1025 322
Width: 512
GlyphClass: 2
Flags: W
LayerCount: 2
Fore
SplineSet
256 704 m 1,0,-1
 256 768 l 1,1,-1
 320 768 l 1,2,-1
 320 704 l 1,3,-1
 256 704 l 1,0,-1
128 704 m 1,4,-1
 128 768 l 1,5,-1
 192 768 l 1,6,-1
 192 704 l 1,7,-1
 128 704 l 1,4,-1
0 0 m 1,8,-1
 0 640 l 1,9,-1
 384 640 l 1,10,-1
 384 512 l 1,11,-1
 128 512 l 1,12,-1
 128 384 l 1,13,-1
 384 384 l 1,14,-1
 384 256 l 1,15,-1
 128 256 l 1,16,-1
 128 128 l 1,17,-1
 384 128 l 1,18,-1
 384 0 l 1,19,-1
 0 0 l 1,8,-1
EndSplineSet
Validated: 1
EndChar

StartChar: uni0402
Encoding: 1026 1026 323
Width: 896
GlyphClass: 2
Flags: W
LayerCount: 2
Fore
SplineSet
512 0 m 1,0,-1
 512 128 l 1,1,-1
 640 128 l 1,2,-1
 640 320 l 1,3,-1
 512 320 l 1,4,-1
 512 256 l 1,5,-1
 448 256 l 1,6,-1
 448 192 l 1,7,-1
 384 192 l 1,8,-1
 384 128 l 1,9,-1
 320 128 l 1,10,-1
 320 0 l 1,11,-1
 192 0 l 1,12,-1
 192 512 l 1,13,-1
 0 512 l 1,14,-1
 0 640 l 1,15,-1
 512 640 l 1,16,-1
 512 512 l 1,17,-1
 320 512 l 1,18,-1
 320 320 l 1,19,-1
 384 320 l 1,20,-1
 384 384 l 1,21,-1
 448 384 l 1,22,-1
 448 448 l 1,23,-1
 704 448 l 1,24,-1
 704 384 l 1,25,-1
 768 384 l 1,26,-1
 768 64 l 1,27,-1
 704 64 l 1,28,-1
 704 0 l 1,29,-1
 512 0 l 1,0,-1
EndSplineSet
Validated: 1
EndChar

StartChar: uni0403
Encoding: 1027 1027 324
Width: 704
GlyphClass: 2
Flags: W
LayerCount: 2
Fore
SplineSet
64 0 m 1,0,-1
 64 576 l 1,1,-1
 576 576 l 1,2,-1
 576 448 l 1,3,-1
 192 448 l 1,4,-1
 192 0 l 1,5,-1
 64 0 l 1,0,-1
192 640 m 1,6,-1
 192 704 l 1,7,-1
 256 704 l 1,8,-1
 256 768 l 1,9,-1
 384 768 l 1,10,-1
 384 704 l 1,11,-1
 320 704 l 1,12,-1
 320 640 l 1,13,-1
 192 640 l 1,6,-1
EndSplineSet
Validated: 1
EndChar

StartChar: uni0404
Encoding: 1028 1028 325
Width: 512
GlyphClass: 2
Flags: W
LayerCount: 2
Fore
SplineSet
128 0 m 1,0,-1
 128 64 l 1,1,-1
 64 64 l 1,2,-1
 64 128 l 1,3,-1
 0 128 l 1,4,-1
 0 512 l 1,5,-1
 64 512 l 1,6,-1
 64 576 l 1,7,-1
 128 576 l 1,8,-1
 128 640 l 1,9,-1
 384 640 l 1,10,-1
 384 512 l 1,11,-1
 192 512 l 1,12,-1
 192 448 l 1,13,-1
 128 448 l 1,14,-1
 128 384 l 1,15,-1
 384 384 l 1,16,-1
 384 256 l 1,17,-1
 128 256 l 1,18,-1
 128 192 l 1,19,-1
 192 192 l 1,20,-1
 192 128 l 1,21,-1
 384 128 l 1,22,-1
 384 0 l 1,23,-1
 128 0 l 1,0,-1
EndSplineSet
Validated: 1
EndChar

StartChar: uni0405
Encoding: 1029 1029 326
Width: 640
GlyphClass: 2
Flags: W
LayerCount: 2
Fore
SplineSet
64 0 m 1,0,-1
 64 64 l 1,1,-1
 0 64 l 1,2,-1
 0 192 l 1,3,-1
 128 192 l 1,4,-1
 128 128 l 1,5,-1
 384 128 l 1,6,-1
 384 256 l 1,7,-1
 64 256 l 1,8,-1
 64 320 l 1,9,-1
 0 320 l 1,10,-1
 0 576 l 1,11,-1
 64 576 l 1,12,-1
 64 640 l 1,13,-1
 448 640 l 1,14,-1
 448 576 l 1,15,-1
 512 576 l 1,16,-1
 512 448 l 1,17,-1
 384 448 l 1,18,-1
 384 512 l 1,19,-1
 128 512 l 1,20,-1
 128 384 l 1,21,-1
 448 384 l 1,22,-1
 448 320 l 1,23,-1
 512 320 l 1,24,-1
 512 64 l 1,25,-1
 448 64 l 1,26,-1
 448 0 l 1,27,-1
 64 0 l 1,0,-1
EndSplineSet
Validated: 1
EndChar

StartChar: uni0406
Encoding: 1030 1030 327
Width: 512
GlyphClass: 2
Flags: W
LayerCount: 2
Fore
SplineSet
0 0 m 1,0,-1
 0 128 l 1,1,-1
 128 128 l 1,2,-1
 128 512 l 1,3,-1
 0 512 l 1,4,-1
 0 640 l 1,5,-1
 384 640 l 1,6,-1
 384 512 l 1,7,-1
 256 512 l 1,8,-1
 256 128 l 1,9,-1
 384 128 l 1,10,-1
 384 0 l 1,11,-1
 0 0 l 1,0,-1
EndSplineSet
Validated: 1
EndChar

StartChar: uni0407
Encoding: 1031 1031 328
Width: 512
GlyphClass: 2
Flags: W
LayerCount: 2
Fore
SplineSet
256 704 m 1,0,-1
 256 768 l 1,1,-1
 320 768 l 1,2,-1
 320 704 l 1,3,-1
 256 704 l 1,0,-1
64 704 m 1,4,-1
 64 768 l 1,5,-1
 128 768 l 1,6,-1
 128 704 l 1,7,-1
 64 704 l 1,4,-1
0 0 m 1,8,-1
 0 128 l 1,9,-1
 128 128 l 1,10,-1
 128 512 l 1,11,-1
 0 512 l 1,12,-1
 0 640 l 1,13,-1
 384 640 l 1,14,-1
 384 512 l 1,15,-1
 256 512 l 1,16,-1
 256 128 l 1,17,-1
 384 128 l 1,18,-1
 384 0 l 1,19,-1
 0 0 l 1,8,-1
EndSplineSet
Validated: 1
EndChar

StartChar: uni0408
Encoding: 1032 1032 329
Width: 640
GlyphClass: 2
Flags: W
LayerCount: 2
Fore
SplineSet
64 0 m 1,0,-1
 64 64 l 1,1,-1
 0 64 l 1,2,-1
 0 192 l 1,3,-1
 128 192 l 1,4,-1
 128 128 l 1,5,-1
 320 128 l 1,6,-1
 320 512 l 1,7,-1
 192 512 l 1,8,-1
 192 640 l 1,9,-1
 512 640 l 1,10,-1
 512 512 l 1,11,-1
 448 512 l 1,12,-1
 448 64 l 1,13,-1
 384 64 l 1,14,-1
 384 0 l 1,15,-1
 64 0 l 1,0,-1
EndSplineSet
Validated: 1
EndChar

StartChar: uni0409
Encoding: 1033 1033 330
Width: 1024
GlyphClass: 2
Flags: W
LayerCount: 2
Fore
SplineSet
448 0 m 1,0,-1
 448 512 l 1,1,-1
 256 512 l 1,2,-1
 256 64 l 1,3,-1
 192 64 l 1,4,-1
 192 0 l 1,5,-1
 0 0 l 1,6,-1
 0 128 l 1,7,-1
 128 128 l 1,8,-1
 128 640 l 1,9,-1
 576 640 l 1,10,-1
 576 448 l 1,11,-1
 832 448 l 1,12,-1
 832 384 l 1,13,-1
 896 384 l 1,14,-1
 896 64 l 1,15,-1
 832 64 l 1,16,-1
 832 0 l 1,17,-1
 448 0 l 1,0,-1
768 128 m 1,18,-1
 768 320 l 1,19,-1
 576 320 l 1,20,-1
 576 128 l 1,21,-1
 768 128 l 1,18,-1
EndSplineSet
Validated: 1
EndChar

StartChar: uni040A
Encoding: 1034 1034 331
Width: 896
GlyphClass: 2
Flags: W
LayerCount: 2
Fore
SplineSet
320 0 m 1,0,-1
 320 256 l 1,1,-1
 128 256 l 1,2,-1
 128 0 l 1,3,-1
 0 0 l 1,4,-1
 0 640 l 1,5,-1
 128 640 l 1,6,-1
 128 384 l 1,7,-1
 320 384 l 1,8,-1
 320 640 l 1,9,-1
 448 640 l 1,10,-1
 448 448 l 1,11,-1
 704 448 l 1,12,-1
 704 384 l 1,13,-1
 768 384 l 1,14,-1
 768 64 l 1,15,-1
 704 64 l 1,16,-1
 704 0 l 1,17,-1
 320 0 l 1,0,-1
640 128 m 1,18,-1
 640 320 l 1,19,-1
 448 320 l 1,20,-1
 448 128 l 1,21,-1
 640 128 l 1,18,-1
EndSplineSet
Validated: 1
EndChar

StartChar: uni040B
Encoding: 1035 1035 332
Width: 704
GlyphClass: 2
Flags: W
LayerCount: 2
Fore
SplineSet
448 0 m 1,0,-1
 448 256 l 1,1,-1
 256 256 l 1,2,-1
 256 0 l 1,3,-1
 128 0 l 1,4,-1
 128 512 l 1,5,-1
 0 512 l 1,6,-1
 0 640 l 1,7,-1
 384 640 l 1,8,-1
 384 512 l 1,9,-1
 256 512 l 1,10,-1
 256 384 l 1,11,-1
 512 384 l 1,12,-1
 512 320 l 1,13,-1
 576 320 l 1,14,-1
 576 0 l 1,15,-1
 448 0 l 1,0,-1
EndSplineSet
Validated: 1
EndChar

StartChar: uni040C
Encoding: 1036 1036 333
Width: 640
GlyphClass: 2
Flags: W
LayerCount: 2
Fore
SplineSet
192 640 m 1,0,-1
 192 704 l 1,1,-1
 256 704 l 1,2,-1
 256 768 l 1,3,-1
 384 768 l 1,4,-1
 384 704 l 1,5,-1
 320 704 l 1,6,-1
 320 640 l 1,7,-1
 192 640 l 1,0,-1
384 0 m 1,8,-1
 384 64 l 1,9,-1
 320 64 l 1,10,-1
 320 128 l 1,11,-1
 256 128 l 1,12,-1
 256 192 l 1,13,-1
 192 192 l 1,14,-1
 192 256 l 1,15,-1
 128 256 l 1,16,-1
 128 0 l 1,17,-1
 0 0 l 1,18,-1
 0 640 l 1,19,-1
 128 640 l 1,20,-1
 128 384 l 1,21,-1
 192 384 l 1,22,-1
 192 448 l 1,23,-1
 256 448 l 1,24,-1
 256 512 l 1,25,-1
 320 512 l 1,26,-1
 320 576 l 1,27,-1
 384 576 l 1,28,-1
 384 640 l 1,29,-1
 512 640 l 1,30,-1
 512 512 l 1,31,-1
 448 512 l 1,32,-1
 448 448 l 1,33,-1
 384 448 l 1,34,-1
 384 384 l 1,35,-1
 320 384 l 1,36,-1
 320 256 l 1,37,-1
 384 256 l 1,38,-1
 384 192 l 1,39,-1
 448 192 l 1,40,-1
 448 128 l 1,41,-1
 512 128 l 1,42,-1
 512 0 l 1,43,-1
 384 0 l 1,8,-1
EndSplineSet
Validated: 1
EndChar

StartChar: uni040D
Encoding: 1037 1037 334
Width: 640
GlyphClass: 2
Flags: W
LayerCount: 2
Fore
SplineSet
384 0 m 1,0,-1
 384 384 l 1,1,-1
 320 384 l 1,2,-1
 320 320 l 1,3,-1
 256 320 l 1,4,-1
 256 256 l 1,5,-1
 192 256 l 1,6,-1
 192 192 l 1,7,-1
 128 192 l 1,8,-1
 128 0 l 1,9,-1
 0 0 l 1,10,-1
 0 640 l 1,11,-1
 128 640 l 1,12,-1
 128 384 l 1,13,-1
 192 384 l 1,14,-1
 192 448 l 1,15,-1
 256 448 l 1,16,-1
 256 512 l 1,17,-1
 320 512 l 1,18,-1
 320 576 l 1,19,-1
 384 576 l 1,20,-1
 384 640 l 1,21,-1
 512 640 l 1,22,-1
 512 0 l 1,23,-1
 384 0 l 1,0,-1
192 640 m 1,24,-1
 192 704 l 1,25,-1
 128 704 l 1,26,-1
 128 768 l 1,27,-1
 256 768 l 1,28,-1
 256 704 l 1,29,-1
 320 704 l 1,30,-1
 320 640 l 1,31,-1
 192 640 l 1,24,-1
EndSplineSet
Validated: 1
EndChar

StartChar: uni040E
Encoding: 1038 1038 335
Width: 640
GlyphClass: 2
Flags: W
LayerCount: 2
Fore
SplineSet
320 704 m 1,0,-1
 320 640 l 1,1,-1
 192 640 l 1,2,-1
 192 704 l 1,3,-1
 320 704 l 1,0,-1
320 704 m 1,4,-1
 320 768 l 1,5,-1
 384 768 l 1,6,-1
 384 704 l 1,7,-1
 320 704 l 1,4,-1
192 704 m 1,8,-1
 128 704 l 1,9,-1
 128 768 l 1,10,-1
 192 768 l 1,11,-1
 192 704 l 1,8,-1
64 0 m 1,12,-1
 64 128 l 1,13,-1
 384 128 l 1,14,-1
 384 256 l 1,15,-1
 64 256 l 1,16,-1
 64 320 l 1,17,-1
 0 320 l 1,18,-1
 0 640 l 1,19,-1
 128 640 l 1,20,-1
 128 384 l 1,21,-1
 384 384 l 1,22,-1
 384 640 l 1,23,-1
 512 640 l 1,24,-1
 512 64 l 1,25,-1
 448 64 l 1,26,-1
 448 0 l 1,27,-1
 64 0 l 1,12,-1
EndSplineSet
Validated: 5
EndChar

StartChar: uni040F
Encoding: 1039 1039 336
Width: 640
GlyphClass: 2
Flags: W
LayerCount: 2
Fore
SplineSet
192 -192 m 1,0,-1
 192 0 l 1,1,-1
 0 0 l 1,2,-1
 0 576 l 1,3,-1
 128 576 l 1,4,-1
 128 128 l 1,5,-1
 384 128 l 1,6,-1
 384 576 l 1,7,-1
 512 576 l 1,8,-1
 512 0 l 1,9,-1
 320 0 l 1,10,-1
 320 -192 l 1,11,-1
 192 -192 l 1,0,-1
EndSplineSet
Validated: 1
EndChar

StartChar: uni0410
Encoding: 1040 1040 337
Width: 640
GlyphClass: 2
Flags: W
LayerCount: 2
Fore
SplineSet
384 0 m 1,0,-1
 384 128 l 1,1,-1
 128 128 l 1,2,-1
 128 0 l 1,3,-1
 0 0 l 1,4,-1
 0 512 l 1,5,-1
 64 512 l 1,6,-1
 64 576 l 1,7,-1
 128 576 l 1,8,-1
 128 640 l 1,9,-1
 384 640 l 1,10,-1
 384 576 l 1,11,-1
 448 576 l 1,12,-1
 448 512 l 1,13,-1
 512 512 l 1,14,-1
 512 0 l 1,15,-1
 384 0 l 1,0,-1
384 256 m 1,16,-1
 384 448 l 1,17,-1
 320 448 l 1,18,-1
 320 512 l 1,19,-1
 192 512 l 1,20,-1
 192 448 l 1,21,-1
 128 448 l 1,22,-1
 128 256 l 1,23,-1
 384 256 l 1,16,-1
EndSplineSet
Validated: 1
EndChar

StartChar: uni0411
Encoding: 1041 1041 338
Width: 704
GlyphClass: 2
Flags: W
LayerCount: 2
Fore
SplineSet
0 0 m 1,0,-1
 0 640 l 1,1,-1
 448 640 l 1,2,-1
 448 512 l 1,3,-1
 128 512 l 1,4,-1
 128 384 l 1,5,-1
 512 384 l 1,6,-1
 512 320 l 1,7,-1
 576 320 l 1,8,-1
 576 64 l 1,9,-1
 512 64 l 1,10,-1
 512 0 l 1,11,-1
 0 0 l 1,0,-1
448 128 m 1,12,-1
 448 256 l 1,13,-1
 128 256 l 1,14,-1
 128 128 l 1,15,-1
 448 128 l 1,12,-1
EndSplineSet
Validated: 1
EndChar

StartChar: uni0412
Encoding: 1042 1042 339
Width: 640
GlyphClass: 2
Flags: W
LayerCount: 2
Fore
SplineSet
0 0 m 1,0,-1
 0 640 l 1,1,-1
 384 640 l 1,2,-1
 384 576 l 1,3,-1
 448 576 l 1,4,-1
 448 320 l 1,5,-1
 512 320 l 1,6,-1
 512 64 l 1,7,-1
 448 64 l 1,8,-1
 448 0 l 1,9,-1
 0 0 l 1,0,-1
384 128 m 1,10,-1
 384 256 l 1,11,-1
 128 256 l 1,12,-1
 128 128 l 1,13,-1
 384 128 l 1,10,-1
320 384 m 1,14,-1
 320 512 l 1,15,-1
 128 512 l 1,16,-1
 128 384 l 1,17,-1
 320 384 l 1,14,-1
EndSplineSet
Validated: 1
EndChar

StartChar: uni0413
Encoding: 1043 1043 340
Width: 640
GlyphClass: 2
Flags: W
LayerCount: 2
Fore
SplineSet
0 0 m 1,0,-1
 0 640 l 1,1,-1
 512 640 l 1,2,-1
 512 512 l 1,3,-1
 128 512 l 1,4,-1
 128 0 l 1,5,-1
 0 0 l 1,0,-1
EndSplineSet
Validated: 1
EndChar

StartChar: uni0414
Encoding: 1044 1044 341
Width: 768
GlyphClass: 2
Flags: W
LayerCount: 2
Fore
SplineSet
512 -192 m 1,0,-1
 512 -64 l 1,1,-1
 128 -64 l 1,2,-1
 128 -192 l 1,3,-1
 0 -192 l 1,4,-1
 0 64 l 1,5,-1
 64 64 l 1,6,-1
 64 320 l 1,7,-1
 128 320 l 1,8,-1
 128 576 l 1,9,-1
 192 576 l 1,10,-1
 192 640 l 1,11,-1
 576 640 l 1,12,-1
 576 64 l 1,13,-1
 640 64 l 1,14,-1
 640 -192 l 1,15,-1
 512 -192 l 1,0,-1
448 64 m 1,16,-1
 448 512 l 1,17,-1
 256 512 l 1,18,-1
 256 256 l 1,19,-1
 192 256 l 1,20,-1
 192 64 l 1,21,-1
 448 64 l 1,16,-1
EndSplineSet
Validated: 1
EndChar

StartChar: uni0415
Encoding: 1045 1045 342
Width: 512
GlyphClass: 2
Flags: W
LayerCount: 2
Fore
SplineSet
0 0 m 1,0,-1
 0 640 l 1,1,-1
 384 640 l 1,2,-1
 384 512 l 1,3,-1
 128 512 l 1,4,-1
 128 384 l 1,5,-1
 384 384 l 1,6,-1
 384 256 l 1,7,-1
 128 256 l 1,8,-1
 128 128 l 1,9,-1
 384 128 l 1,10,-1
 384 0 l 1,11,-1
 0 0 l 1,0,-1
EndSplineSet
Validated: 1
EndChar

StartChar: uni0416
Encoding: 1046 1046 343
Width: 1024
GlyphClass: 2
Flags: W
LayerCount: 2
Fore
SplineSet
768 0 m 1,0,-1
 768 64 l 1,1,-1
 704 64 l 1,2,-1
 704 128 l 1,3,-1
 640 128 l 1,4,-1
 640 192 l 1,5,-1
 576 192 l 1,6,-1
 576 256 l 1,7,-1
 512 256 l 1,8,-1
 512 0 l 1,9,-1
 384 0 l 1,10,-1
 384 256 l 1,11,-1
 320 256 l 1,12,-1
 320 192 l 1,13,-1
 256 192 l 1,14,-1
 256 128 l 1,15,-1
 192 128 l 1,16,-1
 192 64 l 1,17,-1
 128 64 l 1,18,-1
 128 0 l 1,19,-1
 0 0 l 1,20,-1
 0 128 l 1,21,-1
 64 128 l 1,22,-1
 64 192 l 1,23,-1
 128 192 l 1,24,-1
 128 256 l 1,25,-1
 192 256 l 1,26,-1
 192 384 l 1,27,-1
 128 384 l 1,28,-1
 128 448 l 1,29,-1
 64 448 l 1,30,-1
 64 512 l 1,31,-1
 0 512 l 1,32,-1
 0 640 l 1,33,-1
 128 640 l 1,34,-1
 128 576 l 1,35,-1
 192 576 l 1,36,-1
 192 512 l 1,37,-1
 256 512 l 1,38,-1
 256 448 l 1,39,-1
 320 448 l 1,40,-1
 320 384 l 1,41,-1
 384 384 l 1,42,-1
 384 640 l 1,43,-1
 512 640 l 1,44,-1
 512 384 l 1,45,-1
 576 384 l 1,46,-1
 576 448 l 1,47,-1
 640 448 l 1,48,-1
 640 512 l 1,49,-1
 704 512 l 1,50,-1
 704 576 l 1,51,-1
 768 576 l 1,52,-1
 768 640 l 1,53,-1
 896 640 l 1,54,-1
 896 512 l 1,55,-1
 832 512 l 1,56,-1
 832 448 l 1,57,-1
 768 448 l 1,58,-1
 768 384 l 1,59,-1
 704 384 l 1,60,-1
 704 256 l 1,61,-1
 768 256 l 1,62,-1
 768 192 l 1,63,-1
 832 192 l 1,64,-1
 832 128 l 1,65,-1
 896 128 l 1,66,-1
 896 0 l 1,67,-1
 768 0 l 1,0,-1
EndSplineSet
Validated: 1
EndChar

StartChar: uni0417
Encoding: 1047 1047 344
Width: 640
GlyphClass: 2
Flags: W
LayerCount: 2
Fore
SplineSet
0 0 m 1,0,-1
 0 128 l 1,1,-1
 320 128 l 1,2,-1
 320 256 l 1,3,-1
 128 256 l 1,4,-1
 128 384 l 1,5,-1
 320 384 l 1,6,-1
 320 512 l 1,7,-1
 0 512 l 1,8,-1
 0 640 l 1,9,-1
 384 640 l 1,10,-1
 384 576 l 1,11,-1
 448 576 l 1,12,-1
 448 512 l 1,13,-1
 512 512 l 1,14,-1
 512 384 l 1,15,-1
 448 384 l 1,16,-1
 448 256 l 1,17,-1
 512 256 l 1,18,-1
 512 128 l 1,19,-1
 448 128 l 1,20,-1
 448 64 l 1,21,-1
 384 64 l 1,22,-1
 384 0 l 1,23,-1
 0 0 l 1,0,-1
EndSplineSet
Validated: 1
EndChar

StartChar: uni0418
Encoding: 1048 1048 345
Width: 640
GlyphClass: 2
Flags: W
LayerCount: 2
Fore
SplineSet
384 0 m 1,0,-1
 384 384 l 1,1,-1
 320 384 l 1,2,-1
 320 320 l 1,3,-1
 256 320 l 1,4,-1
 256 256 l 1,5,-1
 192 256 l 1,6,-1
 192 192 l 1,7,-1
 128 192 l 1,8,-1
 128 0 l 1,9,-1
 0 0 l 1,10,-1
 0 640 l 1,11,-1
 128 640 l 1,12,-1
 128 384 l 1,13,-1
 192 384 l 1,14,-1
 192 448 l 1,15,-1
 256 448 l 1,16,-1
 256 512 l 1,17,-1
 320 512 l 1,18,-1
 320 576 l 1,19,-1
 384 576 l 1,20,-1
 384 640 l 1,21,-1
 512 640 l 1,22,-1
 512 0 l 1,23,-1
 384 0 l 1,0,-1
EndSplineSet
Validated: 1
EndChar

StartChar: uni0419
Encoding: 1049 1049 346
Width: 640
GlyphClass: 2
Flags: W
LayerCount: 2
Fore
SplineSet
384 0 m 1,0,-1
 384 384 l 1,1,-1
 320 384 l 1,2,-1
 320 320 l 1,3,-1
 256 320 l 1,4,-1
 256 256 l 1,5,-1
 192 256 l 1,6,-1
 192 192 l 1,7,-1
 128 192 l 1,8,-1
 128 0 l 1,9,-1
 0 0 l 1,10,-1
 0 640 l 1,11,-1
 128 640 l 1,12,-1
 128 384 l 1,13,-1
 192 384 l 1,14,-1
 192 448 l 1,15,-1
 256 448 l 1,16,-1
 256 512 l 1,17,-1
 320 512 l 1,18,-1
 320 576 l 1,19,-1
 384 576 l 1,20,-1
 384 640 l 1,21,-1
 512 640 l 1,22,-1
 512 0 l 1,23,-1
 384 0 l 1,0,-1
320 704 m 1,24,-1
 320 640 l 1,25,-1
 192 640 l 1,26,-1
 192 704 l 1,27,-1
 320 704 l 1,24,-1
320 704 m 1,28,-1
 320 768 l 1,29,-1
 384 768 l 1,30,-1
 384 704 l 1,31,-1
 320 704 l 1,28,-1
192 704 m 1,32,-1
 128 704 l 1,33,-1
 128 768 l 1,34,-1
 192 768 l 1,35,-1
 192 704 l 1,32,-1
EndSplineSet
Validated: 5
EndChar

StartChar: uni041A
Encoding: 1050 1050 347
Width: 640
GlyphClass: 2
Flags: W
LayerCount: 2
Fore
SplineSet
384 0 m 1,0,-1
 384 64 l 1,1,-1
 320 64 l 1,2,-1
 320 128 l 1,3,-1
 256 128 l 1,4,-1
 256 192 l 1,5,-1
 192 192 l 1,6,-1
 192 256 l 1,7,-1
 128 256 l 1,8,-1
 128 0 l 1,9,-1
 0 0 l 1,10,-1
 0 640 l 1,11,-1
 128 640 l 1,12,-1
 128 384 l 1,13,-1
 192 384 l 1,14,-1
 192 448 l 1,15,-1
 256 448 l 1,16,-1
 256 512 l 1,17,-1
 320 512 l 1,18,-1
 320 576 l 1,19,-1
 384 576 l 1,20,-1
 384 640 l 1,21,-1
 512 640 l 1,22,-1
 512 512 l 1,23,-1
 448 512 l 1,24,-1
 448 448 l 1,25,-1
 384 448 l 1,26,-1
 384 384 l 1,27,-1
 320 384 l 1,28,-1
 320 256 l 1,29,-1
 384 256 l 1,30,-1
 384 192 l 1,31,-1
 448 192 l 1,32,-1
 448 128 l 1,33,-1
 512 128 l 1,34,-1
 512 0 l 1,35,-1
 384 0 l 1,0,-1
EndSplineSet
Validated: 1
EndChar

StartChar: uni041B
Encoding: 1051 1051 348
Width: 704
GlyphClass: 2
Flags: W
LayerCount: 2
Fore
SplineSet
448 0 m 1,0,-1
 448 512 l 1,1,-1
 256 512 l 1,2,-1
 256 64 l 1,3,-1
 192 64 l 1,4,-1
 192 0 l 1,5,-1
 0 0 l 1,6,-1
 0 128 l 1,7,-1
 128 128 l 1,8,-1
 128 640 l 1,9,-1
 576 640 l 1,10,-1
 576 0 l 1,11,-1
 448 0 l 1,0,-1
EndSplineSet
Validated: 1
EndChar

StartChar: uni041C
Encoding: 1052 1052 349
Width: 768
GlyphClass: 2
Flags: W
LayerCount: 2
Fore
SplineSet
512 0 m 1,0,-1
 512 384 l 1,1,-1
 448 384 l 1,2,-1
 448 320 l 1,3,-1
 384 320 l 1,4,-1
 384 256 l 1,5,-1
 256 256 l 1,6,-1
 256 320 l 1,7,-1
 192 320 l 1,8,-1
 192 384 l 1,9,-1
 128 384 l 1,10,-1
 128 0 l 1,11,-1
 0 0 l 1,12,-1
 0 640 l 1,13,-1
 128 640 l 1,14,-1
 128 576 l 1,15,-1
 192 576 l 1,16,-1
 192 512 l 1,17,-1
 256 512 l 1,18,-1
 256 448 l 1,19,-1
 384 448 l 1,20,-1
 384 512 l 1,21,-1
 448 512 l 1,22,-1
 448 576 l 1,23,-1
 512 576 l 1,24,-1
 512 640 l 1,25,-1
 640 640 l 1,26,-1
 640 0 l 1,27,-1
 512 0 l 1,0,-1
EndSplineSet
Validated: 1
EndChar

StartChar: uni041D
Encoding: 1053 1053 350
Width: 640
GlyphClass: 2
Flags: W
LayerCount: 2
Fore
SplineSet
384 0 m 1,0,-1
 384 256 l 1,1,-1
 128 256 l 1,2,-1
 128 0 l 1,3,-1
 0 0 l 1,4,-1
 0 640 l 1,5,-1
 128 640 l 1,6,-1
 128 384 l 1,7,-1
 384 384 l 1,8,-1
 384 640 l 1,9,-1
 512 640 l 1,10,-1
 512 0 l 1,11,-1
 384 0 l 1,0,-1
EndSplineSet
Validated: 1
EndChar

StartChar: uni041E
Encoding: 1054 1054 351
Width: 640
GlyphClass: 2
Flags: W
LayerCount: 2
Fore
SplineSet
128 0 m 1,0,-1
 128 64 l 1,1,-1
 64 64 l 1,2,-1
 64 128 l 1,3,-1
 0 128 l 1,4,-1
 0 512 l 1,5,-1
 64 512 l 1,6,-1
 64 576 l 1,7,-1
 128 576 l 1,8,-1
 128 640 l 1,9,-1
 384 640 l 1,10,-1
 384 576 l 1,11,-1
 448 576 l 1,12,-1
 448 512 l 1,13,-1
 512 512 l 1,14,-1
 512 128 l 1,15,-1
 448 128 l 1,16,-1
 448 64 l 1,17,-1
 384 64 l 1,18,-1
 384 0 l 1,19,-1
 128 0 l 1,0,-1
320 128 m 1,20,-1
 320 192 l 1,21,-1
 384 192 l 1,22,-1
 384 448 l 1,23,-1
 320 448 l 1,24,-1
 320 512 l 1,25,-1
 192 512 l 1,26,-1
 192 448 l 1,27,-1
 128 448 l 1,28,-1
 128 192 l 1,29,-1
 192 192 l 1,30,-1
 192 128 l 1,31,-1
 320 128 l 1,20,-1
EndSplineSet
Validated: 1
EndChar

StartChar: uni041F
Encoding: 1055 1055 352
Width: 640
GlyphClass: 2
Flags: W
LayerCount: 2
Fore
SplineSet
384 0 m 1,0,-1
 384 512 l 1,1,-1
 128 512 l 1,2,-1
 128 0 l 1,3,-1
 0 0 l 1,4,-1
 0 640 l 1,5,-1
 512 640 l 1,6,-1
 512 0 l 1,7,-1
 384 0 l 1,0,-1
EndSplineSet
Validated: 1
EndChar

StartChar: uni0420
Encoding: 1056 1056 353
Width: 640
GlyphClass: 2
Flags: W
LayerCount: 2
Fore
SplineSet
0 0 m 1,0,-1
 0 640 l 1,1,-1
 384 640 l 1,2,-1
 384 576 l 1,3,-1
 448 576 l 1,4,-1
 448 512 l 1,5,-1
 512 512 l 1,6,-1
 512 256 l 1,7,-1
 448 256 l 1,8,-1
 448 192 l 1,9,-1
 384 192 l 1,10,-1
 384 128 l 1,11,-1
 128 128 l 1,12,-1
 128 0 l 1,13,-1
 0 0 l 1,0,-1
320 256 m 1,14,-1
 320 320 l 1,15,-1
 384 320 l 1,16,-1
 384 448 l 1,17,-1
 320 448 l 1,18,-1
 320 512 l 1,19,-1
 128 512 l 1,20,-1
 128 256 l 1,21,-1
 320 256 l 1,14,-1
EndSplineSet
Validated: 1
EndChar

StartChar: uni0421
Encoding: 1057 1057 354
Width: 512
GlyphClass: 2
Flags: W
LayerCount: 2
Fore
SplineSet
128 0 m 1,0,-1
 128 64 l 1,1,-1
 64 64 l 1,2,-1
 64 128 l 1,3,-1
 0 128 l 1,4,-1
 0 512 l 1,5,-1
 64 512 l 1,6,-1
 64 576 l 1,7,-1
 128 576 l 1,8,-1
 128 640 l 1,9,-1
 384 640 l 1,10,-1
 384 512 l 1,11,-1
 192 512 l 1,12,-1
 192 448 l 1,13,-1
 128 448 l 1,14,-1
 128 192 l 1,15,-1
 192 192 l 1,16,-1
 192 128 l 1,17,-1
 384 128 l 1,18,-1
 384 0 l 1,19,-1
 128 0 l 1,0,-1
EndSplineSet
Validated: 1
EndChar

StartChar: uni0422
Encoding: 1058 1058 355
Width: 512
GlyphClass: 2
Flags: W
LayerCount: 2
Fore
SplineSet
128 0 m 1,0,-1
 128 512 l 1,1,-1
 0 512 l 1,2,-1
 0 640 l 1,3,-1
 384 640 l 1,4,-1
 384 512 l 1,5,-1
 256 512 l 1,6,-1
 256 0 l 1,7,-1
 128 0 l 1,0,-1
EndSplineSet
Validated: 1
EndChar

StartChar: uni0423
Encoding: 1059 1059 356
Width: 640
GlyphClass: 2
Flags: W
LayerCount: 2
Fore
SplineSet
64 0 m 1,0,-1
 64 128 l 1,1,-1
 384 128 l 1,2,-1
 384 256 l 1,3,-1
 64 256 l 1,4,-1
 64 320 l 1,5,-1
 0 320 l 1,6,-1
 0 640 l 1,7,-1
 128 640 l 1,8,-1
 128 384 l 1,9,-1
 384 384 l 1,10,-1
 384 640 l 1,11,-1
 512 640 l 1,12,-1
 512 64 l 1,13,-1
 448 64 l 1,14,-1
 448 0 l 1,15,-1
 64 0 l 1,0,-1
EndSplineSet
Validated: 1
EndChar

StartChar: uni0424
Encoding: 1060 1060 357
Width: 768
GlyphClass: 2
Flags: W
LayerCount: 2
Fore
SplineSet
256 0 m 1,0,-1
 256 64 l 1,1,-1
 128 64 l 1,2,-1
 128 128 l 1,3,-1
 64 128 l 1,4,-1
 64 192 l 1,5,-1
 0 192 l 1,6,-1
 0 448 l 1,7,-1
 64 448 l 1,8,-1
 64 512 l 1,9,-1
 128 512 l 1,10,-1
 128 576 l 1,11,-1
 256 576 l 1,12,-1
 256 640 l 1,13,-1
 384 640 l 1,14,-1
 384 576 l 1,15,-1
 512 576 l 1,16,-1
 512 512 l 1,17,-1
 576 512 l 1,18,-1
 576 448 l 1,19,-1
 640 448 l 1,20,-1
 640 192 l 1,21,-1
 576 192 l 1,22,-1
 576 128 l 1,23,-1
 512 128 l 1,24,-1
 512 64 l 1,25,-1
 384 64 l 1,26,-1
 384 0 l 1,27,-1
 256 0 l 1,0,-1
448 192 m 1,28,-1
 448 256 l 1,29,-1
 512 256 l 1,30,-1
 512 384 l 1,31,-1
 448 384 l 1,32,-1
 448 448 l 1,33,-1
 384 448 l 1,34,-1
 384 192 l 1,35,-1
 448 192 l 1,28,-1
256 192 m 1,36,-1
 256 448 l 1,37,-1
 192 448 l 1,38,-1
 192 384 l 1,39,-1
 128 384 l 1,40,-1
 128 256 l 1,41,-1
 192 256 l 1,42,-1
 192 192 l 1,43,-1
 256 192 l 1,36,-1
EndSplineSet
Validated: 1
EndChar

StartChar: uni0425
Encoding: 1061 1061 358
Width: 640
GlyphClass: 2
Flags: W
LayerCount: 2
Fore
SplineSet
384 0 m 1,0,-1
 384 192 l 1,1,-1
 320 192 l 1,2,-1
 320 256 l 1,3,-1
 192 256 l 1,4,-1
 192 192 l 1,5,-1
 128 192 l 1,6,-1
 128 0 l 1,7,-1
 0 0 l 1,8,-1
 0 256 l 1,9,-1
 64 256 l 1,10,-1
 64 384 l 1,11,-1
 0 384 l 1,12,-1
 0 640 l 1,13,-1
 128 640 l 1,14,-1
 128 448 l 1,15,-1
 192 448 l 1,16,-1
 192 384 l 1,17,-1
 320 384 l 1,18,-1
 320 448 l 1,19,-1
 384 448 l 1,20,-1
 384 640 l 1,21,-1
 512 640 l 1,22,-1
 512 384 l 1,23,-1
 448 384 l 1,24,-1
 448 256 l 1,25,-1
 512 256 l 1,26,-1
 512 0 l 1,27,-1
 384 0 l 1,0,-1
EndSplineSet
Validated: 1
EndChar

StartChar: uni0426
Encoding: 1062 1062 359
Width: 704
GlyphClass: 2
Flags: W
LayerCount: 2
Fore
SplineSet
448 -192 m 1,0,-1
 448 0 l 1,1,-1
 0 0 l 1,2,-1
 0 640 l 1,3,-1
 128 640 l 1,4,-1
 128 128 l 1,5,-1
 384 128 l 1,6,-1
 384 640 l 1,7,-1
 512 640 l 1,8,-1
 512 128 l 1,9,-1
 576 128 l 1,10,-1
 576 -192 l 1,11,-1
 448 -192 l 1,0,-1
EndSplineSet
Validated: 1
EndChar

StartChar: uni0427
Encoding: 1063 1063 360
Width: 640
GlyphClass: 2
Flags: W
LayerCount: 2
Fore
SplineSet
384 0 m 1,0,-1
 384 256 l 1,1,-1
 320 256 l 1,2,-1
 320 192 l 1,3,-1
 128 192 l 1,4,-1
 128 256 l 1,5,-1
 64 256 l 1,6,-1
 64 320 l 1,7,-1
 0 320 l 1,8,-1
 0 640 l 1,9,-1
 128 640 l 1,10,-1
 128 384 l 1,11,-1
 192 384 l 1,12,-1
 192 320 l 1,13,-1
 320 320 l 1,14,-1
 320 384 l 1,15,-1
 384 384 l 1,16,-1
 384 640 l 1,17,-1
 512 640 l 1,18,-1
 512 0 l 1,19,-1
 384 0 l 1,0,-1
EndSplineSet
Validated: 1
EndChar

StartChar: uni0428
Encoding: 1064 1064 361
Width: 896
GlyphClass: 2
Flags: W
LayerCount: 2
Fore
SplineSet
0 0 m 1,0,-1
 0 640 l 1,1,-1
 128 640 l 1,2,-1
 128 128 l 1,3,-1
 320 128 l 1,4,-1
 320 640 l 1,5,-1
 448 640 l 1,6,-1
 448 128 l 1,7,-1
 640 128 l 1,8,-1
 640 640 l 1,9,-1
 768 640 l 1,10,-1
 768 0 l 1,11,-1
 0 0 l 1,0,-1
EndSplineSet
Validated: 1
EndChar

StartChar: uni0429
Encoding: 1065 1065 362
Width: 960
GlyphClass: 2
Flags: W
LayerCount: 2
Fore
SplineSet
704 -192 m 1,0,-1
 704 0 l 1,1,-1
 0 0 l 1,2,-1
 0 640 l 1,3,-1
 128 640 l 1,4,-1
 128 128 l 1,5,-1
 320 128 l 1,6,-1
 320 640 l 1,7,-1
 448 640 l 1,8,-1
 448 128 l 1,9,-1
 640 128 l 1,10,-1
 640 640 l 1,11,-1
 768 640 l 1,12,-1
 768 128 l 1,13,-1
 832 128 l 1,14,-1
 832 -192 l 1,15,-1
 704 -192 l 1,0,-1
EndSplineSet
Validated: 1
EndChar

StartChar: uni042A
Encoding: 1066 1066 363
Width: 768
GlyphClass: 2
Flags: W
LayerCount: 2
Fore
SplineSet
192 0 m 1,0,-1
 192 512 l 1,1,-1
 0 512 l 1,2,-1
 0 640 l 1,3,-1
 320 640 l 1,4,-1
 320 448 l 1,5,-1
 576 448 l 1,6,-1
 576 384 l 1,7,-1
 640 384 l 1,8,-1
 640 64 l 1,9,-1
 576 64 l 1,10,-1
 576 0 l 1,11,-1
 192 0 l 1,0,-1
512 128 m 1,12,-1
 512 320 l 1,13,-1
 320 320 l 1,14,-1
 320 128 l 1,15,-1
 512 128 l 1,12,-1
EndSplineSet
Validated: 1
EndChar

StartChar: uni042B
Encoding: 1067 1067 364
Width: 768
GlyphClass: 2
Flags: W
LayerCount: 2
Fore
SplineSet
512 0 m 1,0,-1
 512 640 l 1,1,-1
 640 640 l 1,2,-1
 640 0 l 1,3,-1
 512 0 l 1,0,-1
0 0 m 1,4,-1
 0 640 l 1,5,-1
 128 640 l 1,6,-1
 128 448 l 1,7,-1
 384 448 l 1,8,-1
 384 384 l 1,9,-1
 448 384 l 1,10,-1
 448 64 l 1,11,-1
 384 64 l 1,12,-1
 384 0 l 1,13,-1
 0 0 l 1,4,-1
320 128 m 1,14,-1
 320 320 l 1,15,-1
 128 320 l 1,16,-1
 128 128 l 1,17,-1
 320 128 l 1,14,-1
EndSplineSet
Validated: 1
EndChar

StartChar: uni042C
Encoding: 1068 1068 365
Width: 576
GlyphClass: 2
Flags: W
LayerCount: 2
Fore
SplineSet
0 0 m 1,0,-1
 0 640 l 1,1,-1
 128 640 l 1,2,-1
 128 448 l 1,3,-1
 384 448 l 1,4,-1
 384 384 l 1,5,-1
 448 384 l 1,6,-1
 448 64 l 1,7,-1
 384 64 l 1,8,-1
 384 0 l 1,9,-1
 0 0 l 1,0,-1
320 128 m 1,10,-1
 320 320 l 1,11,-1
 128 320 l 1,12,-1
 128 128 l 1,13,-1
 320 128 l 1,10,-1
EndSplineSet
Validated: 1
EndChar

StartChar: uni042D
Encoding: 1069 1069 366
Width: 512
GlyphClass: 2
Flags: W
LayerCount: 2
Fore
SplineSet
0 0 m 1,0,-1
 0 128 l 1,1,-1
 192 128 l 1,2,-1
 192 192 l 1,3,-1
 256 192 l 1,4,-1
 256 256 l 1,5,-1
 0 256 l 1,6,-1
 0 384 l 1,7,-1
 256 384 l 1,8,-1
 256 448 l 1,9,-1
 192 448 l 1,10,-1
 192 512 l 1,11,-1
 0 512 l 1,12,-1
 0 640 l 1,13,-1
 256 640 l 1,14,-1
 256 576 l 1,15,-1
 320 576 l 1,16,-1
 320 512 l 1,17,-1
 384 512 l 1,18,-1
 384 128 l 1,19,-1
 320 128 l 1,20,-1
 320 64 l 1,21,-1
 256 64 l 1,22,-1
 256 0 l 1,23,-1
 0 0 l 1,0,-1
EndSplineSet
Validated: 1
EndChar

StartChar: uni042E
Encoding: 1070 1070 367
Width: 896
GlyphClass: 2
Flags: W
LayerCount: 2
Fore
SplineSet
384 0 m 1,0,-1
 384 64 l 1,1,-1
 320 64 l 1,2,-1
 320 128 l 1,3,-1
 256 128 l 1,4,-1
 256 256 l 1,5,-1
 128 256 l 1,6,-1
 128 0 l 1,7,-1
 0 0 l 1,8,-1
 0 640 l 1,9,-1
 128 640 l 1,10,-1
 128 384 l 1,11,-1
 256 384 l 1,12,-1
 256 512 l 1,13,-1
 320 512 l 1,14,-1
 320 576 l 1,15,-1
 384 576 l 1,16,-1
 384 640 l 1,17,-1
 640 640 l 1,18,-1
 640 576 l 1,19,-1
 704 576 l 1,20,-1
 704 512 l 1,21,-1
 768 512 l 1,22,-1
 768 128 l 1,23,-1
 704 128 l 1,24,-1
 704 64 l 1,25,-1
 640 64 l 1,26,-1
 640 0 l 1,27,-1
 384 0 l 1,0,-1
576 128 m 1,28,-1
 576 192 l 1,29,-1
 640 192 l 1,30,-1
 640 448 l 1,31,-1
 576 448 l 1,32,-1
 576 512 l 1,33,-1
 448 512 l 1,34,-1
 448 448 l 1,35,-1
 384 448 l 1,36,-1
 384 192 l 1,37,-1
 448 192 l 1,38,-1
 448 128 l 1,39,-1
 576 128 l 1,28,-1
EndSplineSet
Validated: 1
EndChar

StartChar: uni042F
Encoding: 1071 1071 368
Width: 640
GlyphClass: 2
Flags: W
LayerCount: 2
Fore
SplineSet
384 0 m 1,0,-1
 384 256 l 1,1,-1
 192 256 l 1,2,-1
 192 192 l 1,3,-1
 128 192 l 1,4,-1
 128 0 l 1,5,-1
 0 0 l 1,6,-1
 0 256 l 1,7,-1
 64 256 l 1,8,-1
 64 384 l 1,9,-1
 0 384 l 1,10,-1
 0 576 l 1,11,-1
 64 576 l 1,12,-1
 64 640 l 1,13,-1
 512 640 l 1,14,-1
 512 0 l 1,15,-1
 384 0 l 1,0,-1
384 384 m 1,16,-1
 384 512 l 1,17,-1
 128 512 l 1,18,-1
 128 384 l 1,19,-1
 384 384 l 1,16,-1
EndSplineSet
Validated: 1
EndChar

StartChar: uni0430
Encoding: 1072 1072 369
Width: 640
GlyphClass: 2
Flags: W
LayerCount: 2
Fore
SplineSet
384 0 m 1,0,-1
 384 64 l 1,1,-1
 320 64 l 1,2,-1
 320 0 l 1,3,-1
 128 0 l 1,4,-1
 128 64 l 1,5,-1
 64 64 l 1,6,-1
 64 128 l 1,7,-1
 0 128 l 1,8,-1
 0 384 l 1,9,-1
 64 384 l 1,10,-1
 64 448 l 1,11,-1
 128 448 l 1,12,-1
 128 512 l 1,13,-1
 512 512 l 1,14,-1
 512 0 l 1,15,-1
 384 0 l 1,0,-1
320 128 m 1,16,-1
 320 192 l 1,17,-1
 384 192 l 1,18,-1
 384 384 l 1,19,-1
 192 384 l 1,20,-1
 192 320 l 1,21,-1
 128 320 l 1,22,-1
 128 192 l 1,23,-1
 192 192 l 1,24,-1
 192 128 l 1,25,-1
 320 128 l 1,16,-1
EndSplineSet
Validated: 1
EndChar

StartChar: uni0431
Encoding: 1073 1073 370
Width: 640
GlyphClass: 2
Flags: W
LayerCount: 2
Fore
SplineSet
128 0 m 1,0,-1
 128 64 l 1,1,-1
 64 64 l 1,2,-1
 64 128 l 1,3,-1
 0 128 l 1,4,-1
 0 640 l 1,5,-1
 64 640 l 1,6,-1
 64 704 l 1,7,-1
 384 704 l 1,8,-1
 384 768 l 1,9,-1
 512 768 l 1,10,-1
 512 640 l 1,11,-1
 448 640 l 1,12,-1
 448 576 l 1,13,-1
 128 576 l 1,14,-1
 128 512 l 1,15,-1
 384 512 l 1,16,-1
 384 448 l 1,17,-1
 448 448 l 1,18,-1
 448 384 l 1,19,-1
 512 384 l 1,20,-1
 512 128 l 1,21,-1
 448 128 l 1,22,-1
 448 64 l 1,23,-1
 384 64 l 1,24,-1
 384 0 l 1,25,-1
 128 0 l 1,0,-1
320 128 m 1,26,-1
 320 192 l 1,27,-1
 384 192 l 1,28,-1
 384 320 l 1,29,-1
 320 320 l 1,30,-1
 320 384 l 1,31,-1
 192 384 l 1,32,-1
 192 320 l 1,33,-1
 128 320 l 1,34,-1
 128 192 l 1,35,-1
 192 192 l 1,36,-1
 192 128 l 1,37,-1
 320 128 l 1,26,-1
EndSplineSet
Validated: 1
EndChar

StartChar: uni0432
Encoding: 1074 1074 371
Width: 576
GlyphClass: 2
Flags: W
LayerCount: 2
Fore
SplineSet
0 0 m 1,0,-1
 0 512 l 1,1,-1
 384 512 l 1,2,-1
 384 448 l 1,3,-1
 448 448 l 1,4,-1
 448 320 l 1,5,-1
 384 320 l 1,6,-1
 384 256 l 1,7,-1
 448 256 l 1,8,-1
 448 64 l 1,9,-1
 384 64 l 1,10,-1
 384 0 l 1,11,-1
 0 0 l 1,0,-1
320 128 m 1,12,-1
 320 192 l 1,13,-1
 128 192 l 1,14,-1
 128 128 l 1,15,-1
 320 128 l 1,12,-1
320 320 m 1,16,-1
 320 384 l 1,17,-1
 128 384 l 1,18,-1
 128 320 l 1,19,-1
 320 320 l 1,16,-1
EndSplineSet
Validated: 1
EndChar

StartChar: uni0433
Encoding: 1075 1075 372
Width: 448
GlyphClass: 2
Flags: W
LayerCount: 2
Fore
SplineSet
0 0 m 1,0,-1
 0 512 l 1,1,-1
 320 512 l 1,2,-1
 320 384 l 1,3,-1
 128 384 l 1,4,-1
 128 0 l 1,5,-1
 0 0 l 1,0,-1
EndSplineSet
Validated: 1
EndChar

StartChar: uni0434
Encoding: 1076 1076 373
Width: 640
GlyphClass: 2
Flags: W
LayerCount: 2
Fore
SplineSet
384 -128 m 1,0,-1
 384 0 l 1,1,-1
 128 0 l 1,2,-1
 128 -128 l 1,3,-1
 0 -128 l 1,4,-1
 0 128 l 1,5,-1
 64 128 l 1,6,-1
 64 320 l 1,7,-1
 128 320 l 1,8,-1
 128 448 l 1,9,-1
 192 448 l 1,10,-1
 192 512 l 1,11,-1
 448 512 l 1,12,-1
 448 128 l 1,13,-1
 512 128 l 1,14,-1
 512 -128 l 1,15,-1
 384 -128 l 1,0,-1
320 128 m 1,16,-1
 320 384 l 1,17,-1
 256 384 l 1,18,-1
 256 256 l 1,19,-1
 192 256 l 1,20,-1
 192 128 l 1,21,-1
 320 128 l 1,16,-1
EndSplineSet
Validated: 1
EndChar

StartChar: uni0435
Encoding: 1077 1077 374
Width: 640
GlyphClass: 2
Flags: W
LayerCount: 2
Fore
SplineSet
128 0 m 1,0,-1
 128 64 l 1,1,-1
 64 64 l 1,2,-1
 64 128 l 1,3,-1
 0 128 l 1,4,-1
 0 384 l 1,5,-1
 64 384 l 1,6,-1
 64 448 l 1,7,-1
 128 448 l 1,8,-1
 128 512 l 1,9,-1
 384 512 l 1,10,-1
 384 448 l 1,11,-1
 448 448 l 1,12,-1
 448 384 l 1,13,-1
 512 384 l 1,14,-1
 512 256 l 1,15,-1
 384 256 l 1,16,-1
 384 192 l 1,17,-1
 256 192 l 1,18,-1
 256 128 l 1,19,-1
 448 128 l 1,20,-1
 448 0 l 1,21,-1
 128 0 l 1,0,-1
256 256 m 1,22,-1
 256 320 l 1,23,-1
 320 320 l 1,24,-1
 320 384 l 1,25,-1
 192 384 l 1,26,-1
 192 320 l 1,27,-1
 128 320 l 1,28,-1
 128 256 l 1,29,-1
 256 256 l 1,22,-1
EndSplineSet
Validated: 1
EndChar

StartChar: uni0436
Encoding: 1078 1078 375
Width: 768
GlyphClass: 2
Flags: W
LayerCount: 2
Fore
SplineSet
512 0 m 1,0,-1
 512 64 l 1,1,-1
 448 64 l 1,2,-1
 448 128 l 1,3,-1
 384 128 l 1,4,-1
 384 0 l 1,5,-1
 256 0 l 1,6,-1
 256 128 l 1,7,-1
 192 128 l 1,8,-1
 192 64 l 1,9,-1
 128 64 l 1,10,-1
 128 0 l 1,11,-1
 0 0 l 1,12,-1
 0 128 l 1,13,-1
 64 128 l 1,14,-1
 64 192 l 1,15,-1
 128 192 l 1,16,-1
 128 320 l 1,17,-1
 64 320 l 1,18,-1
 64 384 l 1,19,-1
 0 384 l 1,20,-1
 0 512 l 1,21,-1
 128 512 l 1,22,-1
 128 448 l 1,23,-1
 192 448 l 1,24,-1
 192 384 l 1,25,-1
 256 384 l 1,26,-1
 256 512 l 1,27,-1
 384 512 l 1,28,-1
 384 384 l 1,29,-1
 448 384 l 1,30,-1
 448 448 l 1,31,-1
 512 448 l 1,32,-1
 512 512 l 1,33,-1
 640 512 l 1,34,-1
 640 384 l 1,35,-1
 576 384 l 1,36,-1
 576 320 l 1,37,-1
 512 320 l 1,38,-1
 512 192 l 1,39,-1
 576 192 l 1,40,-1
 576 128 l 1,41,-1
 640 128 l 1,42,-1
 640 0 l 1,43,-1
 512 0 l 1,0,-1
EndSplineSet
Validated: 1
EndChar

StartChar: uni0437
Encoding: 1079 1079 376
Width: 512
GlyphClass: 2
Flags: W
LayerCount: 2
Fore
SplineSet
0 0 m 1,0,-1
 0 128 l 1,1,-1
 256 128 l 1,2,-1
 256 192 l 1,3,-1
 128 192 l 1,4,-1
 128 320 l 1,5,-1
 256 320 l 1,6,-1
 256 384 l 1,7,-1
 0 384 l 1,8,-1
 0 512 l 1,9,-1
 320 512 l 1,10,-1
 320 448 l 1,11,-1
 384 448 l 1,12,-1
 384 320 l 1,13,-1
 320 320 l 1,14,-1
 320 192 l 1,15,-1
 384 192 l 1,16,-1
 384 64 l 1,17,-1
 320 64 l 1,18,-1
 320 0 l 1,19,-1
 0 0 l 1,0,-1
EndSplineSet
Validated: 1
EndChar

StartChar: uni0438
Encoding: 1080 1080 377
Width: 576
GlyphClass: 2
Flags: W
LayerCount: 2
Fore
SplineSet
320 0 m 1,0,-1
 320 192 l 1,1,-1
 256 192 l 1,2,-1
 256 128 l 1,3,-1
 192 128 l 1,4,-1
 192 64 l 1,5,-1
 128 64 l 1,6,-1
 128 0 l 1,7,-1
 0 0 l 1,8,-1
 0 512 l 1,9,-1
 128 512 l 1,10,-1
 128 256 l 1,11,-1
 192 256 l 1,12,-1
 192 320 l 1,13,-1
 256 320 l 1,14,-1
 256 384 l 1,15,-1
 320 384 l 1,16,-1
 320 512 l 1,17,-1
 448 512 l 1,18,-1
 448 0 l 1,19,-1
 320 0 l 1,0,-1
EndSplineSet
Validated: 1
EndChar

StartChar: uni0439
Encoding: 1081 1081 378
Width: 576
GlyphClass: 2
Flags: W
LayerCount: 2
Fore
SplineSet
320 0 m 1,0,-1
 320 192 l 1,1,-1
 256 192 l 1,2,-1
 256 128 l 1,3,-1
 192 128 l 1,4,-1
 192 64 l 1,5,-1
 128 64 l 1,6,-1
 128 0 l 1,7,-1
 0 0 l 1,8,-1
 0 512 l 1,9,-1
 128 512 l 1,10,-1
 128 256 l 1,11,-1
 192 256 l 1,12,-1
 192 320 l 1,13,-1
 256 320 l 1,14,-1
 256 384 l 1,15,-1
 320 384 l 1,16,-1
 320 512 l 1,17,-1
 448 512 l 1,18,-1
 448 0 l 1,19,-1
 320 0 l 1,0,-1
320 512 m 1,20,-1
 128 512 l 1,21,-1
 128 576 l 1,22,-1
 320 576 l 1,23,-1
 320 512 l 1,20,-1
320 576 m 1,24,-1
 320 640 l 1,25,-1
 384 640 l 1,26,-1
 384 576 l 1,27,-1
 320 576 l 1,24,-1
128 576 m 1,28,-1
 64 576 l 1,29,-1
 64 640 l 1,30,-1
 128 640 l 1,31,-1
 128 576 l 1,28,-1
EndSplineSet
Validated: 5
EndChar

StartChar: uni043A
Encoding: 1082 1082 379
Width: 576
GlyphClass: 2
Flags: W
LayerCount: 2
Fore
SplineSet
320 0 m 1,0,-1
 320 64 l 1,1,-1
 256 64 l 1,2,-1
 256 128 l 1,3,-1
 192 128 l 1,4,-1
 192 192 l 1,5,-1
 128 192 l 1,6,-1
 128 0 l 1,7,-1
 0 0 l 1,8,-1
 0 512 l 1,9,-1
 128 512 l 1,10,-1
 128 320 l 1,11,-1
 192 320 l 1,12,-1
 192 384 l 1,13,-1
 256 384 l 1,14,-1
 256 448 l 1,15,-1
 320 448 l 1,16,-1
 320 512 l 1,17,-1
 448 512 l 1,18,-1
 448 384 l 1,19,-1
 384 384 l 1,20,-1
 384 320 l 1,21,-1
 320 320 l 1,22,-1
 320 192 l 1,23,-1
 384 192 l 1,24,-1
 384 128 l 1,25,-1
 448 128 l 1,26,-1
 448 0 l 1,27,-1
 320 0 l 1,0,-1
EndSplineSet
Validated: 1
EndChar

StartChar: uni043B
Encoding: 1083 1083 380
Width: 640
GlyphClass: 2
Flags: W
LayerCount: 2
Fore
SplineSet
384 0 m 1,0,-1
 384 384 l 1,1,-1
 192 384 l 1,2,-1
 192 64 l 1,3,-1
 128 64 l 1,4,-1
 128 0 l 1,5,-1
 0 0 l 1,6,-1
 0 128 l 1,7,-1
 64 128 l 1,8,-1
 64 512 l 1,9,-1
 512 512 l 1,10,-1
 512 0 l 1,11,-1
 384 0 l 1,0,-1
EndSplineSet
Validated: 1
EndChar

StartChar: uni043C
Encoding: 1084 1084 381
Width: 640
GlyphClass: 2
Flags: W
LayerCount: 2
Fore
SplineSet
384 0 m 1,0,-1
 384 256 l 1,1,-1
 320 256 l 1,2,-1
 320 128 l 1,3,-1
 192 128 l 1,4,-1
 192 256 l 1,5,-1
 128 256 l 1,6,-1
 128 0 l 1,7,-1
 0 0 l 1,8,-1
 0 512 l 1,9,-1
 128 512 l 1,10,-1
 128 448 l 1,11,-1
 192 448 l 1,12,-1
 192 384 l 1,13,-1
 320 384 l 1,14,-1
 320 448 l 1,15,-1
 384 448 l 1,16,-1
 384 512 l 1,17,-1
 512 512 l 1,18,-1
 512 0 l 1,19,-1
 384 0 l 1,0,-1
EndSplineSet
Validated: 1
EndChar

StartChar: uni043D
Encoding: 1085 1085 382
Width: 576
GlyphClass: 2
Flags: W
LayerCount: 2
Fore
SplineSet
320 0 m 1,0,-1
 320 192 l 1,1,-1
 128 192 l 1,2,-1
 128 0 l 1,3,-1
 0 0 l 1,4,-1
 0 512 l 1,5,-1
 128 512 l 1,6,-1
 128 320 l 1,7,-1
 320 320 l 1,8,-1
 320 512 l 1,9,-1
 448 512 l 1,10,-1
 448 0 l 1,11,-1
 320 0 l 1,0,-1
EndSplineSet
Validated: 1
EndChar

StartChar: uni043E
Encoding: 1086 1086 383
Width: 640
GlyphClass: 2
Flags: W
LayerCount: 2
Fore
SplineSet
128 0 m 1,0,-1
 128 64 l 1,1,-1
 64 64 l 1,2,-1
 64 128 l 1,3,-1
 0 128 l 1,4,-1
 0 384 l 1,5,-1
 64 384 l 1,6,-1
 64 448 l 1,7,-1
 128 448 l 1,8,-1
 128 512 l 1,9,-1
 384 512 l 1,10,-1
 384 448 l 1,11,-1
 448 448 l 1,12,-1
 448 384 l 1,13,-1
 512 384 l 1,14,-1
 512 128 l 1,15,-1
 448 128 l 1,16,-1
 448 64 l 1,17,-1
 384 64 l 1,18,-1
 384 0 l 1,19,-1
 128 0 l 1,0,-1
320 128 m 1,20,-1
 320 192 l 1,21,-1
 384 192 l 1,22,-1
 384 320 l 1,23,-1
 320 320 l 1,24,-1
 320 384 l 1,25,-1
 192 384 l 1,26,-1
 192 320 l 1,27,-1
 128 320 l 1,28,-1
 128 192 l 1,29,-1
 192 192 l 1,30,-1
 192 128 l 1,31,-1
 320 128 l 1,20,-1
EndSplineSet
Validated: 1
EndChar

StartChar: uni043F
Encoding: 1087 1087 384
Width: 576
GlyphClass: 2
Flags: W
LayerCount: 2
Fore
SplineSet
320 0 m 1,0,-1
 320 384 l 1,1,-1
 128 384 l 1,2,-1
 128 0 l 1,3,-1
 0 0 l 1,4,-1
 0 512 l 1,5,-1
 448 512 l 1,6,-1
 448 0 l 1,7,-1
 320 0 l 1,0,-1
EndSplineSet
Validated: 1
EndChar

StartChar: uni0440
Encoding: 1088 1088 385
Width: 640
GlyphClass: 2
Flags: W
LayerCount: 2
Fore
SplineSet
0 -192 m 1,0,-1
 0 512 l 1,1,-1
 384 512 l 1,2,-1
 384 448 l 1,3,-1
 448 448 l 1,4,-1
 448 384 l 1,5,-1
 512 384 l 1,6,-1
 512 128 l 1,7,-1
 448 128 l 1,8,-1
 448 64 l 1,9,-1
 384 64 l 1,10,-1
 384 0 l 1,11,-1
 128 0 l 1,12,-1
 128 -192 l 1,13,-1
 0 -192 l 1,0,-1
320 128 m 1,14,-1
 320 192 l 1,15,-1
 384 192 l 1,16,-1
 384 320 l 1,17,-1
 320 320 l 1,18,-1
 320 384 l 1,19,-1
 128 384 l 1,20,-1
 128 128 l 1,21,-1
 320 128 l 1,14,-1
EndSplineSet
Validated: 1
EndChar

StartChar: uni0441
Encoding: 1089 1089 386
Width: 576
GlyphClass: 2
Flags: W
LayerCount: 2
Fore
SplineSet
128 0 m 1,0,-1
 128 64 l 1,1,-1
 64 64 l 1,2,-1
 64 128 l 1,3,-1
 0 128 l 1,4,-1
 0 384 l 1,5,-1
 64 384 l 1,6,-1
 64 448 l 1,7,-1
 128 448 l 1,8,-1
 128 512 l 1,9,-1
 384 512 l 1,10,-1
 384 448 l 1,11,-1
 448 448 l 1,12,-1
 448 320 l 1,13,-1
 320 320 l 1,14,-1
 320 384 l 1,15,-1
 192 384 l 1,16,-1
 192 320 l 1,17,-1
 128 320 l 1,18,-1
 128 192 l 1,19,-1
 192 192 l 1,20,-1
 192 128 l 1,21,-1
 320 128 l 1,22,-1
 320 192 l 1,23,-1
 448 192 l 1,24,-1
 448 64 l 1,25,-1
 384 64 l 1,26,-1
 384 0 l 1,27,-1
 128 0 l 1,0,-1
EndSplineSet
Validated: 1
EndChar

StartChar: uni0442
Encoding: 1090 1090 387
Width: 640
GlyphClass: 2
Flags: W
LayerCount: 2
Fore
SplineSet
192 0 m 1,0,-1
 192 384 l 1,1,-1
 0 384 l 1,2,-1
 0 512 l 1,3,-1
 512 512 l 1,4,-1
 512 384 l 1,5,-1
 320 384 l 1,6,-1
 320 0 l 1,7,-1
 192 0 l 1,0,-1
EndSplineSet
Validated: 1
EndChar

StartChar: uni0443
Encoding: 1091 1091 388
Width: 640
GlyphClass: 2
Flags: W
LayerCount: 2
Fore
SplineSet
128 -256 m 1,0,-1
 128 -128 l 1,1,-1
 320 -128 l 1,2,-1
 320 -64 l 1,3,-1
 384 -64 l 1,4,-1
 384 0 l 1,5,-1
 128 0 l 1,6,-1
 128 64 l 1,7,-1
 64 64 l 1,8,-1
 64 128 l 1,9,-1
 0 128 l 1,10,-1
 0 512 l 1,11,-1
 128 512 l 1,12,-1
 128 192 l 1,13,-1
 192 192 l 1,14,-1
 192 128 l 1,15,-1
 384 128 l 1,16,-1
 384 512 l 1,17,-1
 512 512 l 1,18,-1
 512 -128 l 1,19,-1
 448 -128 l 1,20,-1
 448 -192 l 1,21,-1
 384 -192 l 1,22,-1
 384 -256 l 1,23,-1
 128 -256 l 1,0,-1
EndSplineSet
Validated: 1
EndChar

StartChar: uni0444
Encoding: 1092 1092 389
Width: 1024
GlyphClass: 2
Flags: W
LayerCount: 2
Fore
SplineSet
384 -128 m 1,0,-1
 384 0 l 1,1,-1
 128 0 l 1,2,-1
 128 64 l 1,3,-1
 64 64 l 1,4,-1
 64 128 l 1,5,-1
 0 128 l 1,6,-1
 0 384 l 1,7,-1
 64 384 l 1,8,-1
 64 448 l 1,9,-1
 128 448 l 1,10,-1
 128 512 l 1,11,-1
 384 512 l 1,12,-1
 384 640 l 1,13,-1
 512 640 l 1,14,-1
 512 512 l 1,15,-1
 768 512 l 1,16,-1
 768 448 l 1,17,-1
 832 448 l 1,18,-1
 832 384 l 1,19,-1
 896 384 l 1,20,-1
 896 128 l 1,21,-1
 832 128 l 1,22,-1
 832 64 l 1,23,-1
 768 64 l 1,24,-1
 768 0 l 1,25,-1
 512 0 l 1,26,-1
 512 -128 l 1,27,-1
 384 -128 l 1,0,-1
704 128 m 1,28,-1
 704 192 l 1,29,-1
 768 192 l 1,30,-1
 768 320 l 1,31,-1
 704 320 l 1,32,-1
 704 384 l 1,33,-1
 576 384 l 1,34,-1
 576 320 l 1,35,-1
 512 320 l 1,36,-1
 512 192 l 1,37,-1
 576 192 l 1,38,-1
 576 128 l 1,39,-1
 704 128 l 1,28,-1
320 128 m 1,40,-1
 320 192 l 1,41,-1
 384 192 l 1,42,-1
 384 320 l 1,43,-1
 320 320 l 1,44,-1
 320 384 l 1,45,-1
 192 384 l 1,46,-1
 192 320 l 1,47,-1
 128 320 l 1,48,-1
 128 192 l 1,49,-1
 192 192 l 1,50,-1
 192 128 l 1,51,-1
 320 128 l 1,40,-1
EndSplineSet
Validated: 1
EndChar

StartChar: uni0445
Encoding: 1093 1093 390
Width: 512
GlyphClass: 2
Flags: W
LayerCount: 2
Fore
SplineSet
256 0 m 1,0,-1
 256 64 l 1,1,-1
 128 64 l 1,2,-1
 128 0 l 1,3,-1
 0 0 l 1,4,-1
 0 128 l 1,5,-1
 64 128 l 1,6,-1
 64 192 l 1,7,-1
 128 192 l 1,8,-1
 128 320 l 1,9,-1
 64 320 l 1,10,-1
 64 384 l 1,11,-1
 0 384 l 1,12,-1
 0 512 l 1,13,-1
 128 512 l 1,14,-1
 128 448 l 1,15,-1
 256 448 l 1,16,-1
 256 512 l 1,17,-1
 384 512 l 1,18,-1
 384 384 l 1,19,-1
 320 384 l 1,20,-1
 320 320 l 1,21,-1
 256 320 l 1,22,-1
 256 192 l 1,23,-1
 320 192 l 1,24,-1
 320 128 l 1,25,-1
 384 128 l 1,26,-1
 384 0 l 1,27,-1
 256 0 l 1,0,-1
EndSplineSet
Validated: 1
EndChar

StartChar: uni0446
Encoding: 1094 1094 391
Width: 640
GlyphClass: 2
Flags: W
LayerCount: 2
Fore
SplineSet
384 -128 m 1,0,-1
 384 0 l 1,1,-1
 0 0 l 1,2,-1
 0 512 l 1,3,-1
 128 512 l 1,4,-1
 128 128 l 1,5,-1
 320 128 l 1,6,-1
 320 512 l 1,7,-1
 448 512 l 1,8,-1
 448 64 l 1,9,-1
 512 64 l 1,10,-1
 512 -128 l 1,11,-1
 384 -128 l 1,0,-1
EndSplineSet
Validated: 1
EndChar

StartChar: uni0447
Encoding: 1095 1095 392
Width: 512
GlyphClass: 2
Flags: W
LayerCount: 2
Fore
SplineSet
256 0 m 1,0,-1
 256 128 l 1,1,-1
 64 128 l 1,2,-1
 64 192 l 1,3,-1
 0 192 l 1,4,-1
 1 512 l 1,5,-1
 129 512 l 1,6,-1
 128 256 l 1,7,-1
 256 256 l 1,8,-1
 257 512 l 1,9,-1
 385 512 l 1,10,-1
 384 0 l 1,11,-1
 256 0 l 1,0,-1
EndSplineSet
Validated: 1
EndChar

StartChar: uni0448
Encoding: 1096 1096 393
Width: 768
GlyphClass: 2
Flags: W
LayerCount: 2
Fore
SplineSet
0 0 m 1,0,-1
 0 512 l 1,1,-1
 128 512 l 1,2,-1
 128 128 l 1,3,-1
 256 128 l 1,4,-1
 256 512 l 1,5,-1
 384 512 l 1,6,-1
 384 128 l 1,7,-1
 512 128 l 1,8,-1
 512 512 l 1,9,-1
 640 512 l 1,10,-1
 640 0 l 1,11,-1
 0 0 l 1,0,-1
EndSplineSet
Validated: 1
EndChar

StartChar: uni0449
Encoding: 1097 1097 394
Width: 832
GlyphClass: 2
Flags: W
LayerCount: 2
Fore
SplineSet
576 -128 m 1,0,-1
 576 0 l 1,1,-1
 0 0 l 1,2,-1
 0 512 l 1,3,-1
 128 512 l 1,4,-1
 128 128 l 1,5,-1
 256 128 l 1,6,-1
 256 512 l 1,7,-1
 384 512 l 1,8,-1
 384 128 l 1,9,-1
 512 128 l 1,10,-1
 512 512 l 1,11,-1
 640 512 l 1,12,-1
 640 128 l 1,13,-1
 704 128 l 1,14,-1
 704 -128 l 1,15,-1
 576 -128 l 1,0,-1
EndSplineSet
Validated: 1
EndChar

StartChar: uni044A
Encoding: 1098 1098 395
Width: 704
GlyphClass: 2
Flags: W
LayerCount: 2
Fore
SplineSet
128 0 m 1,0,-1
 128 384 l 1,1,-1
 0 384 l 1,2,-1
 0 512 l 1,3,-1
 256 512 l 1,4,-1
 256 384 l 1,5,-1
 512 384 l 1,6,-1
 512 320 l 1,7,-1
 576 320 l 1,8,-1
 576 64 l 1,9,-1
 512 64 l 1,10,-1
 512 0 l 1,11,-1
 128 0 l 1,0,-1
448 128 m 1,12,-1
 448 256 l 1,13,-1
 256 256 l 1,14,-1
 256 128 l 1,15,-1
 448 128 l 1,12,-1
EndSplineSet
Validated: 1
EndChar

StartChar: uni044B
Encoding: 1099 1099 396
Width: 768
GlyphClass: 2
Flags: W
LayerCount: 2
Fore
SplineSet
512 0 m 1,0,-1
 512 512 l 1,1,-1
 640 512 l 1,2,-1
 640 0 l 1,3,-1
 512 0 l 1,0,-1
0 0 m 1,4,-1
 0 512 l 1,5,-1
 128 512 l 1,6,-1
 128 384 l 1,7,-1
 384 384 l 1,8,-1
 384 320 l 1,9,-1
 448 320 l 1,10,-1
 448 64 l 1,11,-1
 384 64 l 1,12,-1
 384 0 l 1,13,-1
 0 0 l 1,4,-1
320 128 m 1,14,-1
 320 256 l 1,15,-1
 128 256 l 1,16,-1
 128 128 l 1,17,-1
 320 128 l 1,14,-1
EndSplineSet
Validated: 1
EndChar

StartChar: uni044C
Encoding: 1100 1100 397
Width: 576
GlyphClass: 2
Flags: W
LayerCount: 2
Fore
SplineSet
0 0 m 1,0,-1
 0 512 l 1,1,-1
 128 512 l 1,2,-1
 128 384 l 1,3,-1
 384 384 l 1,4,-1
 384 320 l 1,5,-1
 448 320 l 1,6,-1
 448 64 l 1,7,-1
 384 64 l 1,8,-1
 384 0 l 1,9,-1
 0 0 l 1,0,-1
320 128 m 1,10,-1
 320 256 l 1,11,-1
 128 256 l 1,12,-1
 128 128 l 1,13,-1
 320 128 l 1,10,-1
EndSplineSet
Validated: 1
EndChar

StartChar: uni044D
Encoding: 1101 1101 398
Width: 576
GlyphClass: 2
Flags: W
LayerCount: 2
Fore
SplineSet
64 0 m 1,0,-1
 64 64 l 1,1,-1
 0 64 l 1,2,-1
 0 192 l 1,3,-1
 128 192 l 1,4,-1
 128 128 l 1,5,-1
 320 128 l 1,6,-1
 320 192 l 1,7,-1
 192 192 l 1,8,-1
 192 320 l 1,9,-1
 320 320 l 1,10,-1
 320 384 l 1,11,-1
 128 384 l 1,12,-1
 128 320 l 1,13,-1
 0 320 l 1,14,-1
 0 448 l 1,15,-1
 64 448 l 1,16,-1
 64 512 l 1,17,-1
 384 512 l 1,18,-1
 384 448 l 1,19,-1
 448 448 l 1,20,-1
 448 64 l 1,21,-1
 384 64 l 1,22,-1
 384 0 l 1,23,-1
 64 0 l 1,0,-1
EndSplineSet
Validated: 1
EndChar

StartChar: uni044E
Encoding: 1102 1102 399
Width: 832
GlyphClass: 2
Flags: W
LayerCount: 2
Fore
SplineSet
320 0 m 1,0,-1
 320 64 l 1,1,-1
 256 64 l 1,2,-1
 256 128 l 1,3,-1
 192 128 l 1,4,-1
 192 192 l 1,5,-1
 128 192 l 1,6,-1
 128 0 l 1,7,-1
 0 0 l 1,8,-1
 0 512 l 1,9,-1
 128 512 l 1,10,-1
 128 320 l 1,11,-1
 192 320 l 1,12,-1
 192 384 l 1,13,-1
 256 384 l 1,14,-1
 256 448 l 1,15,-1
 320 448 l 1,16,-1
 320 512 l 1,17,-1
 576 512 l 1,18,-1
 576 448 l 1,19,-1
 640 448 l 1,20,-1
 640 384 l 1,21,-1
 704 384 l 1,22,-1
 704 128 l 1,23,-1
 640 128 l 1,24,-1
 640 64 l 1,25,-1
 576 64 l 1,26,-1
 576 0 l 1,27,-1
 320 0 l 1,0,-1
512 128 m 1,28,-1
 512 192 l 1,29,-1
 576 192 l 1,30,-1
 576 320 l 1,31,-1
 512 320 l 1,32,-1
 512 384 l 1,33,-1
 384 384 l 1,34,-1
 384 320 l 1,35,-1
 320 320 l 1,36,-1
 320 192 l 1,37,-1
 384 192 l 1,38,-1
 384 128 l 1,39,-1
 512 128 l 1,28,-1
EndSplineSet
Validated: 1
EndChar

StartChar: uni044F
Encoding: 1103 1103 400
Width: 576
GlyphClass: 2
Flags: W
LayerCount: 2
Fore
SplineSet
320 0 m 1,0,-1
 320 192 l 1,1,-1
 128 192 l 1,2,-1
 128 0 l 1,3,-1
 0 0 l 1,4,-1
 0 192 l 1,5,-1
 64 192 l 1,6,-1
 64 256 l 1,7,-1
 0 256 l 1,8,-1
 0 448 l 1,9,-1
 64 448 l 1,10,-1
 64 512 l 1,11,-1
 448 512 l 1,12,-1
 448 0 l 1,13,-1
 320 0 l 1,0,-1
320 320 m 1,14,-1
 320 384 l 1,15,-1
 128 384 l 1,16,-1
 128 320 l 1,17,-1
 320 320 l 1,14,-1
EndSplineSet
Validated: 1
EndChar

StartChar: uni0450
Encoding: 1104 1104 401
Width: 640
GlyphClass: 2
Flags: W
LayerCount: 2
Fore
SplineSet
128 0 m 1,0,-1
 128 64 l 1,1,-1
 64 64 l 1,2,-1
 64 128 l 1,3,-1
 0 128 l 1,4,-1
 0 384 l 1,5,-1
 64 384 l 1,6,-1
 64 448 l 1,7,-1
 128 448 l 1,8,-1
 128 512 l 1,9,-1
 384 512 l 1,10,-1
 384 448 l 1,11,-1
 448 448 l 1,12,-1
 448 384 l 1,13,-1
 512 384 l 1,14,-1
 512 256 l 1,15,-1
 384 256 l 1,16,-1
 384 192 l 1,17,-1
 256 192 l 1,18,-1
 256 128 l 1,19,-1
 448 128 l 1,20,-1
 448 0 l 1,21,-1
 128 0 l 1,0,-1
256 256 m 1,22,-1
 256 320 l 1,23,-1
 320 320 l 1,24,-1
 320 384 l 1,25,-1
 192 384 l 1,26,-1
 192 320 l 1,27,-1
 128 320 l 1,28,-1
 128 256 l 1,29,-1
 256 256 l 1,22,-1
192 576 m 1,30,-1
 192 640 l 1,31,-1
 128 640 l 1,32,-1
 128 704 l 1,33,-1
 256 704 l 1,34,-1
 256 640 l 1,35,-1
 320 640 l 1,36,-1
 320 576 l 1,37,-1
 192 576 l 1,30,-1
EndSplineSet
Validated: 1
EndChar

StartChar: uni0451
Encoding: 1105 1105 402
Width: 640
GlyphClass: 2
Flags: W
LayerCount: 2
Fore
SplineSet
320 576 m 1,0,-1
 320 640 l 1,1,-1
 384 640 l 1,2,-1
 384 576 l 1,3,-1
 320 576 l 1,0,-1
128 576 m 1,4,-1
 128 640 l 1,5,-1
 192 640 l 1,6,-1
 192 576 l 1,7,-1
 128 576 l 1,4,-1
128 0 m 1,8,-1
 128 64 l 1,9,-1
 64 64 l 1,10,-1
 64 128 l 1,11,-1
 0 128 l 1,12,-1
 0 384 l 1,13,-1
 64 384 l 1,14,-1
 64 448 l 1,15,-1
 128 448 l 1,16,-1
 128 512 l 1,17,-1
 384 512 l 1,18,-1
 384 448 l 1,19,-1
 448 448 l 1,20,-1
 448 384 l 1,21,-1
 512 384 l 1,22,-1
 512 256 l 1,23,-1
 384 256 l 1,24,-1
 384 192 l 1,25,-1
 256 192 l 1,26,-1
 256 128 l 1,27,-1
 448 128 l 1,28,-1
 448 0 l 1,29,-1
 128 0 l 1,8,-1
256 256 m 1,30,-1
 256 320 l 1,31,-1
 320 320 l 1,32,-1
 320 384 l 1,33,-1
 192 384 l 1,34,-1
 192 320 l 1,35,-1
 128 320 l 1,36,-1
 128 256 l 1,37,-1
 256 256 l 1,30,-1
EndSplineSet
Validated: 1
EndChar

StartChar: uni0452
Encoding: 1106 1106 403
Width: 640
GlyphClass: 2
Flags: W
LayerCount: 2
Fore
SplineSet
320 -192 m 1,0,-1
 320 -64 l 1,1,-1
 384 -64 l 1,2,-1
 384 320 l 1,3,-1
 192 320 l 1,4,-1
 192 256 l 1,5,-1
 128 256 l 1,6,-1
 128 0 l 1,7,-1
 0 0 l 1,8,-1
 0 512 l 1,9,-1
 -64 512 l 1,10,-1
 -64 576 l 1,11,-1
 0 576 l 1,12,-1
 0 704 l 1,13,-1
 128 704 l 1,14,-1
 128 576 l 1,15,-1
 192 576 l 1,16,-1
 192 512 l 1,17,-1
 128 512 l 1,18,-1
 128 384 l 1,19,-1
 192 384 l 1,20,-1
 192 448 l 1,21,-1
 448 448 l 1,22,-1
 448 384 l 1,23,-1
 512 384 l 1,24,-1
 512 -128 l 1,25,-1
 448 -128 l 1,26,-1
 448 -192 l 1,27,-1
 320 -192 l 1,0,-1
EndSplineSet
Validated: 1
EndChar

StartChar: uni0453
Encoding: 1107 1107 404
Width: 448
GlyphClass: 2
Flags: W
LayerCount: 2
Fore
SplineSet
0 0 m 1,0,-1
 0 448 l 1,1,-1
 320 448 l 1,2,-1
 320 320 l 1,3,-1
 128 320 l 1,4,-1
 128 0 l 1,5,-1
 0 0 l 1,0,-1
64 512 m 1,6,-1
 64 576 l 1,7,-1
 128 576 l 1,8,-1
 128 640 l 1,9,-1
 256 640 l 1,10,-1
 256 576 l 1,11,-1
 192 576 l 1,12,-1
 192 512 l 1,13,-1
 64 512 l 1,6,-1
EndSplineSet
Validated: 1
EndChar

StartChar: uni0454
Encoding: 1108 1108 405
Width: 576
GlyphClass: 2
Flags: W
LayerCount: 2
Fore
SplineSet
64 0 m 1,0,-1
 64 64 l 1,1,-1
 0 64 l 1,2,-1
 0 448 l 1,3,-1
 64 448 l 1,4,-1
 64 512 l 1,5,-1
 384 512 l 1,6,-1
 384 448 l 1,7,-1
 448 448 l 1,8,-1
 448 320 l 1,9,-1
 320 320 l 1,10,-1
 320 384 l 1,11,-1
 128 384 l 1,12,-1
 128 320 l 1,13,-1
 256 320 l 1,14,-1
 256 192 l 1,15,-1
 128 192 l 1,16,-1
 128 128 l 1,17,-1
 320 128 l 1,18,-1
 320 192 l 1,19,-1
 448 192 l 1,20,-1
 448 64 l 1,21,-1
 384 64 l 1,22,-1
 384 0 l 1,23,-1
 64 0 l 1,0,-1
EndSplineSet
Validated: 1
EndChar

StartChar: uni0455
Encoding: 1109 1109 406
Width: 640
GlyphClass: 2
Flags: W
LayerCount: 2
Fore
SplineSet
0 0 m 1,0,-1
 0 128 l 1,1,-1
 256 128 l 1,2,-1
 256 192 l 1,3,-1
 128 192 l 1,4,-1
 128 256 l 1,5,-1
 64 256 l 1,6,-1
 64 448 l 1,7,-1
 128 448 l 1,8,-1
 128 512 l 1,9,-1
 512 512 l 1,10,-1
 512 384 l 1,11,-1
 256 384 l 1,12,-1
 256 320 l 1,13,-1
 384 320 l 1,14,-1
 384 256 l 1,15,-1
 448 256 l 1,16,-1
 448 64 l 1,17,-1
 384 64 l 1,18,-1
 384 0 l 1,19,-1
 0 0 l 1,0,-1
EndSplineSet
Validated: 1
EndChar

StartChar: uni0456
Encoding: 1110 1110 407
Width: 256
GlyphClass: 2
Flags: W
LayerCount: 2
Fore
SplineSet
0 0 m 1,0,-1
 0 448 l 1,1,-1
 128 448 l 1,2,-1
 128 0 l 1,3,-1
 0 0 l 1,0,-1
0 512 m 1,4,-1
 0 640 l 1,5,-1
 128 640 l 1,6,-1
 128 512 l 1,7,-1
 0 512 l 1,4,-1
EndSplineSet
Validated: 1
EndChar

StartChar: uni0457
Encoding: 1111 1111 408
Width: 384
GlyphClass: 2
Flags: W
LayerCount: 2
Fore
SplineSet
192 576 m 1,0,-1
 192 640 l 1,1,-1
 256 640 l 1,2,-1
 256 576 l 1,3,-1
 192 576 l 1,0,-1
0 576 m 1,4,-1
 0 640 l 1,5,-1
 64 640 l 1,6,-1
 64 576 l 1,7,-1
 0 576 l 1,4,-1
64 0 m 1,8,-1
 64 512 l 1,9,-1
 192 512 l 1,10,-1
 192 0 l 1,11,-1
 64 0 l 1,8,-1
EndSplineSet
Validated: 1
EndChar

StartChar: uni0458
Encoding: 1112 1112 409
Width: 384
GlyphClass: 2
Flags: W
LayerCount: 2
Fore
SplineSet
0 -256 m 1,0,-1
 0 -128 l 1,1,-1
 128 -128 l 1,2,-1
 128 384 l 1,3,-1
 256 384 l 1,4,-1
 256 -192 l 1,5,-1
 192 -192 l 1,6,-1
 192 -256 l 1,7,-1
 0 -256 l 1,0,-1
128 512 m 1,8,-1
 128 640 l 1,9,-1
 256 640 l 1,10,-1
 256 512 l 1,11,-1
 128 512 l 1,8,-1
EndSplineSet
Validated: 1
EndChar

StartChar: uni0459
Encoding: 1113 1113 410
Width: 896
GlyphClass: 2
Flags: W
LayerCount: 2
Fore
SplineSet
320 0 m 1,0,-1
 320 384 l 1,1,-1
 192 384 l 1,2,-1
 192 64 l 1,3,-1
 128 64 l 1,4,-1
 128 0 l 1,5,-1
 0 0 l 1,6,-1
 0 128 l 1,7,-1
 64 128 l 1,8,-1
 64 512 l 1,9,-1
 448 512 l 1,10,-1
 448 384 l 1,11,-1
 704 384 l 1,12,-1
 704 320 l 1,13,-1
 768 320 l 1,14,-1
 768 64 l 1,15,-1
 704 64 l 1,16,-1
 704 0 l 1,17,-1
 320 0 l 1,0,-1
640 128 m 1,18,-1
 640 256 l 1,19,-1
 448 256 l 1,20,-1
 448 128 l 1,21,-1
 640 128 l 1,18,-1
EndSplineSet
Validated: 1
EndChar

StartChar: uni045A
Encoding: 1114 1114 411
Width: 832
GlyphClass: 2
Flags: W
LayerCount: 2
Fore
SplineSet
256 0 m 1,0,-1
 256 192 l 1,1,-1
 128 192 l 1,2,-1
 128 0 l 1,3,-1
 0 0 l 1,4,-1
 0 512 l 1,5,-1
 128 512 l 1,6,-1
 128 320 l 1,7,-1
 256 320 l 1,8,-1
 256 512 l 1,9,-1
 384 512 l 1,10,-1
 384 384 l 1,11,-1
 640 384 l 1,12,-1
 640 320 l 1,13,-1
 704 320 l 1,14,-1
 704 64 l 1,15,-1
 640 64 l 1,16,-1
 640 0 l 1,17,-1
 256 0 l 1,0,-1
576 128 m 1,18,-1
 576 256 l 1,19,-1
 384 256 l 1,20,-1
 384 128 l 1,21,-1
 576 128 l 1,18,-1
EndSplineSet
Validated: 1
EndChar

StartChar: uni045B
Encoding: 1115 1115 412
Width: 640
GlyphClass: 2
Flags: W
LayerCount: 2
Fore
SplineSet
320 -192 m 1,0,-1
 320 -64 l 1,1,-1
 384 -64 l 1,2,-1
 384 320 l 1,3,-1
 192 320 l 1,4,-1
 192 256 l 1,5,-1
 128 256 l 1,6,-1
 128 0 l 1,7,-1
 0 0 l 1,8,-1
 0 512 l 1,9,-1
 -64 512 l 1,10,-1
 -64 576 l 1,11,-1
 0 576 l 1,12,-1
 0 704 l 1,13,-1
 128 704 l 1,14,-1
 128 576 l 1,15,-1
 192 576 l 1,16,-1
 192 512 l 1,17,-1
 128 512 l 1,18,-1
 128 384 l 1,19,-1
 192 384 l 1,20,-1
 192 448 l 1,21,-1
 448 448 l 1,22,-1
 448 384 l 1,23,-1
 512 384 l 1,24,-1
 512 -128 l 1,25,-1
 448 -128 l 1,26,-1
 448 -192 l 1,27,-1
 320 -192 l 1,0,-1
EndSplineSet
Validated: 1
EndChar

StartChar: uni045C
Encoding: 1116 1116 413
Width: 576
GlyphClass: 2
Flags: W
LayerCount: 2
Fore
SplineSet
320 0 m 1,0,-1
 320 64 l 1,1,-1
 256 64 l 1,2,-1
 256 128 l 1,3,-1
 192 128 l 1,4,-1
 192 192 l 1,5,-1
 128 192 l 1,6,-1
 128 0 l 1,7,-1
 0 0 l 1,8,-1
 0 512 l 1,9,-1
 128 512 l 1,10,-1
 128 320 l 1,11,-1
 192 320 l 1,12,-1
 192 384 l 1,13,-1
 256 384 l 1,14,-1
 256 448 l 1,15,-1
 320 448 l 1,16,-1
 320 512 l 1,17,-1
 448 512 l 1,18,-1
 448 384 l 1,19,-1
 384 384 l 1,20,-1
 384 320 l 1,21,-1
 320 320 l 1,22,-1
 320 192 l 1,23,-1
 384 192 l 1,24,-1
 384 128 l 1,25,-1
 448 128 l 1,26,-1
 448 0 l 1,27,-1
 320 0 l 1,0,-1
128 576 m 1,28,-1
 128 640 l 1,29,-1
 192 640 l 1,30,-1
 192 704 l 1,31,-1
 320 704 l 1,32,-1
 320 640 l 1,33,-1
 256 640 l 1,34,-1
 256 576 l 1,35,-1
 128 576 l 1,28,-1
EndSplineSet
Validated: 1
EndChar

StartChar: uni045D
Encoding: 1117 1117 414
Width: 576
GlyphClass: 2
Flags: W
LayerCount: 2
Fore
SplineSet
320 0 m 1,0,-1
 320 192 l 1,1,-1
 256 192 l 1,2,-1
 256 128 l 1,3,-1
 192 128 l 1,4,-1
 192 64 l 1,5,-1
 128 64 l 1,6,-1
 128 0 l 1,7,-1
 0 0 l 1,8,-1
 0 512 l 1,9,-1
 128 512 l 1,10,-1
 128 256 l 1,11,-1
 192 256 l 1,12,-1
 192 320 l 1,13,-1
 256 320 l 1,14,-1
 256 384 l 1,15,-1
 320 384 l 1,16,-1
 320 512 l 1,17,-1
 448 512 l 1,18,-1
 448 0 l 1,19,-1
 320 0 l 1,0,-1
192 576 m 1,20,-1
 192 640 l 1,21,-1
 128 640 l 1,22,-1
 128 704 l 1,23,-1
 256 704 l 1,24,-1
 256 640 l 1,25,-1
 320 640 l 1,26,-1
 320 576 l 1,27,-1
 192 576 l 1,20,-1
EndSplineSet
Validated: 1
EndChar

StartChar: uni045E
Encoding: 1118 1118 415
Width: 640
GlyphClass: 2
Flags: W
LayerCount: 2
Fore
SplineSet
128 -256 m 1,0,-1
 128 -128 l 1,1,-1
 320 -128 l 1,2,-1
 320 -64 l 1,3,-1
 384 -64 l 1,4,-1
 384 0 l 1,5,-1
 128 0 l 1,6,-1
 128 64 l 1,7,-1
 64 64 l 1,8,-1
 64 128 l 1,9,-1
 0 128 l 1,10,-1
 0 512 l 1,11,-1
 128 512 l 1,12,-1
 128 192 l 1,13,-1
 192 192 l 1,14,-1
 192 128 l 1,15,-1
 384 128 l 1,16,-1
 384 512 l 1,17,-1
 512 512 l 1,18,-1
 512 -128 l 1,19,-1
 448 -128 l 1,20,-1
 448 -192 l 1,21,-1
 384 -192 l 1,22,-1
 384 -256 l 1,23,-1
 128 -256 l 1,0,-1
320 576 m 1,24,-1
 320 512 l 1,25,-1
 192 512 l 1,26,-1
 192 576 l 1,27,-1
 320 576 l 1,24,-1
320 576 m 1,28,-1
 320 640 l 1,29,-1
 384 640 l 1,30,-1
 384 576 l 1,31,-1
 320 576 l 1,28,-1
192 576 m 1,32,-1
 128 576 l 1,33,-1
 128 640 l 1,34,-1
 192 640 l 1,35,-1
 192 576 l 1,32,-1
EndSplineSet
Validated: 5
EndChar

StartChar: uni045F
Encoding: 1119 1119 416
Width: 640
GlyphClass: 2
Flags: W
LayerCount: 2
Fore
SplineSet
192 -128 m 1,0,-1
 192 0 l 1,1,-1
 0 0 l 1,2,-1
 0 512 l 1,3,-1
 128 512 l 1,4,-1
 128 128 l 1,5,-1
 384 128 l 1,6,-1
 384 512 l 1,7,-1
 512 512 l 1,8,-1
 512 0 l 1,9,-1
 320 0 l 1,10,-1
 320 -128 l 1,11,-1
 192 -128 l 1,0,-1
EndSplineSet
Validated: 1
EndChar

StartChar: uni0460
Encoding: 1120 1120 417
Width: 1024
GlyphClass: 2
Flags: W
LayerCount: 2
Fore
SplineSet
512 0 m 1,0,-1
 512 64 l 1,1,-1
 384 64 l 1,2,-1
 384 0 l 1,3,-1
 128 0 l 1,4,-1
 128 64 l 1,5,-1
 64 64 l 1,6,-1
 64 128 l 1,7,-1
 0 128 l 1,8,-1
 0 512 l 1,9,-1
 64 512 l 1,10,-1
 64 576 l 1,11,-1
 128 576 l 1,12,-1
 128 640 l 1,13,-1
 384 640 l 1,14,-1
 384 512 l 1,15,-1
 192 512 l 1,16,-1
 192 448 l 1,17,-1
 128 448 l 1,18,-1
 128 192 l 1,19,-1
 192 192 l 1,20,-1
 192 128 l 1,21,-1
 320 128 l 1,22,-1
 320 192 l 1,23,-1
 384 192 l 1,24,-1
 384 384 l 1,25,-1
 512 384 l 1,26,-1
 512 192 l 1,27,-1
 576 192 l 1,28,-1
 576 128 l 1,29,-1
 704 128 l 1,30,-1
 704 192 l 1,31,-1
 768 192 l 1,32,-1
 768 448 l 1,33,-1
 704 448 l 1,34,-1
 704 512 l 1,35,-1
 512 512 l 1,36,-1
 512 640 l 1,37,-1
 768 640 l 1,38,-1
 768 576 l 1,39,-1
 832 576 l 1,40,-1
 832 512 l 1,41,-1
 896 512 l 1,42,-1
 896 128 l 1,43,-1
 832 128 l 1,44,-1
 832 64 l 1,45,-1
 768 64 l 1,46,-1
 768 0 l 1,47,-1
 512 0 l 1,0,-1
EndSplineSet
Validated: 1
EndChar

StartChar: uni0461
Encoding: 1121 1121 418
Width: 768
GlyphClass: 2
Flags: W
LayerCount: 2
Fore
SplineSet
320 0 m 1,0,-1
 320 128 l 1,1,-1
 256 128 l 1,2,-1
 256 0 l 1,3,-1
 128 0 l 1,4,-1
 128 128 l 1,5,-1
 64 128 l 1,6,-1
 64 320 l 1,7,-1
 0 320 l 1,8,-1
 0 512 l 1,9,-1
 128 512 l 1,10,-1
 128 320 l 1,11,-1
 192 320 l 1,12,-1
 192 192 l 1,13,-1
 256 192 l 1,14,-1
 256 512 l 1,15,-1
 384 512 l 1,16,-1
 384 192 l 1,17,-1
 448 192 l 1,18,-1
 448 320 l 1,19,-1
 512 320 l 1,20,-1
 512 512 l 1,21,-1
 640 512 l 1,22,-1
 640 256 l 1,23,-1
 576 256 l 1,24,-1
 576 128 l 1,25,-1
 512 128 l 1,26,-1
 512 0 l 1,27,-1
 320 0 l 1,0,-1
EndSplineSet
Validated: 1
EndChar

StartChar: uni0462
Encoding: 1122 1122 419
Width: 640
GlyphClass: 2
Flags: W
LayerCount: 2
Fore
SplineSet
64 0 m 1,0,-1
 64 512 l 1,1,-1
 0 512 l 1,2,-1
 0 576 l 1,3,-1
 64 576 l 1,4,-1
 64 640 l 1,5,-1
 192 640 l 1,6,-1
 192 576 l 1,7,-1
 256 576 l 1,8,-1
 256 512 l 1,9,-1
 192 512 l 1,10,-1
 192 448 l 1,11,-1
 448 448 l 1,12,-1
 448 384 l 1,13,-1
 512 384 l 1,14,-1
 512 64 l 1,15,-1
 448 64 l 1,16,-1
 448 0 l 1,17,-1
 64 0 l 1,0,-1
384 128 m 1,18,-1
 384 320 l 1,19,-1
 192 320 l 1,20,-1
 192 128 l 1,21,-1
 384 128 l 1,18,-1
EndSplineSet
Validated: 1
EndChar

StartChar: uni0463
Encoding: 1123 1123 420
Width: 576
GlyphClass: 2
Flags: W
LayerCount: 2
Fore
SplineSet
0 0 m 1,0,-1
 0 448 l 1,1,-1
 -64 448 l 1,2,-1
 -64 512 l 1,3,-1
 0 512 l 1,4,-1
 0 576 l 1,5,-1
 128 576 l 1,6,-1
 128 512 l 1,7,-1
 192 512 l 1,8,-1
 192 448 l 1,9,-1
 128 448 l 1,10,-1
 128 384 l 1,11,-1
 384 384 l 1,12,-1
 384 320 l 1,13,-1
 448 320 l 1,14,-1
 448 64 l 1,15,-1
 384 64 l 1,16,-1
 384 0 l 1,17,-1
 0 0 l 1,0,-1
320 128 m 1,18,-1
 320 256 l 1,19,-1
 128 256 l 1,20,-1
 128 128 l 1,21,-1
 320 128 l 1,18,-1
EndSplineSet
Validated: 1
EndChar

StartChar: uni0464
Encoding: 1124 1124 421
Width: 704
GlyphClass: 2
Flags: W
LayerCount: 2
Fore
SplineSet
320 0 m 1,0,-1
 320 64 l 1,1,-1
 256 64 l 1,2,-1
 256 128 l 1,3,-1
 192 128 l 1,4,-1
 192 256 l 1,5,-1
 128 256 l 1,6,-1
 128 0 l 1,7,-1
 0 0 l 1,8,-1
 0 640 l 1,9,-1
 128 640 l 1,10,-1
 128 384 l 1,11,-1
 192 384 l 1,12,-1
 192 512 l 1,13,-1
 256 512 l 1,14,-1
 256 576 l 1,15,-1
 320 576 l 1,16,-1
 320 640 l 1,17,-1
 576 640 l 1,18,-1
 576 512 l 1,19,-1
 384 512 l 1,20,-1
 384 448 l 1,21,-1
 320 448 l 1,22,-1
 320 384 l 1,23,-1
 576 384 l 1,24,-1
 576 256 l 1,25,-1
 320 256 l 1,26,-1
 320 192 l 1,27,-1
 384 192 l 1,28,-1
 384 128 l 1,29,-1
 576 128 l 1,30,-1
 576 0 l 1,31,-1
 320 0 l 1,0,-1
EndSplineSet
Validated: 1
EndChar

StartChar: uni0465
Encoding: 1125 1125 422
Width: 768
GlyphClass: 2
Flags: W
LayerCount: 2
Fore
SplineSet
256 0 m 1,0,-1
 256 64 l 1,1,-1
 192 64 l 1,2,-1
 192 192 l 1,3,-1
 128 192 l 1,4,-1
 128 0 l 1,5,-1
 0 0 l 1,6,-1
 0 512 l 1,7,-1
 128 512 l 1,8,-1
 128 320 l 1,9,-1
 192 320 l 1,10,-1
 192 448 l 1,11,-1
 256 448 l 1,12,-1
 256 512 l 1,13,-1
 576 512 l 1,14,-1
 576 448 l 1,15,-1
 640 448 l 1,16,-1
 640 320 l 1,17,-1
 512 320 l 1,18,-1
 512 384 l 1,19,-1
 320 384 l 1,20,-1
 320 320 l 1,21,-1
 448 320 l 1,22,-1
 448 192 l 1,23,-1
 320 192 l 1,24,-1
 320 128 l 1,25,-1
 512 128 l 1,26,-1
 512 192 l 1,27,-1
 640 192 l 1,28,-1
 640 64 l 1,29,-1
 576 64 l 1,30,-1
 576 0 l 1,31,-1
 256 0 l 1,0,-1
EndSplineSet
Validated: 1
EndChar

StartChar: uni0466
Encoding: 1126 1126 423
Width: 640
GlyphClass: 2
Flags: W
LayerCount: 2
Fore
SplineSet
384 0 m 1,0,-1
 384 192 l 1,1,-1
 320 192 l 1,2,-1
 320 0 l 1,3,-1
 192 0 l 1,4,-1
 192 192 l 1,5,-1
 128 192 l 1,6,-1
 128 0 l 1,7,-1
 0 0 l 1,8,-1
 0 512 l 1,9,-1
 64 512 l 1,10,-1
 64 576 l 1,11,-1
 128 576 l 1,12,-1
 128 640 l 1,13,-1
 384 640 l 1,14,-1
 384 576 l 1,15,-1
 448 576 l 1,16,-1
 448 512 l 1,17,-1
 512 512 l 1,18,-1
 512 0 l 1,19,-1
 384 0 l 1,0,-1
384 320 m 1,20,-1
 384 448 l 1,21,-1
 320 448 l 1,22,-1
 320 512 l 1,23,-1
 192 512 l 1,24,-1
 192 448 l 1,25,-1
 128 448 l 1,26,-1
 128 320 l 1,27,-1
 384 320 l 1,20,-1
EndSplineSet
Validated: 1
EndChar

StartChar: uni0467
Encoding: 1127 1127 424
Width: 640
GlyphClass: 2
Flags: W
LayerCount: 2
Fore
SplineSet
384 0 m 1,0,-1
 384 128 l 1,1,-1
 320 128 l 1,2,-1
 320 0 l 1,3,-1
 192 0 l 1,4,-1
 192 128 l 1,5,-1
 128 128 l 1,6,-1
 128 0 l 1,7,-1
 0 0 l 1,8,-1
 0 320 l 1,9,-1
 64 320 l 1,10,-1
 64 448 l 1,11,-1
 128 448 l 1,12,-1
 128 512 l 1,13,-1
 384 512 l 1,14,-1
 384 448 l 1,15,-1
 448 448 l 1,16,-1
 448 320 l 1,17,-1
 512 320 l 1,18,-1
 512 0 l 1,19,-1
 384 0 l 1,0,-1
320 256 m 1,20,-1
 320 384 l 1,21,-1
 192 384 l 1,22,-1
 192 256 l 1,23,-1
 320 256 l 1,20,-1
EndSplineSet
Validated: 1
EndChar

StartChar: uni0468
Encoding: 1128 1128 425
Width: 832
GlyphClass: 2
Flags: W
LayerCount: 2
Fore
SplineSet
576 0 m 1,0,-1
 576 192 l 1,1,-1
 512 192 l 1,2,-1
 512 0 l 1,3,-1
 384 0 l 1,4,-1
 384 192 l 1,5,-1
 320 192 l 1,6,-1
 320 0 l 1,7,-1
 192 0 l 1,8,-1
 192 192 l 1,9,-1
 128 192 l 1,10,-1
 128 0 l 1,11,-1
 0 0 l 1,12,-1
 0 640 l 1,13,-1
 128 640 l 1,14,-1
 128 320 l 1,15,-1
 192 320 l 1,16,-1
 192 512 l 1,17,-1
 256 512 l 1,18,-1
 256 576 l 1,19,-1
 320 576 l 1,20,-1
 320 640 l 1,21,-1
 576 640 l 1,22,-1
 576 576 l 1,23,-1
 640 576 l 1,24,-1
 640 512 l 1,25,-1
 704 512 l 1,26,-1
 704 0 l 1,27,-1
 576 0 l 1,0,-1
576 320 m 1,28,-1
 576 448 l 1,29,-1
 512 448 l 1,30,-1
 512 512 l 1,31,-1
 384 512 l 1,32,-1
 384 448 l 1,33,-1
 320 448 l 1,34,-1
 320 320 l 1,35,-1
 576 320 l 1,28,-1
EndSplineSet
Validated: 1
EndChar

StartChar: uni0469
Encoding: 1129 1129 426
Width: 832
GlyphClass: 2
Flags: W
LayerCount: 2
Fore
SplineSet
576 0 m 1,0,-1
 576 128 l 1,1,-1
 512 128 l 1,2,-1
 512 0 l 1,3,-1
 384 0 l 1,4,-1
 384 128 l 1,5,-1
 320 128 l 1,6,-1
 320 0 l 1,7,-1
 192 0 l 1,8,-1
 192 128 l 1,9,-1
 128 128 l 1,10,-1
 128 0 l 1,11,-1
 0 0 l 1,12,-1
 0 512 l 1,13,-1
 128 512 l 1,14,-1
 128 256 l 1,15,-1
 192 256 l 1,16,-1
 192 320 l 1,17,-1
 256 320 l 1,18,-1
 256 448 l 1,19,-1
 320 448 l 1,20,-1
 320 512 l 1,21,-1
 576 512 l 1,22,-1
 576 448 l 1,23,-1
 640 448 l 1,24,-1
 640 320 l 1,25,-1
 704 320 l 1,26,-1
 704 0 l 1,27,-1
 576 0 l 1,0,-1
512 256 m 1,28,-1
 512 384 l 1,29,-1
 384 384 l 1,30,-1
 384 256 l 1,31,-1
 512 256 l 1,28,-1
EndSplineSet
Validated: 1
EndChar

StartChar: uni046A
Encoding: 1130 1130 427
Width: 896
GlyphClass: 2
Flags: W
LayerCount: 2
Fore
SplineSet
640 0 m 1,0,-1
 640 192 l 1,1,-1
 512 192 l 1,2,-1
 512 0 l 1,3,-1
 384 0 l 1,4,-1
 384 192 l 1,5,-1
 256 192 l 1,6,-1
 256 0 l 1,7,-1
 128 0 l 1,8,-1
 128 256 l 1,9,-1
 192 256 l 1,10,-1
 192 320 l 1,11,-1
 256 320 l 1,12,-1
 256 384 l 1,13,-1
 192 384 l 1,14,-1
 192 448 l 1,15,-1
 128 448 l 1,16,-1
 128 640 l 1,17,-1
 768 640 l 1,18,-1
 768 448 l 1,19,-1
 704 448 l 1,20,-1
 704 384 l 1,21,-1
 640 384 l 1,22,-1
 640 320 l 1,23,-1
 704 320 l 1,24,-1
 704 256 l 1,25,-1
 768 256 l 1,26,-1
 768 0 l 1,27,-1
 640 0 l 1,0,-1
512 384 m 1,28,-1
 512 448 l 1,29,-1
 576 448 l 1,30,-1
 576 512 l 1,31,-1
 320 512 l 1,32,-1
 320 448 l 1,33,-1
 384 448 l 1,34,-1
 384 384 l 1,35,-1
 512 384 l 1,28,-1
EndSplineSet
Validated: 1
EndChar

StartChar: uni046B
Encoding: 1131 1131 428
Width: 640
GlyphClass: 2
Flags: W
LayerCount: 2
Fore
SplineSet
384 0 m 1,0,-1
 384 192 l 1,1,-1
 320 192 l 1,2,-1
 320 0 l 1,3,-1
 192 0 l 1,4,-1
 192 192 l 1,5,-1
 128 192 l 1,6,-1
 128 0 l 1,7,-1
 0 0 l 1,8,-1
 0 256 l 1,9,-1
 64 256 l 1,10,-1
 64 384 l 1,11,-1
 0 384 l 1,12,-1
 0 512 l 1,13,-1
 512 512 l 1,14,-1
 512 384 l 1,15,-1
 448 384 l 1,16,-1
 448 256 l 1,17,-1
 512 256 l 1,18,-1
 512 0 l 1,19,-1
 384 0 l 1,0,-1
320 320 m 1,20,-1
 320 384 l 1,21,-1
 192 384 l 1,22,-1
 192 320 l 1,23,-1
 320 320 l 1,20,-1
EndSplineSet
Validated: 1
EndChar

StartChar: uni046C
Encoding: 1132 1132 429
Width: 960
GlyphClass: 2
Flags: W
LayerCount: 2
Fore
SplineSet
704 0 m 1,0,-1
 704 192 l 1,1,-1
 576 192 l 1,2,-1
 576 0 l 1,3,-1
 448 0 l 1,4,-1
 448 192 l 1,5,-1
 320 192 l 1,6,-1
 320 0 l 1,7,-1
 192 0 l 1,8,-1
 192 256 l 1,9,-1
 256 256 l 1,10,-1
 256 320 l 1,11,-1
 128 320 l 1,12,-1
 128 0 l 1,13,-1
 0 0 l 1,14,-1
 0 640 l 1,15,-1
 128 640 l 1,16,-1
 128 448 l 1,17,-1
 192 448 l 1,18,-1
 192 640 l 1,19,-1
 832 640 l 1,20,-1
 832 448 l 1,21,-1
 768 448 l 1,22,-1
 768 384 l 1,23,-1
 704 384 l 1,24,-1
 704 320 l 1,25,-1
 768 320 l 1,26,-1
 768 256 l 1,27,-1
 832 256 l 1,28,-1
 832 0 l 1,29,-1
 704 0 l 1,0,-1
576 384 m 1,30,-1
 576 448 l 1,31,-1
 640 448 l 1,32,-1
 640 512 l 1,33,-1
 384 512 l 1,34,-1
 384 448 l 1,35,-1
 448 448 l 1,36,-1
 448 384 l 1,37,-1
 576 384 l 1,30,-1
EndSplineSet
Validated: 1
EndChar

StartChar: uni046D
Encoding: 1133 1133 430
Width: 832
GlyphClass: 2
Flags: W
LayerCount: 2
Fore
SplineSet
576 0 m 1,0,-1
 576 192 l 1,1,-1
 512 192 l 1,2,-1
 512 0 l 1,3,-1
 384 0 l 1,4,-1
 384 192 l 1,5,-1
 320 192 l 1,6,-1
 320 0 l 1,7,-1
 192 0 l 1,8,-1
 192 192 l 1,9,-1
 128 192 l 1,10,-1
 128 0 l 1,11,-1
 0 0 l 1,12,-1
 0 512 l 1,13,-1
 128 512 l 1,14,-1
 128 320 l 1,15,-1
 256 320 l 1,16,-1
 256 384 l 1,17,-1
 192 384 l 1,18,-1
 192 512 l 1,19,-1
 704 512 l 1,20,-1
 704 384 l 1,21,-1
 640 384 l 1,22,-1
 640 256 l 1,23,-1
 704 256 l 1,24,-1
 704 0 l 1,25,-1
 576 0 l 1,0,-1
512 320 m 1,26,-1
 512 384 l 1,27,-1
 384 384 l 1,28,-1
 384 320 l 1,29,-1
 512 320 l 1,26,-1
EndSplineSet
Validated: 1
EndChar

StartChar: uni046E
Encoding: 1134 1134 431
Width: 704
GlyphClass: 2
Flags: W
LayerCount: 2
Fore
SplineSet
448 -256 m 1,0,-1
 448 -192 l 1,1,-1
 320 -192 l 1,2,-1
 320 -256 l 1,3,-1
 64 -256 l 1,4,-1
 64 -192 l 1,5,-1
 0 -192 l 1,6,-1
 0 64 l 1,7,-1
 64 64 l 1,8,-1
 64 128 l 1,9,-1
 320 128 l 1,10,-1
 320 256 l 1,11,-1
 128 256 l 1,12,-1
 128 384 l 1,13,-1
 320 384 l 1,14,-1
 320 512 l 1,15,-1
 0 512 l 1,16,-1
 0 640 l 1,17,-1
 128 640 l 1,18,-1
 128 704 l 1,19,-1
 64 704 l 1,20,-1
 64 768 l 1,21,-1
 192 768 l 1,22,-1
 192 704 l 1,23,-1
 256 704 l 1,24,-1
 256 768 l 1,25,-1
 384 768 l 1,26,-1
 384 704 l 1,27,-1
 320 704 l 1,28,-1
 320 640 l 1,29,-1
 384 640 l 1,30,-1
 384 576 l 1,31,-1
 448 576 l 1,32,-1
 448 512 l 1,33,-1
 512 512 l 1,34,-1
 512 384 l 1,35,-1
 448 384 l 1,36,-1
 448 256 l 1,37,-1
 512 256 l 1,38,-1
 512 128 l 1,39,-1
 448 128 l 1,40,-1
 448 64 l 1,41,-1
 384 64 l 1,42,-1
 384 0 l 1,43,-1
 192 0 l 1,44,-1
 192 -64 l 1,45,-1
 128 -64 l 1,46,-1
 128 -128 l 1,47,-1
 320 -128 l 1,48,-1
 320 -64 l 1,49,-1
 448 -64 l 1,50,-1
 448 -128 l 1,51,-1
 576 -128 l 1,52,-1
 576 -256 l 1,53,-1
 448 -256 l 1,0,-1
EndSplineSet
Validated: 1
EndChar

StartChar: uni046F
Encoding: 1135 1135 432
Width: 576
GlyphClass: 2
Flags: W
LayerCount: 2
Fore
SplineSet
320 -256 m 1,0,-1
 320 -192 l 1,1,-1
 192 -192 l 1,2,-1
 192 -256 l 1,3,-1
 64 -256 l 1,4,-1
 64 -192 l 1,5,-1
 0 -192 l 1,6,-1
 0 192 l 1,7,-1
 128 192 l 1,8,-1
 128 128 l 1,9,-1
 320 128 l 1,10,-1
 320 192 l 1,11,-1
 192 192 l 1,12,-1
 192 320 l 1,13,-1
 320 320 l 1,14,-1
 320 384 l 1,15,-1
 128 384 l 1,16,-1
 128 320 l 1,17,-1
 0 320 l 1,18,-1
 0 448 l 1,19,-1
 64 448 l 1,20,-1
 64 512 l 1,21,-1
 128 512 l 1,22,-1
 128 576 l 1,23,-1
 64 576 l 1,24,-1
 64 640 l 1,25,-1
 192 640 l 1,26,-1
 192 576 l 1,27,-1
 256 576 l 1,28,-1
 256 640 l 1,29,-1
 384 640 l 1,30,-1
 384 576 l 1,31,-1
 320 576 l 1,32,-1
 320 512 l 1,33,-1
 384 512 l 1,34,-1
 384 448 l 1,35,-1
 448 448 l 1,36,-1
 448 64 l 1,37,-1
 384 64 l 1,38,-1
 384 0 l 1,39,-1
 128 0 l 1,40,-1
 128 -128 l 1,41,-1
 192 -128 l 1,42,-1
 192 -64 l 1,43,-1
 384 -64 l 1,44,-1
 384 -128 l 1,45,-1
 448 -128 l 1,46,-1
 448 -256 l 1,47,-1
 320 -256 l 1,0,-1
EndSplineSet
Validated: 1
EndChar

StartChar: uni0470
Encoding: 1136 1136 433
Width: 832
GlyphClass: 2
Flags: W
LayerCount: 2
Fore
SplineSet
320 0 m 1,0,-1
 320 256 l 1,1,-1
 192 256 l 1,2,-1
 192 320 l 1,3,-1
 128 320 l 1,4,-1
 128 384 l 1,5,-1
 64 384 l 1,6,-1
 64 448 l 1,7,-1
 0 448 l 1,8,-1
 0 640 l 1,9,-1
 128 640 l 1,10,-1
 128 512 l 1,11,-1
 192 512 l 1,12,-1
 192 448 l 1,13,-1
 256 448 l 1,14,-1
 256 384 l 1,15,-1
 320 384 l 1,16,-1
 320 640 l 1,17,-1
 448 640 l 1,18,-1
 448 384 l 1,19,-1
 512 384 l 1,20,-1
 512 448 l 1,21,-1
 576 448 l 1,22,-1
 576 640 l 1,23,-1
 704 640 l 1,24,-1
 704 384 l 1,25,-1
 640 384 l 1,26,-1
 640 320 l 1,27,-1
 576 320 l 1,28,-1
 576 256 l 1,29,-1
 448 256 l 1,30,-1
 448 0 l 1,31,-1
 320 0 l 1,0,-1
EndSplineSet
Validated: 1
EndChar

StartChar: uni0471
Encoding: 1137 1137 434
Width: 768
GlyphClass: 2
Flags: W
LayerCount: 2
Fore
SplineSet
256 -192 m 1,0,-1
 256 0 l 1,1,-1
 128 0 l 1,2,-1
 128 64 l 1,3,-1
 64 64 l 1,4,-1
 64 192 l 1,5,-1
 0 192 l 1,6,-1
 0 512 l 1,7,-1
 128 512 l 1,8,-1
 128 256 l 1,9,-1
 192 256 l 1,10,-1
 192 128 l 1,11,-1
 256 128 l 1,12,-1
 256 512 l 1,13,-1
 384 512 l 1,14,-1
 384 128 l 1,15,-1
 512 128 l 1,16,-1
 512 512 l 1,17,-1
 640 512 l 1,18,-1
 640 64 l 1,19,-1
 576 64 l 1,20,-1
 576 0 l 1,21,-1
 384 0 l 1,22,-1
 384 -192 l 1,23,-1
 256 -192 l 1,0,-1
EndSplineSet
Validated: 1
EndChar

StartChar: uni0472
Encoding: 1138 1138 435
Width: 768
GlyphClass: 2
Flags: W
LayerCount: 2
Fore
SplineSet
128 0 m 1,0,-1
 128 64 l 1,1,-1
 64 64 l 1,2,-1
 64 128 l 1,3,-1
 0 128 l 1,4,-1
 0 512 l 1,5,-1
 64 512 l 1,6,-1
 64 576 l 1,7,-1
 128 576 l 1,8,-1
 128 640 l 1,9,-1
 512 640 l 1,10,-1
 512 576 l 1,11,-1
 576 576 l 1,12,-1
 576 512 l 1,13,-1
 640 512 l 1,14,-1
 640 128 l 1,15,-1
 576 128 l 1,16,-1
 576 64 l 1,17,-1
 512 64 l 1,18,-1
 512 0 l 1,19,-1
 128 0 l 1,0,-1
448 128 m 1,20,-1
 448 192 l 1,21,-1
 512 192 l 1,22,-1
 512 256 l 1,23,-1
 320 256 l 1,24,-1
 320 320 l 1,25,-1
 128 320 l 1,26,-1
 128 192 l 1,27,-1
 192 192 l 1,28,-1
 192 128 l 1,29,-1
 448 128 l 1,20,-1
512 320 m 1,30,-1
 512 448 l 1,31,-1
 448 448 l 1,32,-1
 448 512 l 1,33,-1
 192 512 l 1,34,-1
 192 448 l 1,35,-1
 128 448 l 1,36,-1
 128 384 l 1,37,-1
 320 384 l 1,38,-1
 320 320 l 1,39,-1
 512 320 l 1,30,-1
EndSplineSet
Validated: 5
EndChar

StartChar: uni0473
Encoding: 1139 1139 436
Width: 640
GlyphClass: 2
Flags: W
LayerCount: 2
Fore
SplineSet
128 0 m 1,0,-1
 128 64 l 1,1,-1
 64 64 l 1,2,-1
 64 128 l 1,3,-1
 0 128 l 1,4,-1
 0 384 l 1,5,-1
 64 384 l 1,6,-1
 64 448 l 1,7,-1
 128 448 l 1,8,-1
 128 512 l 1,9,-1
 384 512 l 1,10,-1
 384 448 l 1,11,-1
 448 448 l 1,12,-1
 448 384 l 1,13,-1
 512 384 l 1,14,-1
 512 128 l 1,15,-1
 448 128 l 1,16,-1
 448 64 l 1,17,-1
 384 64 l 1,18,-1
 384 0 l 1,19,-1
 128 0 l 1,0,-1
320 128 m 1,20,-1
 320 192 l 1,21,-1
 256 192 l 1,22,-1
 256 256 l 1,23,-1
 128 256 l 1,24,-1
 128 192 l 1,25,-1
 192 192 l 1,26,-1
 192 128 l 1,27,-1
 320 128 l 1,20,-1
384 256 m 1,28,-1
 384 320 l 1,29,-1
 320 320 l 1,30,-1
 320 384 l 1,31,-1
 192 384 l 1,32,-1
 192 320 l 1,33,-1
 256 320 l 1,34,-1
 256 256 l 1,35,-1
 384 256 l 1,28,-1
EndSplineSet
Validated: 5
EndChar

StartChar: uni0474
Encoding: 1140 1140 437
Width: 768
GlyphClass: 2
Flags: W
LayerCount: 2
Fore
SplineSet
192 0 m 1,0,-1
 192 64 l 1,1,-1
 128 64 l 1,2,-1
 128 128 l 1,3,-1
 64 128 l 1,4,-1
 64 192 l 1,5,-1
 0 192 l 1,6,-1
 0 640 l 1,7,-1
 128 640 l 1,8,-1
 128 256 l 1,9,-1
 192 256 l 1,10,-1
 192 192 l 1,11,-1
 320 192 l 1,12,-1
 320 256 l 1,13,-1
 384 256 l 1,14,-1
 384 640 l 1,15,-1
 640 640 l 1,16,-1
 640 512 l 1,17,-1
 512 512 l 1,18,-1
 512 192 l 1,19,-1
 448 192 l 1,20,-1
 448 128 l 1,21,-1
 384 128 l 1,22,-1
 384 64 l 1,23,-1
 320 64 l 1,24,-1
 320 0 l 1,25,-1
 192 0 l 1,0,-1
EndSplineSet
Validated: 1
EndChar

StartChar: uni0475
Encoding: 1141 1141 438
Width: 768
GlyphClass: 2
Flags: W
LayerCount: 2
Fore
SplineSet
128 0 m 1,0,-1
 128 64 l 1,1,-1
 64 64 l 1,2,-1
 64 128 l 1,3,-1
 0 128 l 1,4,-1
 0 512 l 1,5,-1
 128 512 l 1,6,-1
 128 192 l 1,7,-1
 256 192 l 1,8,-1
 256 256 l 1,9,-1
 320 256 l 1,10,-1
 320 320 l 1,11,-1
 384 320 l 1,12,-1
 384 512 l 1,13,-1
 640 512 l 1,14,-1
 640 384 l 1,15,-1
 512 384 l 1,16,-1
 512 256 l 1,17,-1
 448 256 l 1,18,-1
 448 192 l 1,19,-1
 384 192 l 1,20,-1
 384 128 l 1,21,-1
 320 128 l 1,22,-1
 320 64 l 1,23,-1
 256 64 l 1,24,-1
 256 0 l 1,25,-1
 128 0 l 1,0,-1
EndSplineSet
Validated: 1
EndChar

StartChar: uni0476
Encoding: 1142 1142 439
Width: 768
GlyphClass: 2
Flags: W
LayerCount: 2
Fore
SplineSet
192 0 m 1,0,-1
 192 64 l 1,1,-1
 128 64 l 1,2,-1
 128 128 l 1,3,-1
 64 128 l 1,4,-1
 64 192 l 1,5,-1
 0 192 l 1,6,-1
 0 640 l 1,7,-1
 128 640 l 1,8,-1
 128 256 l 1,9,-1
 192 256 l 1,10,-1
 192 192 l 1,11,-1
 320 192 l 1,12,-1
 320 256 l 1,13,-1
 384 256 l 1,14,-1
 384 640 l 1,15,-1
 640 640 l 1,16,-1
 640 512 l 1,17,-1
 512 512 l 1,18,-1
 512 192 l 1,19,-1
 448 192 l 1,20,-1
 448 128 l 1,21,-1
 384 128 l 1,22,-1
 384 64 l 1,23,-1
 320 64 l 1,24,-1
 320 0 l 1,25,-1
 192 0 l 1,0,-1
384 640 m 1,26,-1
 320 640 l 1,27,-1
 320 704 l 1,28,-1
 384 704 l 1,29,-1
 384 640 l 1,26,-1
128 640 m 1,30,-1
 128 704 l 1,31,-1
 192 704 l 1,32,-1
 192 640 l 1,33,-1
 128 640 l 1,30,-1
320 704 m 1,34,-1
 256 704 l 1,35,-1
 256 768 l 1,36,-1
 320 768 l 1,37,-1
 320 704 l 1,34,-1
128 704 m 1,38,-1
 64 704 l 1,39,-1
 64 768 l 1,40,-1
 128 768 l 1,41,-1
 128 704 l 1,38,-1
EndSplineSet
Validated: 5
EndChar

StartChar: uni0477
Encoding: 1143 1143 440
Width: 768
GlyphClass: 2
Flags: W
LayerCount: 2
Fore
SplineSet
192 512 m 1,0,-1
 192 576 l 1,1,-1
 256 576 l 1,2,-1
 256 512 l 1,3,-1
 192 512 l 1,0,-1
128 0 m 1,4,-1
 128 64 l 1,5,-1
 64 64 l 1,6,-1
 64 128 l 1,7,-1
 0 128 l 1,8,-1
 0 512 l 1,9,-1
 128 512 l 1,10,-1
 128 192 l 1,11,-1
 256 192 l 1,12,-1
 256 256 l 1,13,-1
 320 256 l 1,14,-1
 320 320 l 1,15,-1
 384 320 l 1,16,-1
 384 512 l 1,17,-1
 640 512 l 1,18,-1
 640 384 l 1,19,-1
 512 384 l 1,20,-1
 512 256 l 1,21,-1
 448 256 l 1,22,-1
 448 192 l 1,23,-1
 384 192 l 1,24,-1
 384 128 l 1,25,-1
 320 128 l 1,26,-1
 320 64 l 1,27,-1
 256 64 l 1,28,-1
 256 0 l 1,29,-1
 128 0 l 1,4,-1
384 512 m 1,30,-1
 320 512 l 1,31,-1
 320 576 l 1,32,-1
 384 576 l 1,33,-1
 384 512 l 1,30,-1
320 576 m 1,34,-1
 256 576 l 1,35,-1
 256 640 l 1,36,-1
 320 640 l 1,37,-1
 320 576 l 1,34,-1
192 576 m 1,38,-1
 128 576 l 1,39,-1
 128 640 l 1,40,-1
 192 640 l 1,41,-1
 192 576 l 1,38,-1
EndSplineSet
Validated: 5
EndChar

StartChar: uni0478
Encoding: 1144 1144 441
Width: 1024
GlyphClass: 2
Flags: W
LayerCount: 2
Fore
SplineSet
512 -256 m 1,0,-1
 512 -128 l 1,1,-1
 704 -128 l 1,2,-1
 704 -64 l 1,3,-1
 768 -64 l 1,4,-1
 768 0 l 1,5,-1
 576 0 l 1,6,-1
 576 64 l 1,7,-1
 512 64 l 1,8,-1
 512 128 l 1,9,-1
 448 128 l 1,10,-1
 448 512 l 1,11,-1
 576 512 l 1,12,-1
 576 192 l 1,13,-1
 640 192 l 1,14,-1
 640 128 l 1,15,-1
 768 128 l 1,16,-1
 768 512 l 1,17,-1
 896 512 l 1,18,-1
 896 -128 l 1,19,-1
 832 -128 l 1,20,-1
 832 -192 l 1,21,-1
 768 -192 l 1,22,-1
 768 -256 l 1,23,-1
 512 -256 l 1,0,-1
64 0 m 1,24,-1
 64 64 l 1,25,-1
 0 64 l 1,26,-1
 0 576 l 1,27,-1
 64 576 l 1,28,-1
 64 640 l 1,29,-1
 320 640 l 1,30,-1
 320 576 l 1,31,-1
 384 576 l 1,32,-1
 384 64 l 1,33,-1
 320 64 l 1,34,-1
 320 0 l 1,35,-1
 64 0 l 1,24,-1
256 128 m 1,36,-1
 256 512 l 1,37,-1
 128 512 l 1,38,-1
 128 128 l 1,39,-1
 256 128 l 1,36,-1
EndSplineSet
Validated: 1
EndChar

StartChar: uni0479
Encoding: 1145 1145 442
Width: 1024
GlyphClass: 2
Flags: W
LayerCount: 2
Fore
SplineSet
512 -256 m 1,0,-1
 512 -128 l 1,1,-1
 704 -128 l 1,2,-1
 704 -64 l 1,3,-1
 768 -64 l 1,4,-1
 768 0 l 1,5,-1
 576 0 l 1,6,-1
 576 64 l 1,7,-1
 512 64 l 1,8,-1
 512 128 l 1,9,-1
 448 128 l 1,10,-1
 448 512 l 1,11,-1
 576 512 l 1,12,-1
 576 192 l 1,13,-1
 640 192 l 1,14,-1
 640 128 l 1,15,-1
 768 128 l 1,16,-1
 768 512 l 1,17,-1
 896 512 l 1,18,-1
 896 -128 l 1,19,-1
 832 -128 l 1,20,-1
 832 -192 l 1,21,-1
 768 -192 l 1,22,-1
 768 -256 l 1,23,-1
 512 -256 l 1,0,-1
64 0 m 1,24,-1
 64 64 l 1,25,-1
 0 64 l 1,26,-1
 0 448 l 1,27,-1
 64 448 l 1,28,-1
 64 512 l 1,29,-1
 320 512 l 1,30,-1
 320 448 l 1,31,-1
 384 448 l 1,32,-1
 384 64 l 1,33,-1
 320 64 l 1,34,-1
 320 0 l 1,35,-1
 64 0 l 1,24,-1
256 128 m 1,36,-1
 256 384 l 1,37,-1
 128 384 l 1,38,-1
 128 128 l 1,39,-1
 256 128 l 1,36,-1
EndSplineSet
Validated: 1
EndChar

StartChar: uni047A
Encoding: 1146 1146 443
Width: 768
GlyphClass: 2
Flags: W
LayerCount: 2
Fore
SplineSet
256 -64 m 1,0,-1
 256 0 l 1,1,-1
 128 0 l 1,2,-1
 128 64 l 1,3,-1
 64 64 l 1,4,-1
 64 128 l 1,5,-1
 0 128 l 1,6,-1
 0 512 l 1,7,-1
 64 512 l 1,8,-1
 64 576 l 1,9,-1
 128 576 l 1,10,-1
 128 640 l 1,11,-1
 256 640 l 1,12,-1
 256 704 l 1,13,-1
 384 704 l 1,14,-1
 384 640 l 1,15,-1
 512 640 l 1,16,-1
 512 576 l 1,17,-1
 576 576 l 1,18,-1
 576 512 l 1,19,-1
 640 512 l 1,20,-1
 640 128 l 1,21,-1
 576 128 l 1,22,-1
 576 64 l 1,23,-1
 512 64 l 1,24,-1
 512 0 l 1,25,-1
 384 0 l 1,26,-1
 384 -64 l 1,27,-1
 256 -64 l 1,0,-1
448 128 m 1,28,-1
 448 192 l 1,29,-1
 512 192 l 1,30,-1
 512 448 l 1,31,-1
 448 448 l 1,32,-1
 448 512 l 1,33,-1
 384 512 l 1,34,-1
 384 448 l 1,35,-1
 256 448 l 1,36,-1
 256 512 l 1,37,-1
 192 512 l 1,38,-1
 192 448 l 1,39,-1
 128 448 l 1,40,-1
 128 192 l 1,41,-1
 192 192 l 1,42,-1
 192 128 l 1,43,-1
 256 128 l 1,44,-1
 256 192 l 1,45,-1
 384 192 l 1,46,-1
 384 128 l 1,47,-1
 448 128 l 1,28,-1
EndSplineSet
Validated: 1
EndChar

StartChar: uni047B
Encoding: 1147 1147 444
Width: 640
GlyphClass: 2
Flags: W
LayerCount: 2
Fore
SplineSet
192 -64 m 1,0,-1
 192 0 l 1,1,-1
 128 0 l 1,2,-1
 128 64 l 1,3,-1
 64 64 l 1,4,-1
 64 128 l 1,5,-1
 0 128 l 1,6,-1
 0 384 l 1,7,-1
 64 384 l 1,8,-1
 64 448 l 1,9,-1
 128 448 l 1,10,-1
 128 512 l 1,11,-1
 192 512 l 1,12,-1
 192 576 l 1,13,-1
 320 576 l 1,14,-1
 320 512 l 1,15,-1
 384 512 l 1,16,-1
 384 448 l 1,17,-1
 448 448 l 1,18,-1
 448 384 l 1,19,-1
 512 384 l 1,20,-1
 512 128 l 1,21,-1
 448 128 l 1,22,-1
 448 64 l 1,23,-1
 384 64 l 1,24,-1
 384 0 l 1,25,-1
 320 0 l 1,26,-1
 320 -64 l 1,27,-1
 192 -64 l 1,0,-1
384 128 m 1,28,-1
 384 384 l 1,29,-1
 320 384 l 1,30,-1
 320 320 l 1,31,-1
 192 320 l 1,32,-1
 192 384 l 1,33,-1
 128 384 l 1,34,-1
 128 128 l 1,35,-1
 192 128 l 1,36,-1
 192 192 l 1,37,-1
 320 192 l 1,38,-1
 320 128 l 1,39,-1
 384 128 l 1,28,-1
EndSplineSet
Validated: 1
EndChar

StartChar: uni047C
Encoding: 1148 1148 445
Width: 1024
GlyphClass: 2
Flags: W
LayerCount: 2
Fore
SplineSet
512 0 m 1,0,-1
 512 64 l 1,1,-1
 384 64 l 1,2,-1
 384 0 l 1,3,-1
 128 0 l 1,4,-1
 128 64 l 1,5,-1
 64 64 l 1,6,-1
 64 128 l 1,7,-1
 0 128 l 1,8,-1
 0 512 l 1,9,-1
 64 512 l 1,10,-1
 64 576 l 1,11,-1
 128 576 l 1,12,-1
 128 640 l 1,13,-1
 384 640 l 1,14,-1
 384 512 l 1,15,-1
 192 512 l 1,16,-1
 192 448 l 1,17,-1
 128 448 l 1,18,-1
 128 192 l 1,19,-1
 192 192 l 1,20,-1
 192 128 l 1,21,-1
 320 128 l 1,22,-1
 320 192 l 1,23,-1
 384 192 l 1,24,-1
 384 256 l 1,25,-1
 512 256 l 1,26,-1
 512 192 l 1,27,-1
 576 192 l 1,28,-1
 576 128 l 1,29,-1
 704 128 l 1,30,-1
 704 192 l 1,31,-1
 768 192 l 1,32,-1
 768 448 l 1,33,-1
 704 448 l 1,34,-1
 704 512 l 1,35,-1
 512 512 l 1,36,-1
 512 640 l 1,37,-1
 768 640 l 1,38,-1
 768 576 l 1,39,-1
 832 576 l 1,40,-1
 832 512 l 1,41,-1
 896 512 l 1,42,-1
 896 128 l 1,43,-1
 832 128 l 1,44,-1
 832 64 l 1,45,-1
 768 64 l 1,46,-1
 768 0 l 1,47,-1
 512 0 l 1,0,-1
512 640 m 1,48,-1
 448 640 l 1,49,-1
 448 704 l 1,50,-1
 320 704 l 1,51,-1
 320 768 l 1,52,-1
 576 768 l 1,53,-1
 576 704 l 1,54,-1
 512 704 l 1,55,-1
 512 640 l 1,48,-1
EndSplineSet
Validated: 5
EndChar

StartChar: uni047D
Encoding: 1149 1149 446
Width: 1024
GlyphClass: 2
Flags: W
LayerCount: 2
Fore
SplineSet
384 448 m 1,0,-1
 384 512 l 1,1,-1
 448 512 l 1,2,-1
 448 448 l 1,3,-1
 384 448 l 1,0,-1
512 0 m 1,4,-1
 512 64 l 1,5,-1
 384 64 l 1,6,-1
 384 0 l 1,7,-1
 128 0 l 1,8,-1
 128 64 l 1,9,-1
 64 64 l 1,10,-1
 64 128 l 1,11,-1
 0 128 l 1,12,-1
 0 384 l 1,13,-1
 64 384 l 1,14,-1
 64 448 l 1,15,-1
 128 448 l 1,16,-1
 128 512 l 1,17,-1
 256 512 l 1,18,-1
 256 384 l 1,19,-1
 192 384 l 1,20,-1
 192 320 l 1,21,-1
 128 320 l 1,22,-1
 128 192 l 1,23,-1
 192 192 l 1,24,-1
 192 128 l 1,25,-1
 320 128 l 1,26,-1
 320 192 l 1,27,-1
 384 192 l 1,28,-1
 384 256 l 1,29,-1
 512 256 l 1,30,-1
 512 192 l 1,31,-1
 576 192 l 1,32,-1
 576 128 l 1,33,-1
 704 128 l 1,34,-1
 704 192 l 1,35,-1
 768 192 l 1,36,-1
 768 320 l 1,37,-1
 704 320 l 1,38,-1
 704 384 l 1,39,-1
 640 384 l 1,40,-1
 640 512 l 1,41,-1
 768 512 l 1,42,-1
 768 448 l 1,43,-1
 832 448 l 1,44,-1
 832 384 l 1,45,-1
 896 384 l 1,46,-1
 896 128 l 1,47,-1
 832 128 l 1,48,-1
 832 64 l 1,49,-1
 768 64 l 1,50,-1
 768 0 l 1,51,-1
 512 0 l 1,4,-1
448 512 m 1,52,-1
 448 576 l 1,53,-1
 512 576 l 1,54,-1
 512 512 l 1,55,-1
 448 512 l 1,52,-1
704 640 m 1,56,-1
 704 576 l 1,57,-1
 576 576 l 1,58,-1
 576 640 l 1,59,-1
 704 640 l 1,56,-1
448 576 m 1,60,-1
 384 576 l 1,61,-1
 384 640 l 1,62,-1
 256 640 l 1,63,-1
 256 704 l 1,64,-1
 576 704 l 1,65,-1
 576 640 l 1,66,-1
 448 640 l 1,67,-1
 448 576 l 1,60,-1
EndSplineSet
Validated: 5
EndChar

StartChar: uni047E
Encoding: 1150 1150 447
Width: 1024
GlyphClass: 2
Flags: W
LayerCount: 2
Fore
SplineSet
512 0 m 1,0,-1
 512 64 l 1,1,-1
 384 64 l 1,2,-1
 384 0 l 1,3,-1
 128 0 l 1,4,-1
 128 64 l 1,5,-1
 64 64 l 1,6,-1
 64 128 l 1,7,-1
 0 128 l 1,8,-1
 0 512 l 1,9,-1
 64 512 l 1,10,-1
 64 576 l 1,11,-1
 128 576 l 1,12,-1
 128 640 l 1,13,-1
 256 640 l 1,14,-1
 256 704 l 1,15,-1
 320 704 l 1,16,-1
 320 640 l 1,17,-1
 384 640 l 1,18,-1
 384 512 l 1,19,-1
 192 512 l 1,20,-1
 192 448 l 1,21,-1
 128 448 l 1,22,-1
 128 192 l 1,23,-1
 192 192 l 1,24,-1
 192 128 l 1,25,-1
 320 128 l 1,26,-1
 320 192 l 1,27,-1
 384 192 l 1,28,-1
 384 384 l 1,29,-1
 512 384 l 1,30,-1
 512 192 l 1,31,-1
 576 192 l 1,32,-1
 576 128 l 1,33,-1
 704 128 l 1,34,-1
 704 192 l 1,35,-1
 768 192 l 1,36,-1
 768 448 l 1,37,-1
 704 448 l 1,38,-1
 704 512 l 1,39,-1
 512 512 l 1,40,-1
 512 640 l 1,41,-1
 576 640 l 1,42,-1
 576 704 l 1,43,-1
 640 704 l 1,44,-1
 640 640 l 1,45,-1
 768 640 l 1,46,-1
 768 576 l 1,47,-1
 832 576 l 1,48,-1
 832 512 l 1,49,-1
 896 512 l 1,50,-1
 896 128 l 1,51,-1
 832 128 l 1,52,-1
 832 64 l 1,53,-1
 768 64 l 1,54,-1
 768 0 l 1,55,-1
 512 0 l 1,0,-1
512 640 m 1,56,-1
 384 640 l 1,57,-1
 384 704 l 1,58,-1
 320 704 l 1,59,-1
 320 768 l 1,60,-1
 576 768 l 1,61,-1
 576 704 l 1,62,-1
 512 704 l 1,63,-1
 512 640 l 1,56,-1
EndSplineSet
Validated: 5
EndChar

StartChar: uni047F
Encoding: 1151 1151 448
Width: 768
GlyphClass: 2
Flags: W
LayerCount: 2
Fore
SplineSet
448 576 m 1,0,-1
 448 640 l 1,1,-1
 384 640 l 1,2,-1
 384 576 l 1,3,-1
 256 576 l 1,4,-1
 256 640 l 1,5,-1
 192 640 l 1,6,-1
 192 576 l 1,7,-1
 128 576 l 1,8,-1
 128 704 l 1,9,-1
 512 704 l 1,10,-1
 512 576 l 1,11,-1
 448 576 l 1,0,-1
320 0 m 1,12,-1
 320 128 l 1,13,-1
 256 128 l 1,14,-1
 256 0 l 1,15,-1
 128 0 l 1,16,-1
 128 128 l 1,17,-1
 64 128 l 1,18,-1
 64 320 l 1,19,-1
 0 320 l 1,20,-1
 0 512 l 1,21,-1
 128 512 l 1,22,-1
 128 320 l 1,23,-1
 192 320 l 1,24,-1
 192 192 l 1,25,-1
 256 192 l 1,26,-1
 256 512 l 1,27,-1
 384 512 l 1,28,-1
 384 192 l 1,29,-1
 448 192 l 1,30,-1
 448 320 l 1,31,-1
 512 320 l 1,32,-1
 512 512 l 1,33,-1
 640 512 l 1,34,-1
 640 256 l 1,35,-1
 576 256 l 1,36,-1
 576 128 l 1,37,-1
 512 128 l 1,38,-1
 512 0 l 1,39,-1
 320 0 l 1,12,-1
EndSplineSet
Validated: 1
EndChar

StartChar: uni0480
Encoding: 1152 1152 449
Width: 512
GlyphClass: 2
Flags: W
LayerCount: 2
Fore
SplineSet
256 -192 m 1,0,-1
 256 0 l 1,1,-1
 128 0 l 1,2,-1
 128 64 l 1,3,-1
 64 64 l 1,4,-1
 64 128 l 1,5,-1
 0 128 l 1,6,-1
 0 512 l 1,7,-1
 64 512 l 1,8,-1
 64 576 l 1,9,-1
 128 576 l 1,10,-1
 128 640 l 1,11,-1
 384 640 l 1,12,-1
 384 512 l 1,13,-1
 192 512 l 1,14,-1
 192 448 l 1,15,-1
 128 448 l 1,16,-1
 128 192 l 1,17,-1
 192 192 l 1,18,-1
 192 128 l 1,19,-1
 384 128 l 1,20,-1
 384 -192 l 1,21,-1
 256 -192 l 1,0,-1
EndSplineSet
Validated: 1
EndChar

StartChar: uni0481
Encoding: 1153 1153 450
Width: 576
GlyphClass: 2
Flags: W
LayerCount: 2
Fore
SplineSet
256 -192 m 1,0,-1
 256 0 l 1,1,-1
 128 0 l 1,2,-1
 128 64 l 1,3,-1
 64 64 l 1,4,-1
 64 128 l 1,5,-1
 0 128 l 1,6,-1
 0 384 l 1,7,-1
 64 384 l 1,8,-1
 64 448 l 1,9,-1
 128 448 l 1,10,-1
 128 512 l 1,11,-1
 384 512 l 1,12,-1
 384 448 l 1,13,-1
 448 448 l 1,14,-1
 448 320 l 1,15,-1
 320 320 l 1,16,-1
 320 384 l 1,17,-1
 192 384 l 1,18,-1
 192 320 l 1,19,-1
 128 320 l 1,20,-1
 128 192 l 1,21,-1
 192 192 l 1,22,-1
 192 128 l 1,23,-1
 384 128 l 1,24,-1
 384 -192 l 1,25,-1
 256 -192 l 1,0,-1
EndSplineSet
Validated: 1
EndChar

